SplineFontDB: 3.2
FontName: ComicShannsMono-Regular
FullName: Comic Shanns Mono Regular
FamilyName: Comic Shanns Mono-Regular
Weight: Regular
Copyright: MIT License\n\nCopyright (c) 2018 Shannon Miwa\nCopyright (c) 2023 Jesus Gonzalez\n\nPermission is hereby granted, free of charge, to any person obtaining a copy\nof this software and associated documentation files (the "Software"), to deal\nin the Software without restriction, including without limitation the rights\nto use, copy, modify, merge, publish, distribute, sublicense, and/or sell\ncopies of the Software, and to permit persons to whom the Software is\nfurnished to do so, subject to the following conditions:\n\nThe above copyright notice and this permission notice shall be included in all\ncopies or substantial portions of the Software.\n\nTHE SOFTWARE IS PROVIDED "AS IS", WITHOUT WARRANTY OF ANY KIND, EXPRESS OR\nIMPLIED, INCLUDING BUT NOT LIMITED TO THE WARRANTIES OF MERCHANTABILITY,\nFITNESS FOR A PARTICULAR PURPOSE AND NONINFRINGEMENT. IN NO EVENT SHALL THE\nAUTHORS OR COPYRIGHT HOLDERS BE LIABLE FOR ANY CLAIM, DAMAGES OR OTHER\nLIABILITY, WHETHER IN AN ACTION OF CONTRACT, TORT OR OTHERWISE, ARISING FROM,\nOUT OF OR IN CONNECTION WITH THE SOFTWARE OR THE USE OR OTHER DEALINGS IN THE\nSOFTWARE.
Version: 1.3.0
ItalicAngle: 0
UnderlinePosition: 0
UnderlineWidth: 0
Ascent: 750
Descent: 250
InvalidEm: 0
sfntRevision: 0x00000000
LayerCount: 2
Layer: 0 0 "Atr+AOEA-s" 1
Layer: 1 0 "Fore" 0
XUID: [1021 943 13545321 29583]
StyleMap: 0x0040
FSType: 0
OS2Version: 3
OS2_WeightWidthSlopeOnly: 0
OS2_UseTypoMetrics: 0
CreationTime: 1608751085
ModificationTime: 1679946301
PfmFamily: 49
TTFWeight: 400
TTFWidth: 5
LineGap: 200
VLineGap: 0
Panose: 0 0 0 0 0 0 0 0 0 0
OS2TypoAscent: 750
OS2TypoAOffset: 0
OS2TypoDescent: -250
OS2TypoDOffset: 0
OS2TypoLinegap: 200
OS2WinAscent: 1167
OS2WinAOffset: 0
OS2WinDescent: 564
OS2WinDOffset: 0
HheadAscent: 750
HheadAOffset: 0
HheadDescent: -250
HheadDOffset: 0
OS2SubXSize: 650

StartChar: .notdef
Encoding: 65536 -1 0
Width: 500
GlyphClass: 1
Flags: W
LayerCount: 2
Fore
SplineSet
50 -250 m 1
 50 700 l 1
 450 700 l 1
 450 -250 l 1
 50 -250 l 1
100 -200 m 1
 400 -200 l 1
 400 650 l 1
 100 650 l 1
 100 -200 l 1
EndSplineSet
EndChar

StartChar: exclam
Encoding: 33 33 2
Width: 550
GlyphClass: 1
Flags: W
LayerCount: 2
Fore
SplineSet
330 690 m 0
 330 676 329.500976562 657.665039062 328.500976562 634.998046875 c 0
 327.500976562 612.331054688 326.500976562 587.331054688 325.500976562 559.998046875 c 0
 324.500976562 532.665039062 323.833984375 503.498046875 323.500976562 472.498046875 c 0
 323.16796875 441.498046875 323.334960938 410.665039062 324.001953125 379.998046875 c 0
 324.668945312 348.665039062 325.001953125 327.665039062 325.001953125 316.998046875 c 0
 325.001953125 306.331054688 324.668945312 299.331054688 324.001953125 295.998046875 c 0
 323.334960938 292.665039062 322.834960938 289.165039062 322.501953125 285.498046875 c 0
 322.168945312 281.831054688 322.3359375 270.998046875 323.002929688 252.998046875 c 0
 321.669921875 238.998046875 316.169921875 228.165039062 306.502929688 220.498046875 c 0
 296.8359375 212.831054688 285.668945312 209.331054688 273.001953125 209.998046875 c 0
 261.668945312 209.998046875 251.668945312 213.998046875 243.001953125 221.998046875 c 0
 234.334960938 229.998046875 230.66796875 241.998046875 232.000976562 257.998046875 c 0
 232.66796875 270.665039062 233.66796875 279.83203125 235.000976562 285.499023438 c 0
 236.333984375 291.166015625 237.500976562 298.499023438 238.500976562 307.499023438 c 0
 239.500976562 316.499023438 240.000976562 330.499023438 240.000976562 349.499023438 c 0
 240.000976562 368.499023438 239.333984375 396.999023438 238.000976562 434.999023438 c 0
 236.000976562 486.999023438 235.66796875 535.499023438 237.000976562 580.499023438 c 0
 238.333984375 625.499023438 239.333984375 660.999023438 240.000976562 686.999023438 c 0
 240.66796875 704.999023438 245.66796875 717.999023438 255.000976562 725.999023438 c 0
 264.333984375 733.999023438 274.666992188 737.999023438 286 737.999023438 c 0
 298.666992188 738.666015625 309.166992188 735.333007812 317.5 728 c 0
 325.833007812 720.666992188 330 708 330 690 c 0
278.000976562 -23.001953125 m 0
 254.000976562 -25.6689453125 235.001953125 -19.001953125 221.001953125 -3.001953125 c 0
 207.001953125 12.998046875 200.001953125 30.6650390625 200.001953125 49.998046875 c 0
 200.001953125 69.3310546875 208.168945312 85.8310546875 224.501953125 99.498046875 c 0
 240.834960938 113.165039062 258.66796875 120.33203125 278.000976562 120.999023438 c 0
 300.66796875 121.666015625 318.66796875 114.999023438 332.000976562 100.999023438 c 0
 345.333984375 86.9990234375 352.000976562 70.33203125 352.000976562 50.9990234375 c 0
 352.000976562 31.666015625 345.333984375 15.166015625 332.000976562 1.4990234375 c 0
 318.66796875 -12.16796875 300.66796875 -20.3349609375 278.000976562 -23.001953125 c 0
EndSplineSet
EndChar

StartChar: quotedbl
Encoding: 34 34 3
Width: 550
GlyphClass: 1
Flags: W
LayerCount: 2
Fore
SplineSet
249 690 m 2
 249.004882812 641.5 l 2
 249.004882812 619.166992188 248.671875 595.5 248.004882812 570.5 c 0
 247.337890625 545.5 246.504882812 521.166992188 245.504882812 497.5 c 0
 244.504882812 473.833007812 243.337890625 456 242.004882812 444 c 0
 240.004882812 430.666992188 234.171875 421 224.504882812 415 c 0
 214.837890625 409 205.670898438 406.333007812 197.00390625 407 c 0
 186.336914062 407.666992188 175.669921875 411.333984375 165.002929688 418.000976562 c 0
 154.3359375 424.66796875 149.668945312 435.334960938 151.001953125 450.001953125 c 0
 152.334960938 460.668945312 153.16796875 477.501953125 153.500976562 500.501953125 c 0
 153.833984375 523.501953125 153.833984375 547.501953125 153.500976562 572.501953125 c 0
 153.16796875 597.501953125 152.66796875 621.501953125 152.000976562 644.501953125 c 0
 151.333984375 667.501953125 150.666992188 684.334960938 150 695.001953125 c 0
 149.333007812 711.668945312 155.333007812 722.168945312 168 726.501953125 c 0
 180.666992188 730.834960938 192 732.66796875 202 732.000976562 c 0
 212 732.000976562 222.166992188 729.16796875 232.5 723.500976562 c 0
 242.833007812 717.833984375 248.333007812 706.666992188 249 690 c 2
399.004882812 690 m 2
 399.009765625 641.5 l 2
 399.009765625 619.166992188 398.676757812 595.5 398.009765625 570.5 c 0
 397.342773438 545.5 396.509765625 521.166992188 395.509765625 497.5 c 0
 394.509765625 473.833007812 393.342773438 456 392.009765625 444 c 0
 390.009765625 430.666992188 384.176757812 421 374.509765625 415 c 0
 364.842773438 409 355.67578125 406.333007812 347.008789062 407 c 0
 336.341796875 407.666992188 325.674804688 411.333984375 315.0078125 418.000976562 c 0
 304.340820312 424.66796875 299.673828125 435.334960938 301.006835938 450.001953125 c 0
 302.33984375 460.668945312 303.172851562 477.501953125 303.505859375 500.501953125 c 0
 303.838867188 523.501953125 303.838867188 547.501953125 303.505859375 572.501953125 c 0
 303.172851562 597.501953125 302.672851562 621.501953125 302.005859375 644.501953125 c 0
 301.338867188 667.501953125 300.671875 684.334960938 300.004882812 695.001953125 c 0
 299.337890625 711.668945312 305.337890625 722.168945312 318.004882812 726.501953125 c 0
 330.671875 730.834960938 342.004882812 732.66796875 352.004882812 732.000976562 c 0
 362.004882812 732.000976562 372.171875 729.16796875 382.504882812 723.500976562 c 0
 392.837890625 717.833984375 398.337890625 706.666992188 399.004882812 690 c 2
EndSplineSet
EndChar

StartChar: numbersign
Encoding: 35 35 4
Width: 550
GlyphClass: 1
Flags: W
LayerCount: 2
Fore
SplineSet
75 252 m 0
 81.6669921875 252.666992188 89 253.005859375 97 253.005859375 c 0
 105 253.005859375 113 253.338867188 121 254.005859375 c 1
 125.666992188 279.338867188 130.833984375 305.838867188 136.500976562 333.505859375 c 0
 142.16796875 361.172851562 147.66796875 388.33984375 153.000976562 415.006835938 c 1
 145.66796875 415.006835938 138.66796875 414.83984375 132.000976562 414.506835938 c 0
 125.333984375 414.173828125 119.333984375 414.006835938 114.000976562 414.006835938 c 0
 97.333984375 413.33984375 85.1669921875 416.83984375 77.5 424.506835938 c 0
 69.8330078125 432.173828125 66 441.006835938 66 451.006835938 c 0
 65.3330078125 461.006835938 68.8330078125 470.173828125 76.5 478.506835938 c 0
 84.1669921875 486.83984375 96.333984375 491.33984375 113.000976562 492.006835938 c 0
 121.66796875 492.673828125 130.834960938 493.006835938 140.501953125 493.006835938 c 2
 168.001953125 493.006835938 l 1
 173.334960938 522.33984375 178.501953125 549.672851562 183.501953125 575.005859375 c 0
 188.501953125 600.338867188 192.334960938 621.338867188 195.001953125 638.005859375 c 0
 199.668945312 654.672851562 207.501953125 665.83984375 218.501953125 671.506835938 c 0
 229.501953125 677.173828125 240.334960938 678.673828125 251.001953125 676.006835938 c 0
 263.668945312 673.33984375 273.668945312 667.172851562 281.001953125 657.505859375 c 0
 288.334960938 647.838867188 290.334960938 634.671875 287.001953125 618.004882812 c 0
 284.334960938 603.337890625 280.66796875 585.504882812 276.000976562 564.504882812 c 0
 271.333984375 543.504882812 266.666992188 520.337890625 262 495.004882812 c 1
 368 495.004882812 l 1
 372.666992188 523.004882812 377.333984375 548.671875 382.000976562 572.004882812 c 0
 386.66796875 595.337890625 390.334960938 615.004882812 393.001953125 631.004882812 c 0
 397.668945312 648.337890625 405.668945312 659.670898438 417.001953125 665.00390625 c 0
 428.334960938 670.336914062 439.334960938 671.669921875 450.001953125 669.002929688 c 0
 462.668945312 666.3359375 472.8359375 660.3359375 480.502929688 651.002929688 c 0
 488.169921875 641.669921875 489.669921875 628.336914062 485.002929688 611.00390625 c 0
 481.669921875 597.670898438 478.002929688 581.00390625 474.002929688 561.00390625 c 0
 470.002929688 541.00390625 466.002929688 519.336914062 462.002929688 496.00390625 c 1
 473.002929688 496.00390625 l 2
 489.002929688 496.00390625 501.669921875 491.670898438 511.002929688 483.00390625 c 0
 520.3359375 474.336914062 525.3359375 465.669921875 526.002929688 457.002929688 c 0
 526.002929688 447.002929688 522.669921875 437.8359375 516.002929688 429.502929688 c 0
 509.3359375 421.169921875 497.668945312 416.669921875 481.001953125 416.002929688 c 2
 447.001953125 416.002929688 l 1
 442.334960938 390.002929688 437.834960938 363.502929688 433.501953125 336.502929688 c 0
 429.168945312 309.502929688 424.668945312 282.669921875 420.001953125 256.002929688 c 1
 458.001953125 256.002929688 l 2
 474.001953125 256.002929688 484.501953125 252.3359375 489.501953125 245.002929688 c 0
 494.501953125 237.669921875 497.334960938 229.669921875 498.001953125 221.002929688 c 0
 498.001953125 211.002929688 495.501953125 201.669921875 490.501953125 193.002929688 c 0
 485.501953125 184.3359375 474.668945312 180.002929688 458.001953125 180.002929688 c 2
 406.001953125 180.002929688 l 1
 401.334960938 151.3359375 396.66796875 124.668945312 392.000976562 100.001953125 c 0
 387.333984375 75.3349609375 383.000976562 53.66796875 379.000976562 35.0009765625 c 0
 374.333984375 21.66796875 365.500976562 11.66796875 352.500976562 5.0009765625 c 0
 339.500976562 -1.666015625 327.000976562 -3.3330078125 315.000976562 0 c 0
 303.66796875 2.6669921875 295.000976562 10 289.000976562 22 c 0
 283.000976562 34 282.333984375 48 287.000976562 64 c 0
 289.66796875 74 293.16796875 89 297.500976562 109 c 0
 301.833984375 129 306.333984375 152.333007812 311.000976562 179 c 1
 292.333984375 179 273.500976562 178.833007812 254.500976562 178.5 c 0
 235.500976562 178.166992188 217.333984375 178 200.000976562 178 c 1
 194.66796875 151.333007812 189.500976562 126 184.500976562 102 c 0
 179.500976562 78 175.000976562 57 171.000976562 39 c 0
 166.333984375 26.3330078125 157.333984375 15.666015625 144.000976562 6.9990234375 c 0
 130.66796875 -1.66796875 118.000976562 -4.0009765625 106.000976562 -0.0009765625 c 0
 94.66796875 2.666015625 86.16796875 10.4990234375 80.5009765625 23.4990234375 c 0
 74.833984375 36.4990234375 74.333984375 51.33203125 79.0009765625 67.9990234375 c 2
 90.0009765625 111.999023438 l 2
 94.66796875 130.666015625 99.66796875 152.333007812 105.000976562 177 c 1
 77.0009765625 177 l 2
 60.333984375 177 48.1669921875 180.166992188 40.5 186.5 c 0
 32.8330078125 192.833007812 29 201 29 211 c 0
 28.3330078125 221 31.5 230.166992188 38.5 238.5 c 0
 45.5 246.833007812 57.6669921875 251.333007812 75 252 c 0
247 416.005859375 m 1
 242.333007812 390.005859375 237.166992188 363.505859375 231.5 336.505859375 c 0
 225.833007812 309.505859375 220.333007812 282.672851562 215 256.005859375 c 1
 233.666992188 256.672851562 252.5 257.005859375 271.5 257.005859375 c 2
 325 257.005859375 l 1
 329.666992188 282.338867188 334.5 308.505859375 339.5 335.505859375 c 0
 344.5 362.505859375 349.333007812 389.338867188 354 416.005859375 c 1
 247 416.005859375 l 1
EndSplineSet
EndChar

StartChar: dollar
Encoding: 36 36 5
Width: 550
GlyphClass: 1
Flags: W
LayerCount: 2
Fore
SplineSet
63 88 m 0
 54.3330078125 104.666992188 51.6650390625 118.502929688 54.998046875 129.502929688 c 0
 58.3310546875 140.502929688 64.998046875 148.3359375 74.998046875 153.002929688 c 0
 87.6650390625 158.3359375 98.6650390625 160.668945312 107.998046875 160.001953125 c 0
 117.331054688 159.334960938 127.6640625 150.66796875 138.997070312 134.000976562 c 0
 149.6640625 118.000976562 162.831054688 103.66796875 178.498046875 91.0009765625 c 0
 194.165039062 78.333984375 215.33203125 72.0009765625 241.999023438 72.0009765625 c 2
 251.999023438 72.0009765625 l 1
 252.666015625 108.000976562 253.166015625 148.500976562 253.499023438 193.500976562 c 0
 253.83203125 238.500976562 253.999023438 283.66796875 253.999023438 329.000976562 c 1
 247.33203125 329.66796875 240.499023438 330.66796875 233.499023438 332.000976562 c 0
 226.499023438 333.333984375 219.33203125 334.333984375 211.999023438 335.000976562 c 0
 165.999023438 339.66796875 130.999023438 354.334960938 106.999023438 379.001953125 c 0
 82.9990234375 403.668945312 70.9990234375 428.3359375 70.9990234375 453.002929688 c 0
 70.9990234375 475.669921875 74.666015625 497.669921875 81.9990234375 519.002929688 c 0
 89.33203125 540.3359375 100.33203125 559.668945312 114.999023438 577.001953125 c 0
 129.666015625 594.334960938 148.666015625 609.501953125 171.999023438 622.501953125 c 0
 195.33203125 635.501953125 222.999023438 644.668945312 254.999023438 650.001953125 c 1
 255.666015625 660.668945312 255.999023438 670.3359375 255.999023438 679.002929688 c 2
 255.999023438 702.002929688 l 2
 256.666015625 720.002929688 259.666015625 733.002929688 264.999023438 741.002929688 c 0
 270.33203125 749.002929688 277.33203125 753.002929688 285.999023438 753.002929688 c 0
 298.666015625 753.669921875 308.833007812 750.336914062 316.5 743.00390625 c 0
 324.166992188 735.670898438 328 723.00390625 328 705.00390625 c 2
 328 655.00390625 l 1
 335.333007812 654.336914062 344.333007812 653.00390625 355 651.00390625 c 0
 365.666992188 649.00390625 376.5 646.836914062 387.5 644.50390625 c 0
 398.5 642.170898438 408.833007812 639.670898438 418.5 637.00390625 c 0
 428.166992188 634.336914062 435.666992188 632.00390625 441 630.00390625 c 0
 453.666992188 625.336914062 462.333984375 618.169921875 467.000976562 608.502929688 c 0
 471.66796875 598.8359375 473.334960938 589.002929688 472.001953125 579.002929688 c 0
 470.001953125 563.669921875 462.501953125 555.502929688 449.501953125 554.502929688 c 0
 436.501953125 553.502929688 425.334960938 554.3359375 416.001953125 557.002929688 c 0
 403.334960938 559.669921875 391.834960938 564.169921875 381.501953125 570.502929688 c 0
 371.168945312 576.8359375 353.001953125 580.3359375 327.001953125 581.002929688 c 1
 326.334960938 555.002929688 325.834960938 527.002929688 325.501953125 497.002929688 c 0
 325.168945312 467.002929688 324.668945312 435.669921875 324.001953125 403.002929688 c 1
 361.334960938 398.3359375 392.16796875 389.3359375 416.500976562 376.002929688 c 0
 440.833984375 362.669921875 460.000976562 347.002929688 474.000976562 329.002929688 c 0
 488.000976562 311.002929688 497.833984375 291.669921875 503.500976562 271.002929688 c 0
 509.16796875 250.3359375 512.000976562 230.002929688 512.000976562 210.002929688 c 0
 512.000976562 183.3359375 507.000976562 158.668945312 497.000976562 136.001953125 c 0
 487.000976562 113.334960938 473.500976562 93.16796875 456.500976562 75.5009765625 c 0
 439.500976562 57.833984375 419.333984375 42.833984375 396.000976562 30.5009765625 c 0
 372.66796875 18.16796875 347.66796875 8.66796875 321.000976562 2.0009765625 c 1
 321.000976562 -39.4990234375 l 2
 321.000976562 -52.4990234375 321.333984375 -63.33203125 322.000976562 -71.9990234375 c 0
 320.66796875 -85.9990234375 315.334960938 -96.83203125 306.001953125 -104.499023438 c 0
 296.668945312 -112.166015625 285.668945312 -115.666015625 273.001953125 -114.999023438 c 0
 264.334960938 -114.999023438 257.66796875 -110.999023438 253.000976562 -102.999023438 c 0
 248.333984375 -94.9990234375 246.666992188 -82.9990234375 248 -66.9990234375 c 0
 248.666992188 -61.666015625 249.166992188 -53.8330078125 249.5 -43.5 c 0
 249.833007812 -33.1669921875 250.333007812 -21 251 -7 c 1
 238 -7 l 2
 192 -7 154.333007812 3.1669921875 125 23.5 c 0
 95.6669921875 43.8330078125 75 65.3330078125 63 88 c 0
157.999023438 476.002929688 m 0
 157.999023438 460.669921875 166.499023438 447.002929688 183.499023438 435.002929688 c 0
 200.499023438 423.002929688 223.999023438 414.669921875 253.999023438 410.002929688 c 1
 254.666015625 439.3359375 254.999023438 468.002929688 254.999023438 496.002929688 c 2
 254.999023438 574.002929688 l 1
 226.999023438 567.3359375 203.83203125 555.502929688 185.499023438 538.502929688 c 0
 167.166015625 521.502929688 157.999023438 500.669921875 157.999023438 476.002929688 c 0
424.999023438 194.002929688 m 0
 424.999023438 216.002929688 418.666992188 237.668945312 406 259.001953125 c 0
 393.333007812 280.334960938 365.666015625 298.334960938 322.999023438 313.001953125 c 1
 322.33203125 273.668945312 321.999023438 234.501953125 321.999023438 195.501953125 c 0
 321.999023438 156.501953125 321.666015625 120.334960938 320.999023438 87.001953125 c 1
 348.33203125 96.3349609375 372.499023438 110.334960938 393.499023438 129.001953125 c 0
 414.499023438 147.668945312 424.999023438 169.3359375 424.999023438 194.002929688 c 0
EndSplineSet
EndChar

StartChar: percent
Encoding: 37 37 6
Width: 550
GlyphClass: 1
Flags: W
LayerCount: 2
Fore
SplineSet
145 404 m 0
 111 404.666992188 84.3330078125 417.499023438 65 442.499023438 c 0
 45.6669921875 467.499023438 36.333984375 495.666015625 37.0009765625 526.999023438 c 0
 37.0009765625 563.666015625 47.5009765625 594.833007812 68.5009765625 620.5 c 0
 89.5009765625 646.166992188 120.000976562 659 160.000976562 659 c 0
 174.66796875 659 189.16796875 656.5 203.500976562 651.5 c 0
 217.833984375 646.5 230.166992188 638.5 240.5 627.5 c 0
 250.833007812 616.5 258.833007812 602.166992188 264.5 584.5 c 0
 270.166992188 566.833007812 272 545.333007812 270 520 c 0
 268 484 257.333007812 455.5 238 434.5 c 0
 218.666992188 413.5 187.666992188 403.333007812 145 404 c 0
60 17.9990234375 m 0
 72.6669921875 43.33203125 94.6669921875 83.6650390625 126 138.998046875 c 0
 157.333007812 194.331054688 190.666015625 252.998046875 225.999023438 314.998046875 c 0
 261.33203125 376.998046875 295.33203125 437.331054688 327.999023438 495.998046875 c 0
 360.666015625 554.665039062 384.333007812 600.33203125 399 632.999023438 c 0
 406.333007812 644.33203125 416 651.33203125 428 653.999023438 c 0
 440 656.666015625 451.333007812 654.999023438 462 648.999023438 c 0
 472.666992188 644.33203125 479 636.999023438 481 626.999023438 c 0
 483 616.999023438 479.666992188 605.33203125 471 591.999023438 c 0
 460.333007812 573.999023438 439.333007812 537.499023438 408 482.499023438 c 0
 376.666992188 427.499023438 343.166992188 368.166015625 307.5 304.499023438 c 0
 271.833007812 240.83203125 237.5 178.83203125 204.5 118.499023438 c 0
 171.5 58.166015625 147.666992188 13.666015625 133 -15.0009765625 c 0
 124.333007812 -31.0009765625 115.333007812 -41.0009765625 106 -45.0009765625 c 0
 96.6669921875 -49.0009765625 86.6669921875 -48.66796875 76 -44.0009765625 c 0
 64.6669921875 -38.66796875 57.1669921875 -31.0009765625 53.5 -21.0009765625 c 0
 49.8330078125 -11.0009765625 52 1.9990234375 60 17.9990234375 c 0
155 473.999023438 m 0
 171.666992188 473.33203125 183.833007812 478.499023438 191.5 489.499023438 c 0
 199.166992188 500.499023438 203.666992188 513.666015625 205 528.999023438 c 0
 205.666992188 550.999023438 201.166992188 566.83203125 191.5 576.499023438 c 0
 181.833007812 586.166015625 169 590.999023438 153 590.999023438 c 0
 137.666992188 590.999023438 126 585.33203125 118 573.999023438 c 0
 110 562.666015625 105.333007812 547.999023438 104 529.999023438 c 0
 103.333007812 513.999023438 106.333007812 500.999023438 113 490.999023438 c 0
 119.666992188 480.999023438 133.666992188 475.33203125 155 473.999023438 c 0
394.999023438 -26.0009765625 m 0
 360.999023438 -25.333984375 334.33203125 -12.501953125 314.999023438 12.498046875 c 0
 295.666015625 37.498046875 286.333007812 65.6650390625 287 96.998046875 c 0
 287 133.665039062 297.5 164.83203125 318.5 190.499023438 c 0
 339.5 216.166015625 370 228.999023438 410 228.999023438 c 0
 424.666992188 228.999023438 439.166992188 226.499023438 453.5 221.499023438 c 0
 467.833007812 216.499023438 480.166015625 208.499023438 490.499023438 197.499023438 c 0
 500.83203125 186.499023438 508.83203125 172.166015625 514.499023438 154.499023438 c 0
 520.166015625 136.83203125 521.999023438 115.33203125 519.999023438 89.9990234375 c 0
 517.999023438 53.9990234375 507.33203125 25.4990234375 487.999023438 4.4990234375 c 0
 468.666015625 -16.5009765625 437.666015625 -26.66796875 394.999023438 -26.0009765625 c 0
404.999023438 44.998046875 m 0
 420.999023438 44.3310546875 432.997070312 49.49609375 440.997070312 60.49609375 c 0
 448.997070312 71.49609375 453.330078125 84.3291015625 453.997070312 98.99609375 c 0
 454.6640625 120.99609375 450.331054688 136.663085938 440.998046875 145.99609375 c 0
 431.665039062 155.329101562 418.998046875 159.99609375 402.998046875 159.99609375 c 0
 388.331054688 159.99609375 376.831054688 154.329101562 368.498046875 142.99609375 c 0
 360.165039062 131.663085938 355.665039062 117.330078125 354.998046875 99.9970703125 c 0
 354.331054688 84.6640625 357.331054688 71.8310546875 363.998046875 61.498046875 c 0
 370.665039062 51.1650390625 384.33203125 45.6650390625 404.999023438 44.998046875 c 0
EndSplineSet
EndChar

StartChar: ampersand
Encoding: 38 38 7
Width: 550
GlyphClass: 1
Flags: W
LayerCount: 2
Fore
SplineSet
488 -33 m 0
 476.666992188 -39.6669921875 463.834960938 -39.3310546875 449.501953125 -31.998046875 c 0
 435.168945312 -24.6650390625 423.001953125 -12.33203125 413.001953125 5.0009765625 c 0
 410.334960938 9.66796875 406.66796875 18.66796875 402.000976562 32.0009765625 c 0
 397.333984375 45.333984375 392.666992188 56.6669921875 388 66 c 1
 380 56 371.333007812 45 362 33 c 0
 352.666992188 21 341.666992188 9.6669921875 329 -1 c 0
 316.333007812 -11.6669921875 301.333007812 -20.6669921875 284 -28 c 0
 266.666992188 -35.3330078125 246.333984375 -39 223.000976562 -39 c 0
 196.333984375 -39 171.500976562 -33.8330078125 148.500976562 -23.5 c 0
 125.500976562 -13.1669921875 105.66796875 0.8330078125 89.0009765625 18.5 c 0
 72.333984375 36.1669921875 59.1669921875 56.833984375 49.5 80.5009765625 c 0
 39.8330078125 104.16796875 35 128.66796875 35 154.000976562 c 0
 35 212.000976562 47.3330078125 261.333984375 72 302.000976562 c 0
 96.6669921875 342.66796875 133 373.66796875 181 395.000976562 c 1
 169 414.333984375 159 430.166992188 151 442.5 c 0
 143 454.833007812 136.333007812 466.333007812 131 477 c 0
 125.666992188 487.666992188 121.833984375 498.5 119.500976562 509.5 c 0
 117.16796875 520.5 116.000976562 534.333007812 116.000976562 551 c 0
 116.000976562 563.666992188 118.500976562 577.333984375 123.500976562 592.000976562 c 0
 128.500976562 606.66796875 136.66796875 620.334960938 148.000976562 633.001953125 c 0
 159.333984375 645.668945312 174.500976562 656.168945312 193.500976562 664.501953125 c 0
 212.500976562 672.834960938 236.333984375 677.001953125 265.000976562 677.001953125 c 0
 283.000976562 677.001953125 300.833984375 674.168945312 318.500976562 668.501953125 c 0
 336.16796875 662.834960938 352.000976562 654.334960938 366.000976562 643.001953125 c 0
 380.000976562 631.668945312 391.333984375 617.501953125 400.000976562 600.501953125 c 0
 408.66796875 583.501953125 413.000976562 563.668945312 413.000976562 541.001953125 c 0
 413.000976562 515.001953125 409.16796875 492.501953125 401.500976562 473.501953125 c 0
 393.833984375 454.501953125 384.000976562 438.168945312 372.000976562 424.501953125 c 0
 360.000976562 410.834960938 346.66796875 399.16796875 332.000976562 389.500976562 c 0
 317.333984375 379.833984375 303.000976562 371.666992188 289.000976562 365 c 1
 303.66796875 339 322.000976562 311.333007812 344.000976562 282 c 0
 366.000976562 252.666992188 384.000976562 226.666992188 398.000976562 204 c 1
 406.000976562 220.666992188 413.000976562 235.833984375 419.000976562 249.500976562 c 0
 425.000976562 263.16796875 429.66796875 272.66796875 433.000976562 278.000976562 c 0
 444.333984375 294.66796875 454.833984375 304.66796875 464.500976562 308.000976562 c 0
 474.16796875 311.333984375 485.334960938 310.333984375 498.001953125 305.000976562 c 0
 508.001953125 300.333984375 514.501953125 291.166992188 517.501953125 277.5 c 0
 520.501953125 263.833007812 517.668945312 248.666015625 509.001953125 231.999023438 c 0
 504.334960938 222.666015625 495.66796875 210.833007812 483.000976562 196.5 c 0
 470.333984375 182.166992188 456.666992188 163.666992188 442 141 c 1
 451.333007812 126.333007812 461 109.833007812 471 91.5 c 0
 481 73.1669921875 488.666992188 59.6669921875 494 51 c 0
 503.333007812 36.3330078125 506.833007812 19.8330078125 504.5 1.5 c 0
 502.166992188 -16.8330078125 496.666992188 -28.3330078125 488 -33 c 0
205.000976562 535.002929688 m 0
 205.000976562 518.3359375 209.500976562 500.502929688 218.500976562 481.502929688 c 0
 227.500976562 462.502929688 237.333984375 446.669921875 248.000976562 434.002929688 c 1
 273.333984375 442.002929688 294.166992188 452.669921875 310.5 466.002929688 c 0
 326.833007812 479.3359375 335 501.3359375 335 532.002929688 c 0
 335 556.669921875 327.333007812 574.669921875 312 586.002929688 c 0
 296.666992188 597.3359375 280.333984375 603.002929688 263.000976562 603.002929688 c 0
 237.000976562 603.002929688 220.833984375 594.8359375 214.500976562 578.502929688 c 0
 208.16796875 562.169921875 205.000976562 547.669921875 205.000976562 535.002929688 c 0
128.000976562 163.002929688 m 0
 128.000976562 130.3359375 137.001953125 103.168945312 155.001953125 81.501953125 c 0
 173.001953125 59.8349609375 196.001953125 49.001953125 224.001953125 49.001953125 c 0
 242.668945312 49.001953125 258.501953125 51.6689453125 271.501953125 57.001953125 c 0
 284.501953125 62.3349609375 295.668945312 69.001953125 305.001953125 77.001953125 c 0
 314.334960938 85.001953125 322.334960938 93.6689453125 329.001953125 103.001953125 c 0
 335.668945312 112.334960938 341.668945312 120.66796875 347.001953125 128.000976562 c 1
 342.334960938 138.66796875 337.66796875 148.66796875 333.000976562 158.000976562 c 0
 328.333984375 167.333984375 323.666992188 176.333984375 319 185.000976562 c 0
 308.333007812 205.000976562 294.333007812 226.66796875 277 250.000976562 c 0
 259.666992188 273.333984375 242.333984375 299.000976562 225.000976562 327.000976562 c 1
 187.000976562 309.66796875 161.333984375 286.334960938 148.000976562 257.001953125 c 0
 134.66796875 227.668945312 128.000976562 196.3359375 128.000976562 163.002929688 c 0
EndSplineSet
EndChar

StartChar: quotesingle
Encoding: 39 39 8
Width: 550
GlyphClass: 1
Flags: W
LayerCount: 2
Fore
SplineSet
329 680 m 2
 329.004882812 634.497070312 l 2
 329.004882812 614.1640625 328.671875 592.831054688 328.004882812 570.498046875 c 0
 327.337890625 548.165039062 326.504882812 526.165039062 325.504882812 504.498046875 c 0
 324.504882812 482.831054688 323.337890625 465.998046875 322.004882812 453.998046875 c 0
 320.004882812 440.665039062 314.171875 430.998046875 304.504882812 424.998046875 c 0
 294.837890625 418.998046875 285.670898438 416.331054688 277.00390625 416.998046875 c 0
 266.336914062 417.665039062 255.669921875 421.33203125 245.002929688 427.999023438 c 0
 234.3359375 434.666015625 229.668945312 445.333007812 231.001953125 460 c 0
 232.334960938 470.666992188 233.16796875 486.333984375 233.500976562 507.000976562 c 0
 233.833984375 527.66796875 233.833984375 549.334960938 233.500976562 572.001953125 c 0
 233.16796875 594.668945312 232.66796875 616.501953125 232.000976562 637.501953125 c 0
 231.333984375 658.501953125 230.666992188 674.334960938 230 685.001953125 c 0
 229.333007812 701.668945312 235.333007812 712.168945312 248 716.501953125 c 0
 260.666992188 720.834960938 272 722.66796875 282 722.000976562 c 0
 292 722.000976562 302.166992188 719.16796875 312.5 713.500976562 c 0
 322.833007812 707.833984375 328.333007812 696.666992188 329 680 c 2
EndSplineSet
EndChar

StartChar: parenleft
Encoding: 40 40 9
Width: 550
GlyphClass: 1
Flags: W
LayerCount: 2
Fore
SplineSet
386 -123 m 0
 354.666992188 -123 325.50390625 -114.329101562 298.50390625 -96.99609375 c 0
 271.50390625 -79.6630859375 247.670898438 -55.49609375 227.00390625 -24.49609375 c 0
 206.336914062 6.50390625 189.169921875 43.8369140625 175.502929688 87.50390625 c 0
 161.8359375 131.170898438 152.668945312 178.670898438 148.001953125 230.00390625 c 0
 146.001953125 249.336914062 145.001953125 274.169921875 145.001953125 304.502929688 c 0
 145.001953125 334.8359375 146.501953125 366.668945312 149.501953125 400.001953125 c 0
 152.501953125 433.334960938 157.001953125 466.66796875 163.001953125 500.000976562 c 0
 169.001953125 533.333984375 177.001953125 562.666992188 187.001953125 588 c 0
 195.001953125 608 205.668945312 628.333007812 219.001953125 649 c 0
 232.334960938 669.666992188 247.834960938 688.166992188 265.501953125 704.5 c 0
 283.168945312 720.833007812 302.3359375 734.333007812 323.002929688 745 c 0
 343.669921875 755.666992188 365.002929688 761 387.002929688 761 c 0
 394.3359375 761 402.502929688 758.833007812 411.502929688 754.5 c 0
 420.502929688 750.166992188 425.002929688 739.666992188 425.002929688 723 c 0
 425.002929688 708.333007812 420.8359375 698.333007812 412.502929688 693 c 0
 404.169921875 687.666992188 395.002929688 685 385.002929688 685 c 0
 368.3359375 685 353.168945312 680.166992188 339.501953125 670.5 c 0
 325.834960938 660.833007812 313.66796875 648.166015625 303.000976562 632.499023438 c 0
 292.333984375 616.83203125 283.000976562 598.999023438 275.000976562 578.999023438 c 0
 267.000976562 558.999023438 260.66796875 538.33203125 256.000976562 516.999023438 c 0
 252.000976562 500.33203125 248.500976562 479.999023438 245.500976562 455.999023438 c 0
 242.500976562 431.999023438 240.333984375 407.33203125 239.000976562 381.999023438 c 0
 237.66796875 356.666015625 237.000976562 331.833007812 237.000976562 307.5 c 0
 237.000976562 283.166992188 237.66796875 262.333984375 239.000976562 245.000976562 c 0
 242.333984375 206.333984375 249.166992188 169.333984375 259.5 134.000976562 c 0
 269.833007812 98.66796875 281.833007812 68.0009765625 295.5 42.0009765625 c 0
 309.166992188 16.0009765625 324 -4.83203125 340 -20.4990234375 c 0
 356 -36.166015625 371.333007812 -43.9990234375 386 -43.9990234375 c 0
 396.666992188 -43.9990234375 405.666992188 -46.83203125 413 -52.4990234375 c 0
 420.333007812 -58.166015625 424 -69.666015625 424 -86.9990234375 c 0
 424 -97.666015625 419.666992188 -106.333007812 411 -113 c 0
 402.333007812 -119.666992188 394 -123 386 -123 c 0
EndSplineSet
EndChar

StartChar: parenright
Encoding: 41 41 10
Width: 550
GlyphClass: 1
Flags: W
LayerCount: 2
Fore
SplineSet
169 -123 m 0
 161 -123 152.670898438 -119.670898438 144.00390625 -113.00390625 c 0
 135.336914062 -106.336914062 131.00390625 -97.669921875 131.00390625 -87.0029296875 c 0
 131.00390625 -69.669921875 134.670898438 -58.169921875 142.00390625 -52.5029296875 c 0
 149.336914062 -46.8359375 158.336914062 -44.0029296875 169.00390625 -44.0029296875 c 0
 183.670898438 -44.0029296875 199.00390625 -36.169921875 215.00390625 -20.5029296875 c 0
 231.00390625 -4.8359375 245.836914062 15.9970703125 259.50390625 41.9970703125 c 0
 273.170898438 67.9970703125 285.170898438 98.6640625 295.50390625 133.997070312 c 0
 305.836914062 169.330078125 312.669921875 206.330078125 316.002929688 244.997070312 c 0
 317.3359375 262.330078125 318.002929688 283.163085938 318.002929688 307.49609375 c 0
 318.002929688 331.829101562 317.3359375 356.662109375 316.002929688 381.995117188 c 0
 314.669921875 407.328125 312.502929688 431.995117188 309.502929688 455.995117188 c 0
 306.502929688 479.995117188 303.002929688 500.328125 299.002929688 516.995117188 c 0
 294.3359375 538.328125 288.002929688 558.995117188 280.002929688 578.995117188 c 0
 272.002929688 598.995117188 262.669921875 616.828125 252.002929688 632.495117188 c 0
 241.3359375 648.162109375 229.168945312 660.829101562 215.501953125 670.49609375 c 0
 201.834960938 680.163085938 186.66796875 684.99609375 170.000976562 684.99609375 c 0
 160.000976562 684.99609375 150.833984375 687.663085938 142.500976562 692.99609375 c 0
 134.16796875 698.329101562 130.000976562 708.329101562 130.000976562 722.99609375 c 0
 130.000976562 739.663085938 134.500976562 750.163085938 143.500976562 754.49609375 c 0
 152.500976562 758.829101562 160.66796875 760.99609375 168.000976562 760.99609375 c 0
 190.000976562 760.99609375 211.333984375 755.663085938 232.000976562 744.99609375 c 0
 252.66796875 734.329101562 271.834960938 720.829101562 289.501953125 704.49609375 c 0
 307.168945312 688.163085938 322.668945312 669.663085938 336.001953125 648.99609375 c 0
 349.334960938 628.329101562 360.001953125 607.99609375 368.001953125 587.99609375 c 0
 378.001953125 562.663085938 386.001953125 533.330078125 392.001953125 499.997070312 c 0
 398.001953125 466.6640625 402.501953125 433.331054688 405.501953125 399.998046875 c 0
 408.501953125 366.665039062 410.001953125 334.83203125 410.001953125 304.499023438 c 0
 410.001953125 274.166015625 409.001953125 249.333007812 407.001953125 230 c 0
 402.334960938 178.666992188 393.16796875 131.166992188 379.500976562 87.5 c 0
 365.833984375 43.8330078125 348.666992188 6.5 328 -24.5 c 0
 307.333007812 -55.5 283.5 -79.6669921875 256.5 -97 c 0
 229.5 -114.333007812 200.333007812 -123 169 -123 c 0
EndSplineSet
EndChar

StartChar: asterisk
Encoding: 42 42 11
Width: 550
GlyphClass: 1
Flags: W
LayerCount: 2
Fore
SplineSet
141 177 m 0
 145.666992188 184.333007812 153.501953125 197.171875 164.501953125 215.504882812 c 0
 175.501953125 233.837890625 188.334960938 255.004882812 203.001953125 279.004882812 c 1
 180.334960938 277.671875 159.001953125 276.504882812 139.001953125 275.504882812 c 0
 119.001953125 274.504882812 102.668945312 274.004882812 90.001953125 274.004882812 c 0
 73.3349609375 274.004882812 61.16796875 279.337890625 53.5009765625 290.004882812 c 0
 45.833984375 300.671875 42.0009765625 311.004882812 42.0009765625 321.004882812 c 0
 41.333984375 331.004882812 44.333984375 342.171875 51.0009765625 354.504882812 c 0
 57.66796875 366.837890625 69.66796875 372.337890625 87.0009765625 371.004882812 c 0
 105.66796875 369.671875 125.834960938 368.171875 147.501953125 366.504882812 c 0
 169.168945312 364.837890625 191.3359375 363.337890625 214.002929688 362.004882812 c 1
 201.3359375 382.671875 189.3359375 402.171875 178.002929688 420.504882812 c 0
 166.669921875 438.837890625 156.669921875 454.004882812 148.002929688 466.004882812 c 0
 138.669921875 480.004882812 135.169921875 494.004882812 137.502929688 508.004882812 c 0
 139.8359375 522.004882812 145.3359375 531.337890625 154.002929688 536.004882812 c 0
 162.669921875 541.337890625 174.336914062 542.670898438 189.00390625 540.00390625 c 0
 203.670898438 537.336914062 214.670898438 528.00390625 222.00390625 512.00390625 c 0
 229.336914062 496.00390625 237.836914062 478.836914062 247.50390625 460.50390625 c 0
 257.170898438 442.170898438 267.00390625 423.670898438 277.00390625 405.00390625 c 1
 287.670898438 423.670898438 298.00390625 442.170898438 308.00390625 460.50390625 c 0
 318.00390625 478.836914062 326.336914062 495.669921875 333.00390625 511.002929688 c 0
 340.336914062 527.002929688 350.669921875 536.169921875 364.002929688 538.502929688 c 0
 377.3359375 540.8359375 388.3359375 539.3359375 397.002929688 534.002929688 c 0
 405.669921875 529.3359375 412.169921875 520.502929688 416.502929688 507.502929688 c 0
 420.8359375 494.502929688 418.3359375 481.002929688 409.002929688 467.002929688 c 0
 400.3359375 454.3359375 390.3359375 438.668945312 379.002929688 420.001953125 c 0
 367.669921875 401.334960938 355.669921875 380.66796875 343.002929688 358.000976562 c 1
 367.669921875 358.000976562 390.169921875 358.833984375 410.502929688 360.500976562 c 0
 430.8359375 362.16796875 447.002929688 364.66796875 459.002929688 368.000976562 c 0
 474.3359375 372.66796875 486.668945312 369.834960938 496.001953125 359.501953125 c 0
 505.334960938 349.168945312 510.334960938 339.668945312 511.001953125 331.001953125 c 0
 511.001953125 321.001953125 508.168945312 309.668945312 502.501953125 297.001953125 c 0
 496.834960938 284.334960938 485.66796875 279.334960938 469.000976562 282.001953125 c 0
 455.66796875 284.668945312 438.000976562 286.168945312 416.000976562 286.501953125 c 0
 394.000976562 286.834960938 370.000976562 286.66796875 344.000976562 286.000976562 c 1
 358.66796875 261.333984375 371.66796875 239.333984375 383.000976562 220.000976562 c 0
 394.333984375 200.66796875 402.333984375 186.66796875 407.000976562 178.000976562 c 0
 414.333984375 164.000976562 417.000976562 151.333984375 415.000976562 140.000976562 c 0
 413.000976562 128.66796875 408.333984375 120.66796875 401.000976562 116.000976562 c 0
 392.333984375 111.333984375 379.500976562 109.666992188 362.500976562 111 c 0
 345.500976562 112.333007812 334.66796875 120.666015625 330.000976562 135.999023438 c 0
 325.333984375 149.999023438 318.666992188 166.33203125 310 184.999023438 c 0
 301.333007812 203.666015625 291.666015625 223.333007812 280.999023438 244 c 1
 268.999023438 220.666992188 258.166015625 199 248.499023438 179 c 0
 238.83203125 159 231.665039062 142.666992188 226.998046875 130 c 0
 221.665039062 114.666992188 210.83203125 107 194.499023438 107 c 0
 178.166015625 107 165.666015625 109.333007812 156.999023438 114 c 0
 149.666015625 118.666992188 143.333007812 126.666992188 138 138 c 0
 132.666992188 149.333007812 133.666992188 162.333007812 141 177 c 0
EndSplineSet
EndChar

StartChar: plus
Encoding: 43 43 12
Width: 550
GlyphClass: 1
Flags: W
LayerCount: 2
Fore
SplineSet
98 316 m 0
 118.666992188 315.333007812 140.833007812 314.834960938 164.5 314.501953125 c 0
 188.166992188 314.168945312 212.333984375 313.668945312 237.000976562 313.001953125 c 1
 237.000976562 343.668945312 236.833984375 372.501953125 236.500976562 399.501953125 c 0
 236.16796875 426.501953125 235.66796875 447.668945312 235.000976562 463.001953125 c 0
 234.333984375 479.668945312 238.666992188 490.501953125 248 495.501953125 c 0
 257.333007812 500.501953125 267 503.001953125 277 503.001953125 c 0
 287 503.668945312 296.833007812 501.501953125 306.5 496.501953125 c 0
 316.166992188 491.501953125 320.666992188 480.668945312 320 464.001953125 c 0
 319.333007812 443.334960938 318.666015625 419.834960938 317.999023438 393.501953125 c 0
 317.33203125 367.168945312 316.999023438 340.3359375 316.999023438 313.002929688 c 1
 461.999023438 313.002929688 l 2
 477.999023438 313.002929688 488.499023438 309.002929688 493.499023438 301.002929688 c 0
 498.499023438 293.002929688 501.33203125 284.669921875 501.999023438 276.002929688 c 0
 501.999023438 266.002929688 499.499023438 256.002929688 494.499023438 246.002929688 c 0
 489.499023438 236.002929688 478.666015625 231.669921875 461.999023438 233.002929688 c 0
 452.666015625 233.669921875 434.333007812 234.169921875 407 234.502929688 c 0
 379.666992188 234.8359375 349.333984375 234.668945312 316.000976562 234.001953125 c 1
 316.000976562 197.334960938 316.16796875 164.16796875 316.500976562 134.500976562 c 0
 316.833984375 104.833984375 317.000976562 84.6669921875 317.000976562 74 c 0
 317.000976562 58 313.000976562 47.5 305.000976562 42.5 c 0
 297.000976562 37.5 288.66796875 34.6669921875 280.000976562 34 c 0
 270.000976562 34 260.333984375 36.5 251.000976562 41.5 c 0
 241.66796875 46.5 237.000976562 57.3330078125 237.000976562 74 c 2
 237.000976562 233 l 1
 209.000976562 232.333007812 182.66796875 231.833007812 158.000976562 231.5 c 0
 133.333984375 231.166992188 113.666992188 231 99 231 c 0
 82.3330078125 231 70.5 235.5 63.5 244.5 c 0
 56.5 253.5 53 263 53 273 c 0
 52.3330078125 283 55.5 292.833007812 62.5 302.5 c 0
 69.5 312.166992188 81.3330078125 316.666992188 98 316 c 0
EndSplineSet
EndChar

StartChar: comma
Encoding: 44 44 13
Width: 550
GlyphClass: 1
Flags: W
LayerCount: 2
Fore
SplineSet
349 90 m 0
 346.333007812 78 341.49609375 59.166015625 334.49609375 33.4990234375 c 0
 327.49609375 7.83203125 319.49609375 -18.5009765625 310.49609375 -45.5009765625 c 0
 301.49609375 -72.5009765625 292.49609375 -97.833984375 283.49609375 -121.500976562 c 0
 274.49609375 -145.16796875 266.99609375 -161.000976562 260.99609375 -169.000976562 c 0
 250.329101562 -183.000976562 237.329101562 -192.500976562 221.99609375 -197.500976562 c 0
 206.663085938 -202.500976562 194.330078125 -203.333984375 184.997070312 -200.000976562 c 0
 175.6640625 -197.333984375 167.831054688 -190.500976562 161.498046875 -179.500976562 c 0
 155.165039062 -168.500976562 156.33203125 -156.333984375 164.999023438 -143.000976562 c 0
 171.666015625 -133.000976562 180.166015625 -116.000976562 190.499023438 -92.0009765625 c 0
 200.83203125 -68.0009765625 210.83203125 -42.66796875 220.499023438 -16.0009765625 c 0
 230.166015625 10.666015625 238.833007812 36.166015625 246.5 60.4990234375 c 0
 254.166992188 84.83203125 259 102.33203125 261 112.999023438 c 0
 263.666992188 126.999023438 271.333984375 135.499023438 284.000976562 138.499023438 c 0
 296.66796875 141.499023438 308.000976562 141.666015625 318.000976562 138.999023438 c 0
 326.66796875 136.33203125 334.66796875 130.83203125 342.000976562 122.499023438 c 0
 349.333984375 114.166015625 351.666992188 103.333007812 349 90 c 0
EndSplineSet
EndChar

StartChar: hyphen
Encoding: 45 45 14
Width: 550
GlyphClass: 1
Flags: W
LayerCount: 2
Fore
SplineSet
169 308 m 0
 214.333007812 308 256.501953125 308.5 295.501953125 309.5 c 0
 334.501953125 310.5 362.334960938 311 379.001953125 311 c 0
 395.001953125 311 405.501953125 307.333007812 410.501953125 300 c 0
 415.501953125 292.666992188 418.334960938 284.666992188 419.001953125 276 c 0
 419.001953125 266 416.501953125 256.666992188 411.501953125 248 c 0
 406.501953125 239.333007812 395.668945312 235 379.001953125 235 c 0
 371.001953125 235 358.501953125 234.5 341.501953125 233.5 c 0
 324.501953125 232.5 305.668945312 231.666992188 285.001953125 231 c 0
 264.334960938 230.333007812 243.66796875 229.5 223.000976562 228.5 c 0
 202.333984375 227.5 184.666992188 227 170 227 c 0
 153.333007812 227 142.5 231.166992188 137.5 239.5 c 0
 132.5 247.833007812 130 257 130 267 c 0
 129.333007812 277 131.5 286.333007812 136.5 295 c 0
 141.5 303.666992188 152.333007812 308 169 308 c 0
EndSplineSet
EndChar

StartChar: period
Encoding: 46 46 15
Width: 550
GlyphClass: 1
Flags: W
LayerCount: 2
Fore
SplineSet
278 -13 m 0
 254 -15.6669921875 235.000976562 -9 221.000976562 7 c 0
 207.000976562 23 200.000976562 40.6669921875 200.000976562 60 c 0
 200.000976562 79.3330078125 208.16796875 95.8330078125 224.500976562 109.5 c 0
 240.833984375 123.166992188 258.666992188 130.333984375 278 131.000976562 c 0
 300.666992188 131.66796875 318.666992188 125.000976562 332 111.000976562 c 0
 345.333007812 97.0009765625 352 80.333984375 352 61.0009765625 c 0
 352 41.66796875 345.333007812 25.16796875 332 11.5009765625 c 0
 318.666992188 -2.166015625 300.666992188 -10.3330078125 278 -13 c 0
EndSplineSet
EndChar

StartChar: slash
Encoding: 47 47 16
Width: 550
GlyphClass: 1
Flags: W
LayerCount: 2
Fore
SplineSet
498 632 m 0
 486 609.333007812 467.497070312 576.663085938 442.497070312 533.99609375 c 0
 417.497070312 491.329101562 390.997070312 446.829101562 362.997070312 400.49609375 c 0
 334.997070312 354.163085938 308.1640625 309.330078125 282.497070312 265.997070312 c 0
 256.830078125 222.6640625 237.663085938 189.331054688 224.99609375 165.998046875 c 0
 216.99609375 151.331054688 208.663085938 134.998046875 199.99609375 116.998046875 c 0
 191.329101562 98.998046875 182.829101562 81.3310546875 174.49609375 63.998046875 c 0
 166.163085938 46.6650390625 158.330078125 30.83203125 150.997070312 16.4990234375 c 0
 143.6640625 2.166015625 137.997070312 -8.6669921875 133.997070312 -16 c 0
 123.997070312 -33.3330078125 111.330078125 -45.3330078125 95.9970703125 -52 c 0
 80.6640625 -58.6669921875 67.3310546875 -58.6669921875 55.998046875 -52 c 0
 47.3310546875 -47.3330078125 41.8310546875 -35.8330078125 39.498046875 -17.5 c 0
 37.1650390625 0.8330078125 40.6650390625 17.3330078125 49.998046875 32 c 0
 59.998046875 48 73.6650390625 70.5 90.998046875 99.5 c 0
 108.331054688 128.5 127.498046875 160.833007812 148.498046875 196.5 c 0
 169.498046875 232.166992188 191.831054688 270.333984375 215.498046875 311.000976562 c 0
 239.165039062 351.66796875 261.998046875 391.66796875 283.998046875 431.000976562 c 0
 312.665039062 481.000976562 338.33203125 528.000976562 360.999023438 572.000976562 c 0
 383.666015625 616.000976562 400.999023438 650.000976562 412.999023438 674.000976562 c 0
 420.999023438 689.333984375 431.999023438 698.666992188 445.999023438 702 c 0
 459.999023438 705.333007812 472.33203125 704.333007812 482.999023438 699 c 0
 493.666015625 693.666992188 500.833007812 685 504.5 673 c 0
 508.166992188 661 506 647.333007812 498 632 c 0
EndSplineSet
EndChar

StartChar: zero
Encoding: 48 48 17
Width: 550
GlyphClass: 1
Flags: W
LayerCount: 2
Fore
SplineSet
261 -23 m 0
 203 -22.3330078125 155.163085938 -2.1689453125 117.49609375 37.498046875 c 0
 79.8291015625 77.1650390625 61.3291015625 131.33203125 61.99609375 199.999023438 c 0
 61.99609375 219.999023438 61.8291015625 244.83203125 61.49609375 274.499023438 c 0
 61.1630859375 304.166015625 61.6630859375 334.999023438 62.99609375 366.999023438 c 0
 64.3291015625 398.999023438 67.162109375 431.166015625 71.4951171875 463.499023438 c 0
 75.828125 495.83203125 82.9951171875 524.665039062 92.9951171875 549.998046875 c 0
 108.328125 589.998046875 134.161132812 620.165039062 170.494140625 640.498046875 c 0
 206.827148438 660.831054688 249.994140625 670.998046875 299.994140625 670.998046875 c 0
 324.661132812 670.998046875 348.328125 666.665039062 370.995117188 657.998046875 c 0
 393.662109375 649.331054688 413.829101562 636.498046875 431.49609375 619.498046875 c 0
 449.163085938 602.498046875 463.830078125 580.831054688 475.497070312 554.498046875 c 0
 487.1640625 528.165039062 494.331054688 497.33203125 496.998046875 461.999023438 c 0
 498.998046875 439.999023438 500.331054688 414.166015625 500.998046875 384.499023438 c 0
 501.665039062 354.83203125 501.665039062 324.999023438 500.998046875 294.999023438 c 0
 500.331054688 264.999023438 498.831054688 236.499023438 496.498046875 209.499023438 c 0
 494.165039062 182.499023438 490.665039062 160.666015625 485.998046875 143.999023438 c 0
 475.998046875 107.33203125 464.331054688 77.83203125 450.998046875 55.4990234375 c 0
 437.665039062 33.166015625 421.83203125 16.3330078125 403.499023438 5 c 0
 385.166015625 -6.3330078125 364.333007812 -13.8330078125 341 -17.5 c 0
 317.666992188 -21.1669921875 291 -23 261 -23 c 0
152.99609375 214.997070312 m 0
 152.99609375 210.997070312 153.1640625 207.163085938 153.497070312 203.49609375 c 0
 153.830078125 199.829101562 153.997070312 196.329101562 153.997070312 192.99609375 c 1
 195.997070312 250.329101562 235.830078125 308.329101562 273.497070312 366.99609375 c 0
 311.1640625 425.663085938 346.6640625 484.99609375 379.997070312 544.99609375 c 1
 369.330078125 560.99609375 355.663085938 573.329101562 338.99609375 581.99609375 c 0
 322.329101562 590.663085938 304.329101562 594.99609375 284.99609375 594.99609375 c 0
 250.329101562 594.99609375 223.329101562 585.163085938 203.99609375 565.49609375 c 0
 184.663085938 545.829101562 169.99609375 514.99609375 159.99609375 472.99609375 c 0
 155.99609375 456.329101562 153.163085938 436.829101562 151.49609375 414.49609375 c 0
 149.829101562 392.163085938 148.99609375 369.330078125 148.99609375 345.997070312 c 0
 148.99609375 322.6640625 149.49609375 299.497070312 150.49609375 276.497070312 c 0
 151.49609375 253.497070312 152.329101562 232.997070312 152.99609375 214.997070312 c 0
260.997070312 55.99609375 m 0
 292.997070312 55.99609375 320.666015625 62.4951171875 343.999023438 75.4951171875 c 0
 367.33203125 88.4951171875 385.33203125 115.662109375 397.999023438 156.995117188 c 0
 399.33203125 161.662109375 401.165039062 174.829101562 403.498046875 196.49609375 c 0
 405.831054688 218.163085938 407.831054688 243.49609375 409.498046875 272.49609375 c 0
 411.165039062 301.49609375 412.165039062 332.663085938 412.498046875 365.99609375 c 0
 412.831054688 399.329101562 411.6640625 430.329101562 408.997070312 458.99609375 c 1
 375.6640625 390.99609375 339.1640625 327.99609375 299.497070312 269.99609375 c 0
 259.830078125 211.99609375 217.330078125 159.99609375 171.997070312 113.99609375 c 1
 179.997070312 95.99609375 191.1640625 81.8291015625 205.497070312 71.49609375 c 0
 219.830078125 61.1630859375 238.330078125 55.99609375 260.997070312 55.99609375 c 0
EndSplineSet
EndChar

StartChar: one
Encoding: 49 49 18
Width: 550
GlyphClass: 1
Flags: W
LayerCount: 2
Fore
SplineSet
94 79 m 0
 114.666992188 79 137.50390625 78.83984375 162.50390625 78.5068359375 c 0
 187.50390625 78.173828125 212.670898438 77.673828125 238.00390625 77.0068359375 c 1
 238.00390625 105.006835938 l 2
 238.00390625 115.006835938 237.670898438 126.006835938 237.00390625 138.006835938 c 0
 236.336914062 159.33984375 236.169921875 185.506835938 236.502929688 216.506835938 c 0
 236.8359375 247.506835938 237.668945312 281.006835938 239.001953125 317.006835938 c 0
 240.334960938 353.006835938 241.834960938 391.006835938 243.501953125 431.006835938 c 0
 245.168945312 471.006835938 246.668945312 510.673828125 248.001953125 550.006835938 c 1
 233.334960938 538.006835938 216.501953125 524.83984375 197.501953125 510.506835938 c 0
 178.501953125 496.173828125 161.668945312 486.006835938 147.001953125 480.006835938 c 0
 134.334960938 475.33984375 121.66796875 478.672851562 109.000976562 490.005859375 c 0
 96.333984375 501.338867188 90.333984375 512.338867188 91.0009765625 523.005859375 c 0
 91.0009765625 532.338867188 93.333984375 541.005859375 98.0009765625 549.005859375 c 0
 102.66796875 557.005859375 110.66796875 565.338867188 122.000976562 574.005859375 c 0
 167.333984375 608.672851562 200.166992188 635.505859375 220.5 654.505859375 c 0
 240.833007812 673.505859375 258.666015625 683.005859375 273.999023438 683.005859375 c 0
 287.999023438 683.005859375 301.83203125 677.172851562 315.499023438 665.505859375 c 0
 329.166015625 653.838867188 335.999023438 644.338867188 335.999023438 637.005859375 c 0
 335.999023438 624.338867188 335.33203125 603.171875 333.999023438 573.504882812 c 0
 332.666015625 543.837890625 331.333007812 512.837890625 330 480.504882812 c 0
 328.666992188 448.171875 327.5 417.671875 326.5 389.004882812 c 0
 325.5 360.337890625 325 341.004882812 325 331.004882812 c 2
 325 286.504882812 l 1
 325 251.004882812 l 2
 325 239.671875 325.166992188 228.171875 325.5 216.504882812 c 0
 325.833007812 204.837890625 326 191.004882812 326 175.004882812 c 0
 326 155.671875 326.166992188 138.171875 326.5 122.504882812 c 0
 326.833007812 106.837890625 327.333007812 90.6708984375 328 74.00390625 c 1
 360 73.3369140625 388 72.669921875 412 72.0029296875 c 0
 436 71.3359375 452.333007812 71.0029296875 461 71.0029296875 c 0
 479.666992188 71.0029296875 492 67.169921875 498 59.5029296875 c 0
 504 51.8359375 507.333007812 43.6689453125 508 35.001953125 c 0
 508.666992188 24.3349609375 505.833984375 14.501953125 499.500976562 5.501953125 c 0
 493.16796875 -3.498046875 479.66796875 -7.998046875 459.000976562 -7.998046875 c 0
 450.333984375 -7.998046875 430.166992188 -7.8310546875 398.5 -7.498046875 c 0
 366.833007812 -7.1650390625 331.833007812 -6.83203125 293.5 -6.4990234375 c 0
 255.166992188 -6.166015625 217.166992188 -5.8330078125 179.5 -5.5 c 0
 141.833007812 -5.1669921875 113 -5 93 -5 c 0
 78.3330078125 -5 68 -0.8330078125 62 7.5 c 0
 56 15.8330078125 53 25 53 35 c 0
 52.3330078125 45.6669921875 55 55.6669921875 61 65 c 0
 67 74.3330078125 78 79 94 79 c 0
EndSplineSet
EndChar

StartChar: two
Encoding: 50 50 19
Width: 550
GlyphClass: 1
Flags: W
LayerCount: 2
Fore
SplineSet
83 570 m 0
 89 581.333007812 98.166015625 593.166992188 110.499023438 605.5 c 0
 122.83203125 617.833007812 137.33203125 629.166015625 153.999023438 639.499023438 c 0
 170.666015625 649.83203125 189.499023438 658.33203125 210.499023438 664.999023438 c 0
 231.499023438 671.666015625 253.33203125 674.999023438 275.999023438 674.999023438 c 0
 341.999023438 674.999023438 392.83203125 659.499023438 428.499023438 628.499023438 c 0
 464.166015625 597.499023438 481.999023438 550.666015625 481.999023438 487.999023438 c 0
 481.999023438 456.666015625 477.666015625 430.333007812 468.999023438 409 c 0
 460.33203125 387.666992188 447.499023438 368.5 430.499023438 351.5 c 0
 413.499023438 334.5 391.83203125 318.333007812 365.499023438 303 c 0
 339.166015625 287.666992188 308.666015625 270.666992188 273.999023438 252 c 0
 231.999023438 229.333007812 201.83203125 201.5 183.499023438 168.5 c 0
 165.166015625 135.5 154.999023438 101 152.999023438 65 c 1
 226.999023438 60.3330078125 285.999023438 59.8330078125 329.999023438 63.5 c 0
 373.999023438 67.1669921875 410.33203125 69.6669921875 438.999023438 71 c 0
 448.33203125 71.6669921875 459.499023438 71.6669921875 472.499023438 71 c 0
 485.499023438 70.3330078125 492.999023438 62.3330078125 494.999023438 47 c 0
 496.33203125 37 494.665039062 24.8330078125 489.998046875 10.5 c 0
 485.331054688 -3.8330078125 476.6640625 -11 463.997070312 -11 c 0
 433.330078125 -11 400.663085938 -11.6669921875 365.99609375 -13 c 0
 331.329101562 -14.3330078125 297.329101562 -15.5 263.99609375 -16.5 c 0
 230.663085938 -17.5 199.330078125 -18 169.997070312 -18 c 0
 140.6640625 -18 116.331054688 -17 96.998046875 -15 c 0
 82.998046875 -13.6669921875 73.1650390625 -5 67.498046875 11 c 0
 61.8310546875 27 58.998046875 49.3330078125 58.998046875 78 c 0
 58.998046875 98 62.3310546875 119 68.998046875 141 c 0
 75.6650390625 163 85.33203125 184.666992188 97.9990234375 206 c 0
 110.666015625 227.333007812 126.166015625 247.333007812 144.499023438 266 c 0
 162.83203125 284.666992188 183.33203125 300.333984375 205.999023438 313.000976562 c 0
 243.33203125 333.66796875 273.83203125 351.334960938 297.499023438 366.001953125 c 0
 321.166015625 380.668945312 339.833007812 394.501953125 353.5 407.501953125 c 0
 367.166992188 420.501953125 376.5 434.501953125 381.5 449.501953125 c 0
 386.5 464.501953125 389 482.668945312 389 504.001953125 c 0
 389 537.334960938 379.166992188 561.001953125 359.5 575.001953125 c 0
 339.833007812 589.001953125 313.333007812 596.001953125 280 596.001953125 c 0
 253.333007812 596.001953125 229.166015625 588.001953125 207.499023438 572.001953125 c 0
 185.83203125 556.001953125 169.665039062 540.001953125 158.998046875 524.001953125 c 0
 147.665039062 507.334960938 137.33203125 498.66796875 127.999023438 498.000976562 c 0
 118.666015625 497.333984375 107.666015625 499.666992188 94.9990234375 505 c 0
 84.9990234375 509.666992188 78.33203125 517.5 74.9990234375 528.5 c 0
 71.666015625 539.5 74.3330078125 553.333007812 83 570 c 0
EndSplineSet
EndChar

StartChar: three
Encoding: 51 51 20
Width: 550
GlyphClass: 1
Flags: W
LayerCount: 2
Fore
SplineSet
501 186 m 0
 501 123.333007812 481.334960938 72.837890625 442.001953125 34.5048828125 c 0
 402.668945312 -3.828125 347.3359375 -22.9951171875 276.002929688 -22.9951171875 c 0
 253.3359375 -22.9951171875 231.502929688 -19.662109375 210.502929688 -12.9951171875 c 0
 189.502929688 -6.328125 170.669921875 2.171875 154.002929688 12.5048828125 c 0
 137.3359375 22.837890625 122.8359375 34.1708984375 110.502929688 46.50390625 c 0
 98.169921875 58.8369140625 89.0029296875 70.669921875 83.0029296875 82.0029296875 c 0
 75.669921875 96.669921875 73.3369140625 110.002929688 76.00390625 122.002929688 c 0
 78.6708984375 134.002929688 85.00390625 142.3359375 95.00390625 147.002929688 c 0
 107.670898438 152.3359375 119.00390625 153.8359375 129.00390625 151.502929688 c 0
 139.00390625 149.169921875 149.00390625 141.336914062 159.00390625 128.00390625 c 0
 170.336914062 112.00390625 186.669921875 96.00390625 208.002929688 80.00390625 c 0
 229.3359375 64.00390625 253.3359375 56.00390625 280.002929688 56.00390625 c 0
 316.669921875 56.00390625 347.169921875 66.6708984375 371.502929688 88.00390625 c 0
 395.8359375 109.336914062 408.002929688 136.669921875 408.002929688 170.002929688 c 0
 408.002929688 208.669921875 394.8359375 239.502929688 368.502929688 262.502929688 c 0
 342.169921875 285.502929688 295.336914062 297.002929688 228.00390625 297.002929688 c 0
 215.336914062 297.002929688 204.336914062 302.169921875 195.00390625 312.502929688 c 0
 185.670898438 322.8359375 181.00390625 334.3359375 181.00390625 347.002929688 c 0
 181.00390625 359.002929688 184.170898438 369.3359375 190.50390625 378.002929688 c 0
 196.836914062 386.669921875 207.00390625 391.002929688 221.00390625 391.002929688 c 0
 271.670898438 391.002929688 312.170898438 401.3359375 342.50390625 422.002929688 c 0
 372.836914062 442.669921875 387.669921875 473.002929688 387.002929688 513.002929688 c 0
 387.669921875 541.669921875 377.502929688 562.669921875 356.502929688 576.002929688 c 0
 335.502929688 589.3359375 306.669921875 596.002929688 270.002929688 596.002929688 c 0
 243.3359375 596.002929688 223.502929688 589.669921875 210.502929688 577.002929688 c 0
 197.502929688 564.3359375 185.669921875 550.3359375 175.002929688 535.002929688 c 0
 164.3359375 520.3359375 154.168945312 512.168945312 144.501953125 510.501953125 c 0
 134.834960938 508.834960938 123.66796875 510.66796875 111.000976562 516.000976562 c 0
 101.000976562 520.66796875 94.66796875 529.000976562 92.0009765625 541.000976562 c 0
 89.333984375 553.000976562 91.6669921875 566.333984375 99 581.000976562 c 0
 110.333007812 603.66796875 129.5 625.000976562 156.5 645.000976562 c 0
 183.5 665.000976562 220 675.000976562 266 675.000976562 c 0
 337.333007812 675.000976562 391 659.833984375 427 629.500976562 c 0
 463 599.16796875 480.666992188 555.000976562 480 497.000976562 c 0
 480.666992188 474.333984375 477.166992188 454.666992188 469.5 438 c 0
 461.833007812 421.333007812 451.833007812 407.5 439.5 396.5 c 0
 427.166992188 385.5 413 376.666992188 397 370 c 0
 381 363.333007812 365 358.333007812 349 355 c 1
 397.666992188 344.333007812 435.166992188 327 461.5 303 c 0
 487.833007812 279 501 240 501 186 c 0
EndSplineSet
EndChar

StartChar: four
Encoding: 52 52 21
Width: 550
GlyphClass: 1
Flags: W
LayerCount: 2
Fore
SplineSet
402 -22 m 0
 390.666992188 -22 379.334960938 -17.333984375 368.001953125 -8.0009765625 c 0
 356.668945312 1.33203125 350.668945312 10.6650390625 350.001953125 19.998046875 c 0
 349.334960938 32.6650390625 349.16796875 55.83203125 349.500976562 89.4990234375 c 0
 349.833984375 123.166015625 350.000976562 162.999023438 350.000976562 208.999023438 c 1
 287.000976562 208.999023438 l 2
 265.000976562 208.999023438 243.66796875 208.666015625 223.000976562 207.999023438 c 0
 202.333984375 207.33203125 182.500976562 205.999023438 163.500976562 203.999023438 c 0
 144.500976562 201.999023438 128.000976562 199.666015625 114.000976562 196.999023438 c 0
 101.333984375 194.33203125 90.6669921875 195.499023438 82 200.499023438 c 0
 73.3330078125 205.499023438 66.666015625 212.499023438 61.9990234375 221.499023438 c 0
 57.33203125 230.499023438 54.6650390625 240.499023438 53.998046875 251.499023438 c 0
 53.3310546875 262.499023438 54.6640625 272.999023438 57.9970703125 282.999023438 c 0
 63.330078125 297.666015625 75.330078125 318.999023438 93.9970703125 346.999023438 c 0
 112.6640625 374.999023438 134.1640625 405.666015625 158.497070312 438.999023438 c 0
 182.830078125 472.33203125 208.330078125 506.999023438 234.997070312 542.999023438 c 0
 261.6640625 578.999023438 285.331054688 611.999023438 305.998046875 641.999023438 c 0
 314.665039062 653.999023438 324.165039062 662.999023438 334.498046875 668.999023438 c 0
 344.831054688 674.999023438 354.331054688 677.999023438 362.998046875 677.999023438 c 0
 373.665039062 678.666015625 384.498046875 676.499023438 395.498046875 671.499023438 c 0
 406.498046875 666.499023438 413.331054688 656.666015625 415.998046875 641.999023438 c 0
 418.665039062 624.666015625 420.998046875 602.333007812 422.998046875 575 c 0
 424.998046875 547.666992188 426.498046875 518.166992188 427.498046875 486.5 c 0
 428.498046875 454.833007812 429.331054688 421.333007812 429.998046875 386 c 0
 430.665039062 350.666992188 431.33203125 316.333984375 431.999023438 283.000976562 c 1
 439.999023438 282.333984375 447.166015625 282.000976562 453.499023438 282.000976562 c 2
 467.999023438 282.000976562 l 2
 483.999023438 282.000976562 494.499023438 278.333984375 499.499023438 271.000976562 c 0
 504.499023438 263.66796875 507.33203125 255.66796875 507.999023438 247.000976562 c 0
 507.999023438 237.000976562 505.499023438 227.66796875 500.499023438 219.000976562 c 0
 495.499023438 210.333984375 484.666015625 206.000976562 467.999023438 206.000976562 c 2
 453.999023438 206.000976562 l 2
 447.999023438 206.000976562 440.999023438 206.333984375 432.999023438 207.000976562 c 1
 433.666015625 169.000976562 434.333007812 135.66796875 435 107.000976562 c 0
 435.666992188 78.333984375 437 59.6669921875 439 51 c 0
 443 31 441.333007812 13.8330078125 434 -0.5 c 0
 426.666992188 -14.8330078125 416 -22 402 -22 c 0
343.000976562 562.999023438 m 1
 312.333984375 522.999023438 279.000976562 477.499023438 243.000976562 426.499023438 c 0
 207.000976562 375.499023438 177.66796875 326.999023438 155.000976562 280.999023438 c 1
 184.333984375 282.999023438 216.500976562 284.166015625 251.500976562 284.499023438 c 0
 286.500976562 284.83203125 319.333984375 284.665039062 350.000976562 283.998046875 c 1
 350.000976562 328.665039062 349.500976562 375.33203125 348.500976562 423.999023438 c 0
 347.500976562 472.666015625 345.66796875 518.999023438 343.000976562 562.999023438 c 1
EndSplineSet
EndChar

StartChar: five
Encoding: 53 53 22
Width: 550
GlyphClass: 1
Flags: W
LayerCount: 2
Fore
SplineSet
69 81 m 0
 60.3330078125 97.6669921875 57.6611328125 111.502929688 60.994140625 122.502929688 c 0
 64.3271484375 133.502929688 70.994140625 141.3359375 80.994140625 146.002929688 c 0
 93.6611328125 151.3359375 104.661132812 153.668945312 113.994140625 153.001953125 c 0
 123.327148438 152.334960938 133.66015625 143.66796875 144.993164062 127.000976562 c 0
 155.66015625 111.000976562 169.993164062 96.16796875 187.993164062 82.5009765625 c 0
 205.993164062 68.833984375 229.66015625 62.0009765625 258.993164062 62.0009765625 c 0
 305.66015625 62.0009765625 342.827148438 80.5009765625 370.494140625 117.500976562 c 0
 398.161132812 154.500976562 411.994140625 204.000976562 411.994140625 266.000976562 c 0
 411.994140625 302.000976562 403.661132812 332.16796875 386.994140625 356.500976562 c 0
 370.327148438 380.833984375 343.66015625 393.000976562 306.993164062 393.000976562 c 0
 268.326171875 393.000976562 239.826171875 386.16796875 221.493164062 372.500976562 c 0
 203.16015625 358.833984375 186.327148438 344.666992188 170.994140625 330 c 0
 164.327148438 323.333007812 154.66015625 318.166015625 141.993164062 314.499023438 c 0
 129.326171875 310.83203125 116.326171875 311.665039062 102.993164062 316.998046875 c 0
 89.66015625 322.998046875 80.8271484375 336.998046875 76.494140625 358.998046875 c 0
 72.1611328125 380.998046875 69.994140625 405.498046875 69.994140625 432.498046875 c 0
 69.994140625 459.498046875 71.1611328125 486.498046875 73.494140625 513.498046875 c 0
 75.8271484375 540.498046875 76.994140625 561.998046875 76.994140625 577.998046875 c 1
 71.6611328125 585.998046875 68.494140625 595.165039062 67.494140625 605.498046875 c 0
 66.494140625 615.831054688 67.1611328125 625.331054688 69.494140625 633.998046875 c 0
 71.8271484375 642.665039062 75.994140625 650.165039062 81.994140625 656.498046875 c 0
 87.994140625 662.831054688 95.6611328125 665.998046875 104.994140625 665.998046875 c 0
 124.994140625 665.998046875 149.161132812 665.831054688 177.494140625 665.498046875 c 0
 205.827148438 665.165039062 235.994140625 664.665039062 267.994140625 663.998046875 c 0
 299.994140625 663.331054688 332.994140625 662.831054688 366.994140625 662.498046875 c 0
 400.994140625 662.165039062 433.327148438 661.998046875 463.994140625 661.998046875 c 0
 476.661132812 661.998046875 485.328125 654.831054688 489.995117188 640.498046875 c 0
 494.662109375 626.165039062 496.329101562 613.998046875 494.99609375 603.998046875 c 0
 492.99609375 588.665039062 485.49609375 580.665039062 472.49609375 579.998046875 c 0
 459.49609375 579.331054688 448.329101562 579.331054688 438.99609375 579.998046875 c 0
 409.663085938 581.331054688 374.330078125 583.831054688 332.997070312 587.498046875 c 0
 291.6640625 591.165039062 234.331054688 590.665039062 160.998046875 585.998046875 c 1
 160.998046875 575.331054688 160.665039062 562.331054688 159.998046875 546.998046875 c 0
 159.331054688 531.665039062 158.6640625 515.83203125 157.997070312 499.499023438 c 0
 157.330078125 483.166015625 156.997070312 467.166015625 156.997070312 451.499023438 c 0
 156.997070312 435.83203125 157.330078125 421.999023438 157.997070312 409.999023438 c 1
 173.997070312 427.33203125 196.6640625 442.665039062 225.997070312 455.998046875 c 0
 255.330078125 469.331054688 290.330078125 475.998046875 330.997070312 475.998046875 c 0
 358.997070312 475.998046875 383.830078125 470.831054688 405.497070312 460.498046875 c 0
 427.1640625 450.165039062 445.331054688 435.998046875 459.998046875 417.998046875 c 0
 474.665039062 399.998046875 485.83203125 378.831054688 493.499023438 354.498046875 c 0
 501.166015625 330.165039062 504.999023438 304.33203125 504.999023438 276.999023438 c 0
 504.999023438 183.666015625 482.83203125 111.333007812 438.499023438 60 c 0
 394.166015625 8.6669921875 337.333007812 -17 268 -17 c 0
 210.666992188 -17 166.166992188 -6.3330078125 134.5 15 c 0
 102.833007812 36.3330078125 81 58.3330078125 69 81 c 0
EndSplineSet
EndChar

StartChar: six
Encoding: 54 54 23
Width: 550
GlyphClass: 1
Flags: W
LayerCount: 2
Fore
SplineSet
505 230 m 0
 505 194.666992188 499.326171875 161.669921875 487.993164062 131.002929688 c 0
 476.66015625 100.3359375 460.993164062 73.8359375 440.993164062 51.5029296875 c 0
 420.993164062 29.169921875 397.16015625 11.5029296875 369.493164062 -1.4970703125 c 0
 341.826171875 -14.4970703125 312.326171875 -20.9970703125 280.993164062 -20.9970703125 c 0
 242.326171875 -20.9970703125 208.659179688 -13.4970703125 179.9921875 1.5029296875 c 0
 151.325195312 16.5029296875 127.825195312 37.669921875 109.4921875 65.0029296875 c 0
 91.1591796875 92.3359375 77.4921875 125.502929688 68.4921875 164.502929688 c 0
 59.4921875 203.502929688 55.3251953125 247.002929688 55.9921875 295.002929688 c 0
 56.6591796875 363.669921875 64.826171875 422.169921875 80.4931640625 470.502929688 c 0
 96.16015625 518.8359375 117.493164062 558.3359375 144.493164062 589.002929688 c 0
 171.493164062 619.669921875 203.826171875 643.002929688 241.493164062 659.002929688 c 0
 279.16015625 675.002929688 320.327148438 685.002929688 364.994140625 689.002929688 c 0
 377.661132812 689.669921875 389.828125 687.669921875 401.495117188 683.002929688 c 0
 413.162109375 678.3359375 419.662109375 669.668945312 420.995117188 657.001953125 c 0
 421.662109375 649.001953125 417.829101562 640.501953125 409.49609375 631.501953125 c 0
 401.163085938 622.501953125 392.330078125 616.668945312 382.997070312 614.001953125 c 0
 370.330078125 610.001953125 356.830078125 606.834960938 342.497070312 604.501953125 c 0
 328.1640625 602.168945312 313.331054688 598.168945312 297.998046875 592.501953125 c 0
 282.665039062 586.834960938 266.83203125 578.66796875 250.499023438 568.000976562 c 0
 234.166015625 557.333984375 217.333007812 542.000976562 200 522.000976562 c 0
 185.333007812 505.333984375 172.333007812 482.833984375 161 454.500976562 c 0
 149.666992188 426.16796875 142.666992188 401.66796875 140 381.000976562 c 1
 160 404.333984375 185.666992188 421.666992188 217 433 c 0
 248.333007812 444.333007812 282.333007812 450 319 450 c 0
 375 450 420 433 454 399 c 0
 488 365 505 308.666992188 505 230 c 0
294.993164062 367.002929688 m 0
 262.326171875 367.002929688 232.327148438 358.502929688 204.994140625 341.502929688 c 0
 177.661132812 324.502929688 155.994140625 304.3359375 139.994140625 281.002929688 c 1
 139.994140625 268.3359375 140.161132812 255.8359375 140.494140625 243.502929688 c 0
 140.827148438 231.169921875 141.327148438 221.669921875 141.994140625 215.002929688 c 0
 143.327148438 198.3359375 147.327148438 180.668945312 153.994140625 162.001953125 c 0
 160.661132812 143.334960938 169.661132812 126.334960938 180.994140625 111.001953125 c 0
 192.327148438 95.6689453125 206.494140625 82.8359375 223.494140625 72.5029296875 c 0
 240.494140625 62.169921875 259.994140625 57.3369140625 281.994140625 58.00390625 c 0
 299.327148438 58.00390625 316.16015625 62.8369140625 332.493164062 72.50390625 c 0
 348.826171875 82.1708984375 362.993164062 94.50390625 374.993164062 109.50390625 c 0
 386.993164062 124.50390625 396.493164062 141.670898438 403.493164062 161.00390625 c 0
 410.493164062 180.336914062 413.993164062 199.669921875 413.993164062 219.002929688 c 0
 413.993164062 279.002929688 403.326171875 318.669921875 381.993164062 338.002929688 c 0
 360.66015625 357.3359375 331.66015625 367.002929688 294.993164062 367.002929688 c 0
EndSplineSet
EndChar

StartChar: seven
Encoding: 55 55 24
Width: 550
GlyphClass: 1
Flags: W
LayerCount: 2
Fore
SplineSet
100 658 m 0
 125.333007812 662.666992188 157.165039062 665.5 195.498046875 666.5 c 0
 233.831054688 667.5 271.498046875 667.5 308.498046875 666.5 c 0
 345.498046875 665.5 378.665039062 664.333007812 407.998046875 663 c 0
 437.331054688 661.666992188 455.331054688 661 461.998046875 661 c 0
 467.998046875 661 474.498046875 659.5 481.498046875 656.5 c 0
 488.498046875 653.5 494.331054688 648.833007812 498.998046875 642.5 c 0
 503.665039062 636.166992188 506.498046875 628.166992188 507.498046875 618.5 c 0
 508.498046875 608.833007812 505.665039062 597.333007812 498.998046875 584 c 0
 488.331054688 560.666992188 472.498046875 532.5 451.498046875 499.5 c 0
 430.498046875 466.5 406.498046875 427.5 379.498046875 382.5 c 0
 352.498046875 337.5 322.665039062 285.333007812 289.998046875 226 c 0
 257.331054688 166.666992188 223.998046875 99.333984375 189.998046875 24.0009765625 c 0
 182.665039062 7.333984375 172.83203125 -4.9990234375 160.499023438 -12.9990234375 c 0
 148.166015625 -20.9990234375 136.333007812 -23.666015625 125 -20.9990234375 c 0
 112.333007812 -18.33203125 103.166015625 -10.83203125 97.4990234375 1.5009765625 c 0
 91.83203125 13.833984375 92.33203125 27.0009765625 98.9990234375 41.0009765625 c 0
 134.999023438 113.000976562 169.33203125 177.16796875 201.999023438 233.500976562 c 0
 234.666015625 289.833984375 264.166015625 339.666992188 290.499023438 383 c 0
 316.83203125 426.333007812 339.499023438 464 358.499023438 496 c 0
 377.499023438 528 390.999023438 556.333007812 398.999023438 581 c 1
 371.666015625 581.666992188 342.666015625 582 311.999023438 582 c 0
 281.33203125 582 252.499023438 581.666992188 225.499023438 581 c 0
 198.499023438 580.333007812 174.33203125 579.333007812 152.999023438 578 c 0
 131.666015625 576.666992188 115.999023438 574.666992188 105.999023438 572 c 0
 90.666015625 568 79.3330078125 572 72 584 c 0
 64.6669921875 596 60.6669921875 607 60 617 c 0
 60 627 62.5 635.666992188 67.5 643 c 0
 72.5 650.333007812 83.3330078125 655.333007812 100 658 c 0
EndSplineSet
EndChar

StartChar: eight
Encoding: 56 56 25
Width: 550
GlyphClass: 1
Flags: W
LayerCount: 2
Fore
SplineSet
506 191 m 0
 506 167 501.668945312 142.169921875 493.001953125 116.502929688 c 0
 484.334960938 90.8359375 470.501953125 67.5029296875 451.501953125 46.5029296875 c 0
 432.501953125 25.5029296875 407.334960938 8.169921875 376.001953125 -5.4970703125 c 0
 344.668945312 -19.1640625 307.001953125 -25.9970703125 263.001953125 -25.9970703125 c 0
 222.334960938 -25.9970703125 188.001953125 -19.4970703125 160.001953125 -6.4970703125 c 0
 132.001953125 6.5029296875 109.668945312 23.0029296875 93.001953125 43.0029296875 c 0
 76.3349609375 63.0029296875 64.3349609375 85.5029296875 57.001953125 110.502929688 c 0
 49.6689453125 135.502929688 46.001953125 159.669921875 46.001953125 183.002929688 c 0
 46.001953125 199.002929688 49.1689453125 216.002929688 55.501953125 234.002929688 c 0
 61.8349609375 252.002929688 70.66796875 269.3359375 82.0009765625 286.002929688 c 0
 93.333984375 302.669921875 107.000976562 317.836914062 123.000976562 331.50390625 c 0
 139.000976562 345.170898438 156.66796875 355.337890625 176.000976562 362.004882812 c 1
 142.000976562 378.004882812 116.000976562 398.671875 98.0009765625 424.004882812 c 0
 80.0009765625 449.337890625 71.0009765625 474.670898438 71.0009765625 500.00390625 c 0
 71.0009765625 511.336914062 73.16796875 526.669921875 77.5009765625 546.002929688 c 0
 81.833984375 565.3359375 90.833984375 584.168945312 104.500976562 602.501953125 c 0
 118.16796875 620.834960938 138.000976562 636.834960938 164.000976562 650.501953125 c 0
 190.000976562 664.168945312 224.333984375 671.001953125 267.000976562 671.001953125 c 0
 310.333984375 671.001953125 345.166992188 664.334960938 371.5 651.001953125 c 0
 397.833007812 637.668945312 417.833007812 621.668945312 431.5 603.001953125 c 0
 445.166992188 584.334960938 454.166992188 565.001953125 458.5 545.001953125 c 0
 462.833007812 525.001953125 465 508.668945312 465 496.001953125 c 0
 465 480.668945312 461.5 466.668945312 454.5 454.001953125 c 0
 447.5 441.334960938 438.833007812 430.001953125 428.5 420.001953125 c 0
 418.166992188 410.001953125 407 401.001953125 395 393.001953125 c 0
 383 385.001953125 372.333007812 377.668945312 363 371.001953125 c 1
 393 358.334960938 417.333007812 344.16796875 436 328.500976562 c 0
 454.666992188 312.833984375 469.166992188 297.000976562 479.5 281.000976562 c 0
 489.833007812 265.000976562 496.833007812 249.16796875 500.5 233.500976562 c 0
 504.166992188 217.833984375 506 203.666992188 506 191 c 0
159.001953125 503.002929688 m 0
 159.001953125 482.3359375 168.502929688 464.00390625 187.502929688 448.00390625 c 0
 206.502929688 432.00390625 238.002929688 416.00390625 282.002929688 400.00390625 c 1
 307.3359375 410.00390625 330.168945312 424.170898438 350.501953125 442.50390625 c 0
 370.834960938 460.836914062 381.001953125 478.00390625 381.001953125 494.00390625 c 0
 381.001953125 506.670898438 378.001953125 519.670898438 372.001953125 533.00390625 c 0
 366.001953125 546.336914062 358.001953125 558.169921875 348.001953125 568.502929688 c 0
 338.001953125 578.8359375 326.001953125 587.3359375 312.001953125 594.002929688 c 0
 298.001953125 600.669921875 283.001953125 604.002929688 267.001953125 604.002929688 c 0
 237.001953125 604.002929688 211.501953125 593.3359375 190.501953125 572.002929688 c 0
 169.501953125 550.669921875 159.001953125 527.669921875 159.001953125 503.002929688 c 0
267.002929688 54.00390625 m 0
 285.002929688 53.3369140625 303.00390625 55.841796875 321.00390625 61.5087890625 c 0
 339.00390625 67.17578125 355.336914062 75.17578125 370.00390625 85.5087890625 c 0
 384.670898438 95.841796875 396.50390625 108.674804688 405.50390625 124.0078125 c 0
 414.50390625 139.340820312 419.00390625 156.673828125 419.00390625 176.006835938 c 0
 419.00390625 186.673828125 417.50390625 198.673828125 414.50390625 212.006835938 c 0
 411.50390625 225.33984375 405.170898438 238.672851562 395.50390625 252.005859375 c 0
 385.836914062 265.338867188 371.669921875 278.671875 353.002929688 292.004882812 c 0
 334.3359375 305.337890625 309.3359375 317.670898438 278.002929688 329.00390625 c 1
 232.002929688 317.00390625 195.3359375 296.336914062 168.002929688 267.00390625 c 0
 140.669921875 237.670898438 127.002929688 206.670898438 127.002929688 174.00390625 c 0
 127.002929688 156.00390625 131.169921875 139.50390625 139.502929688 124.50390625 c 0
 147.8359375 109.50390625 158.502929688 97.00390625 171.502929688 87.00390625 c 0
 184.502929688 77.00390625 199.502929688 69.00390625 216.502929688 63.00390625 c 0
 233.502929688 57.00390625 250.3359375 54.00390625 267.002929688 54.00390625 c 0
EndSplineSet
EndChar

StartChar: nine
Encoding: 57 57 26
Width: 550
GlyphClass: 1
Flags: W
LayerCount: 2
Fore
SplineSet
54 448 m 0
 54 483.333007812 59.66796875 515.831054688 71.0009765625 545.498046875 c 0
 82.333984375 575.165039062 98.0009765625 600.83203125 118.000976562 622.499023438 c 0
 138.000976562 644.166015625 161.833984375 660.999023438 189.500976562 672.999023438 c 0
 217.16796875 684.999023438 246.66796875 690.999023438 278.000976562 690.999023438 c 0
 355.333984375 690.999023438 412.333984375 661.33203125 449.000976562 601.999023438 c 0
 485.66796875 542.666015625 503.66796875 459.999023438 503.000976562 353.999023438 c 0
 502.333984375 290.666015625 493.000976562 236.166015625 475.000976562 190.499023438 c 0
 457.000976562 144.83203125 433.16796875 106.999023438 403.500976562 76.9990234375 c 0
 373.833984375 46.9990234375 339.000976562 24.166015625 299.000976562 8.4990234375 c 0
 259.000976562 -7.16796875 216.66796875 -17.0009765625 172.000976562 -21.0009765625 c 0
 159.333984375 -21.66796875 147.166992188 -19.66796875 135.5 -15.0009765625 c 0
 123.833007812 -10.333984375 117.333007812 -1.6669921875 116 11 c 0
 115.333007812 19 119.166015625 27.5 127.499023438 36.5 c 0
 135.83203125 45.5 144.665039062 51.3330078125 153.998046875 54 c 0
 166.665039062 58 181.33203125 61.5 197.999023438 64.5 c 0
 214.666015625 67.5 231.833007812 71.8330078125 249.5 77.5 c 0
 267.166992188 83.1669921875 285 91.1669921875 303 101.5 c 0
 321 111.833007812 338 126 354 144 c 0
 370 162.666992188 384 184 396 208 c 0
 408 232 416 253.333007812 420 272 c 1
 401.333007812 251.333007812 377.833007812 237.5 349.5 230.5 c 0
 321.166992188 223.5 289 220 253 220 c 0
 225 220 198.833007812 226.333007812 174.5 239 c 0
 150.166992188 251.666992188 129.166992188 268.5 111.5 289.5 c 0
 93.8330078125 310.5 79.8330078125 334.833007812 69.5 362.5 c 0
 59.1669921875 390.166992188 54 418.666992188 54 448 c 0
277.000976562 302.998046875 m 0
 303.66796875 302.998046875 330.16796875 309.163085938 356.500976562 321.49609375 c 0
 382.833984375 333.829101562 404.000976562 350.99609375 420.000976562 372.99609375 c 1
 420.66796875 387.663085938 420.500976562 403.330078125 419.500976562 419.997070312 c 0
 418.500976562 436.6640625 417.66796875 448.331054688 417.000976562 454.998046875 c 0
 415.66796875 471.665039062 411.66796875 489.33203125 405.000976562 507.999023438 c 0
 398.333984375 526.666015625 389.333984375 543.666015625 378.000976562 558.999023438 c 0
 366.66796875 574.33203125 352.500976562 587.165039062 335.500976562 597.498046875 c 0
 318.500976562 607.831054688 299.000976562 612.6640625 277.000976562 611.997070312 c 0
 259.66796875 611.997070312 242.834960938 607.6640625 226.501953125 598.997070312 c 0
 210.168945312 590.330078125 196.001953125 578.830078125 184.001953125 564.497070312 c 0
 172.001953125 550.1640625 162.501953125 533.831054688 155.501953125 515.498046875 c 0
 148.501953125 497.165039062 145.001953125 478.33203125 145.001953125 458.999023438 c 0
 145.001953125 408.33203125 156.168945312 369.665039062 178.501953125 342.998046875 c 0
 200.834960938 316.331054688 233.66796875 302.998046875 277.000976562 302.998046875 c 0
EndSplineSet
EndChar

StartChar: colon
Encoding: 58 58 27
Width: 550
GlyphClass: 1
Flags: W
LayerCount: 2
Fore
SplineSet
338 390 m 0
 338.666992188 378 338.333984375 366.66796875 337.000976562 356.000976562 c 0
 335.66796875 345.333984375 333.66796875 334.666992188 331.000976562 324 c 0
 327.66796875 310.666992188 320.500976562 301 309.500976562 295 c 0
 298.500976562 289 288.66796875 286.333007812 280.000976562 287 c 0
 263.333984375 287.666992188 249.500976562 291.333984375 238.500976562 298.000976562 c 0
 227.500976562 304.66796875 221.333984375 315.334960938 220.000976562 330.001953125 c 0
 218.66796875 344.668945312 218.000976562 356.001953125 218.000976562 364.001953125 c 0
 218.000976562 372.001953125 218.333984375 382.334960938 219.000976562 395.001953125 c 0
 219.66796875 411.668945312 227.66796875 422.168945312 243.000976562 426.501953125 c 0
 258.333984375 430.834960938 271.000976562 432.66796875 281.000976562 432.000976562 c 0
 291.000976562 432.000976562 302.66796875 429.16796875 316.000976562 423.500976562 c 0
 329.333984375 417.833984375 336.666992188 406.666992188 338 390 c 0
339 140.000976562 m 0
 341 128.000976562 341.49609375 116.500976562 340.49609375 105.500976562 c 0
 339.49609375 94.5009765625 337.663085938 83.66796875 334.99609375 73.0009765625 c 0
 331.663085938 59.66796875 323.330078125 50.16796875 309.997070312 44.5009765625 c 0
 296.6640625 38.833984375 285.6640625 36.333984375 276.997070312 37.0009765625 c 0
 266.330078125 37.66796875 254.663085938 41.3349609375 241.99609375 48.001953125 c 0
 229.329101562 54.6689453125 222.329101562 65.3359375 220.99609375 80.0029296875 c 0
 219.663085938 94.669921875 219.330078125 106.002929688 219.997070312 114.002929688 c 0
 220.6640625 122.002929688 221.331054688 132.3359375 221.998046875 145.002929688 c 0
 222.665039062 161.669921875 230.33203125 172.169921875 244.999023438 176.502929688 c 0
 259.666015625 180.8359375 271.999023438 182.668945312 281.999023438 182.001953125 c 0
 291.999023438 182.001953125 303.33203125 179.168945312 315.999023438 173.501953125 c 0
 328.666015625 167.834960938 336.333007812 156.66796875 339 140.000976562 c 0
EndSplineSet
EndChar

StartChar: semicolon
Encoding: 59 59 28
Width: 550
GlyphClass: 1
Flags: W
LayerCount: 2
Fore
SplineSet
349 351 m 0
 349.666992188 339 349.333984375 327.66796875 348.000976562 317.000976562 c 0
 346.66796875 306.333984375 344.66796875 295.666992188 342.000976562 285 c 0
 338.66796875 271.666992188 331.500976562 262 320.500976562 256 c 0
 309.500976562 250 299.66796875 247.333007812 291.000976562 248 c 0
 280.333984375 248.666992188 268.000976562 252.333984375 254.000976562 259.000976562 c 0
 240.000976562 265.66796875 232.333984375 276.334960938 231.000976562 291.001953125 c 0
 229.66796875 305.668945312 229.000976562 317.001953125 229.000976562 325.001953125 c 0
 229.000976562 333.001953125 229.333984375 343.334960938 230.000976562 356.001953125 c 0
 230.66796875 372.668945312 238.66796875 383.168945312 254.000976562 387.501953125 c 0
 269.333984375 391.834960938 282.000976562 393.66796875 292.000976562 393.000976562 c 0
 302.000976562 393.000976562 313.66796875 390.16796875 327.000976562 384.500976562 c 0
 340.333984375 378.833984375 347.666992188 367.666992188 349 351 c 0
331 69.0009765625 m 0
 330.333007812 60.333984375 327.000976562 43.666015625 321.000976562 18.9990234375 c 0
 315.000976562 -5.66796875 308.500976562 -31.3349609375 301.500976562 -58.001953125 c 0
 294.500976562 -84.6689453125 287.833984375 -109.501953125 281.500976562 -132.501953125 c 0
 275.16796875 -155.501953125 271.334960938 -169.668945312 270.001953125 -175.001953125 c 0
 266.668945312 -188.334960938 260.001953125 -197.834960938 250.001953125 -203.501953125 c 0
 240.001953125 -209.168945312 230.668945312 -211.668945312 222.001953125 -211.001953125 c 0
 211.334960938 -210.334960938 200.66796875 -206.66796875 190.000976562 -200.000976562 c 0
 179.333984375 -193.333984375 174.666992188 -182.666992188 176 -168 c 0
 176.666992188 -160 179 -145.166992188 183 -123.5 c 0
 187 -101.833007812 191.5 -78.5 196.5 -53.5 c 0
 201.5 -28.5 206.666992188 -4.1669921875 212 19.5 c 0
 217.333007812 43.1669921875 221.333007812 61.333984375 224 74.0009765625 c 0
 228.666992188 93.333984375 235.666992188 104.500976562 245 107.500976562 c 0
 254.333007812 110.500976562 264 111.66796875 274 111.000976562 c 0
 278.666992188 111.000976562 284.5 110.333984375 291.5 109.000976562 c 0
 298.5 107.66796875 305 105.500976562 311 102.500976562 c 0
 317 99.5009765625 322 95.16796875 326 89.5009765625 c 0
 330 83.833984375 331.666992188 77.0009765625 331 69.0009765625 c 0
EndSplineSet
EndChar

StartChar: less
Encoding: 60 60 29
Width: 550
GlyphClass: 1
Flags: W
LayerCount: 2
Fore
SplineSet
70 295 m 0
 58 303.666992188 52.333984375 317.328125 53.0009765625 335.995117188 c 0
 53.66796875 354.662109375 59.66796875 367.329101562 71.0009765625 373.99609375 c 0
 104.333984375 398.663085938 137.166992188 424.163085938 169.5 450.49609375 c 0
 201.833007812 476.829101562 232.833007812 502.49609375 262.5 527.49609375 c 0
 292.166992188 552.49609375 321.333984375 576.163085938 350.000976562 598.49609375 c 0
 378.66796875 620.829101562 406.334960938 639.99609375 433.001953125 655.99609375 c 0
 453.668945312 668.663085938 470.3359375 670.49609375 483.002929688 661.49609375 c 0
 495.669921875 652.49609375 504.336914062 642.99609375 509.00390625 632.99609375 c 0
 514.336914062 622.329101562 513.669921875 611.49609375 507.002929688 600.49609375 c 0
 500.3359375 589.49609375 486.3359375 576.663085938 465.002929688 561.99609375 c 0
 442.3359375 545.99609375 418.168945312 528.329101562 392.501953125 508.99609375 c 0
 366.834960938 489.663085938 341.16796875 469.830078125 315.500976562 449.497070312 c 0
 289.833984375 429.1640625 264.500976562 409.331054688 239.500976562 389.998046875 c 0
 214.500976562 370.665039062 191.333984375 352.998046875 170.000976562 336.998046875 c 1
 197.333984375 315.665039062 224.500976562 292.83203125 251.500976562 268.499023438 c 0
 278.500976562 244.166015625 304.500976562 220.333007812 329.500976562 197 c 0
 354.500976562 173.666992188 379.000976562 151.5 403.000976562 130.5 c 0
 427.000976562 109.5 450.000976562 92 472.000976562 78 c 0
 492.000976562 65.3330078125 505.333984375 54 512.000976562 44 c 0
 518.66796875 34 519.66796875 23.6669921875 515.000976562 13 c 0
 510.333984375 4.3330078125 501.833984375 -2.6669921875 489.500976562 -8 c 0
 477.16796875 -13.3330078125 460.000976562 -12.666015625 438.000976562 -5.9990234375 c 0
 417.333984375 0.66796875 392.000976562 16.16796875 362.000976562 40.5009765625 c 0
 332.000976562 64.833984375 300.333984375 92.1669921875 267.000976562 122.5 c 0
 233.66796875 152.833007812 199.66796875 183.833007812 165.000976562 215.5 c 0
 130.333984375 247.166992188 98.6669921875 273.666992188 70 295 c 0
EndSplineSet
EndChar

StartChar: equal
Encoding: 61 61 30
Width: 550
GlyphClass: 1
Flags: W
LayerCount: 2
Fore
SplineSet
108 404 m 0
 138 403.333007812 170.833007812 402.833984375 206.5 402.500976562 c 0
 242.166992188 402.16796875 276.166992188 402.16796875 308.5 402.500976562 c 0
 340.833007812 402.833984375 370 403.166992188 396 403.5 c 0
 422 403.833007812 440.666992188 404 452 404 c 0
 468 404 478.5 400.333007812 483.5 393 c 0
 488.5 385.666992188 491.333007812 377.666992188 492 369 c 0
 492 359 489.5 349.333007812 484.5 340 c 0
 479.5 330.666992188 468.666992188 326.666992188 452 328 c 0
 441.333007812 328.666992188 421.333007812 329 392 329 c 0
 362.666992188 329 330.666992188 328.5 296 327.5 c 0
 261.333007812 326.5 227 325.666992188 193 325 c 0
 159 324.333007812 132.333007812 324 113 324 c 0
 96.3330078125 324 83.8330078125 328 75.5 336 c 0
 67.1669921875 344 63 353 63 363 c 0
 62.3330078125 373 65.5 382.5 72.5 391.5 c 0
 79.5 400.5 91.3330078125 404.666992188 108 404 c 0
111 218.000976562 m 0
 141.666992188 217.333984375 174.668945312 217.168945312 210.001953125 217.501953125 c 0
 245.334960938 217.834960938 279.001953125 218.16796875 311.001953125 218.500976562 c 0
 343.001953125 218.833984375 371.668945312 219.333984375 397.001953125 220.000976562 c 0
 422.334960938 220.66796875 440.66796875 221.000976562 452.000976562 221.000976562 c 0
 468.000976562 221.000976562 478.500976562 217.333984375 483.500976562 210.000976562 c 0
 488.500976562 202.66796875 491.333984375 194.66796875 492.000976562 186.000976562 c 0
 492.000976562 176.000976562 489.500976562 166.333984375 484.500976562 157.000976562 c 0
 479.500976562 147.66796875 468.66796875 143.66796875 452.000976562 145.000976562 c 0
 441.333984375 145.66796875 421.166992188 146.000976562 391.5 146.000976562 c 0
 361.833007812 146.000976562 329.5 145.500976562 294.5 144.500976562 c 0
 259.5 143.500976562 224.666992188 142.66796875 190 142.000976562 c 0
 155.333007812 141.333984375 128.333007812 141.000976562 109 141.000976562 c 0
 92.3330078125 141.000976562 80.5 145.16796875 73.5 153.500976562 c 0
 66.5 161.833984375 63 171.000976562 63 181.000976562 c 0
 62.3330078125 191.000976562 66 199.833984375 74 207.500976562 c 0
 82 215.16796875 94.3330078125 218.66796875 111 218.000976562 c 0
EndSplineSet
EndChar

StartChar: greater
Encoding: 62 62 31
Width: 550
GlyphClass: 1
Flags: W
LayerCount: 2
Fore
SplineSet
500 366 m 0
 512 357.333007812 517.666015625 343.671875 516.999023438 325.004882812 c 0
 516.33203125 306.337890625 510.33203125 293.670898438 498.999023438 287.00390625 c 0
 465.666015625 262.336914062 432.833007812 236.836914062 400.5 210.50390625 c 0
 368.166992188 184.170898438 337.166992188 158.50390625 307.5 133.50390625 c 0
 277.833007812 108.50390625 248.666015625 84.8369140625 219.999023438 62.50390625 c 0
 191.33203125 40.1708984375 163.665039062 21.00390625 136.998046875 5.00390625 c 0
 116.331054688 -7.6630859375 99.6640625 -9.49609375 86.9970703125 -0.49609375 c 0
 74.330078125 8.50390625 65.6630859375 18.00390625 60.99609375 28.00390625 c 0
 55.6630859375 38.6708984375 56.330078125 49.50390625 62.9970703125 60.50390625 c 0
 69.6640625 71.50390625 83.6640625 84.3369140625 104.997070312 99.00390625 c 0
 127.6640625 115.00390625 151.831054688 132.670898438 177.498046875 152.00390625 c 0
 203.165039062 171.336914062 228.83203125 191.169921875 254.499023438 211.502929688 c 0
 280.166015625 231.8359375 305.499023438 251.668945312 330.499023438 271.001953125 c 0
 355.499023438 290.334960938 378.666015625 308.001953125 399.999023438 324.001953125 c 1
 372.666015625 345.334960938 345.499023438 368.16796875 318.499023438 392.500976562 c 0
 291.499023438 416.833984375 265.499023438 440.666992188 240.499023438 464 c 0
 215.499023438 487.333007812 190.999023438 509.5 166.999023438 530.5 c 0
 142.999023438 551.5 119.999023438 569 97.9990234375 583 c 0
 77.9990234375 595.666992188 64.666015625 607 57.9990234375 617 c 0
 51.33203125 627 50.33203125 637.333007812 54.9990234375 648 c 0
 59.666015625 656.666992188 68.166015625 663.666992188 80.4990234375 669 c 0
 92.83203125 674.333007812 109.999023438 673.666015625 131.999023438 666.999023438 c 0
 152.666015625 660.33203125 177.999023438 644.83203125 207.999023438 620.499023438 c 0
 237.999023438 596.166015625 269.666015625 568.833007812 302.999023438 538.5 c 0
 336.33203125 508.166992188 370.33203125 477.166992188 404.999023438 445.5 c 0
 439.666015625 413.833007812 471.333007812 387.333007812 500 366 c 0
EndSplineSet
EndChar

StartChar: question
Encoding: 63 63 32
Width: 550
GlyphClass: 1
Flags: W
LayerCount: 2
Fore
SplineSet
317 245 m 0
 315 230.333007812 309.662109375 218.172851562 300.995117188 208.505859375 c 0
 292.328125 198.838867188 278.995117188 196.338867188 260.995117188 201.005859375 c 0
 243.662109375 205.672851562 232.329101562 213.83984375 226.99609375 225.506835938 c 0
 221.663085938 237.173828125 221.330078125 253.006835938 225.997070312 273.006835938 c 0
 233.997070312 304.33984375 246.997070312 330.006835938 264.997070312 350.006835938 c 0
 282.997070312 370.006835938 301.1640625 387.673828125 319.497070312 403.006835938 c 0
 337.830078125 418.33984375 353.997070312 433.672851562 367.997070312 449.005859375 c 0
 381.997070312 464.338867188 388.997070312 482.671875 388.997070312 504.004882812 c 0
 388.997070312 537.337890625 379.1640625 561.004882812 359.497070312 575.004882812 c 0
 339.830078125 589.004882812 313.330078125 596.004882812 279.997070312 596.004882812 c 0
 268.6640625 596.004882812 257.997070312 593.171875 247.997070312 587.504882812 c 0
 237.997070312 581.837890625 228.830078125 575.004882812 220.497070312 567.004882812 c 0
 212.1640625 559.004882812 204.497070312 550.171875 197.497070312 540.504882812 c 0
 190.497070312 530.837890625 184.330078125 522.004882812 178.997070312 514.004882812 c 0
 167.6640625 497.337890625 157.331054688 488.670898438 147.998046875 488.00390625 c 0
 138.665039062 487.336914062 127.665039062 489.669921875 114.998046875 495.002929688 c 0
 104.998046875 499.669921875 98.3310546875 507.502929688 94.998046875 518.502929688 c 0
 91.6650390625 529.502929688 94.33203125 543.3359375 102.999023438 560.002929688 c 0
 108.999023438 571.3359375 117.166015625 583.8359375 127.499023438 597.502929688 c 0
 137.83203125 611.169921875 150.165039062 623.669921875 164.498046875 635.002929688 c 0
 178.831054688 646.3359375 195.331054688 655.8359375 213.998046875 663.502929688 c 0
 232.665039062 671.169921875 253.33203125 675.002929688 275.999023438 675.002929688 c 0
 341.999023438 675.002929688 392.83203125 659.502929688 428.499023438 628.502929688 c 0
 464.166015625 597.502929688 481.999023438 550.669921875 481.999023438 488.002929688 c 0
 481.999023438 456.669921875 474.33203125 432.169921875 458.999023438 414.502929688 c 0
 443.666015625 396.8359375 426.333007812 380.668945312 407 366.001953125 c 0
 387.666992188 351.334960938 369 335.16796875 351 317.500976562 c 0
 333 299.833984375 321.666992188 275.666992188 317 245 c 0
268.995117188 -12.9931640625 m 0
 244.995117188 -15.66015625 225.99609375 -8.9931640625 211.99609375 7.0068359375 c 0
 197.99609375 23.0068359375 190.99609375 40.673828125 190.99609375 60.0068359375 c 0
 190.99609375 79.33984375 199.163085938 95.83984375 215.49609375 109.506835938 c 0
 231.829101562 123.173828125 249.662109375 130.340820312 268.995117188 131.0078125 c 0
 291.662109375 131.674804688 309.662109375 125.0078125 322.995117188 111.0078125 c 0
 336.328125 97.0078125 342.995117188 80.3408203125 342.995117188 61.0078125 c 0
 342.995117188 41.6748046875 336.328125 25.1748046875 322.995117188 11.5078125 c 0
 309.662109375 -2.1591796875 291.662109375 -10.326171875 268.995117188 -12.9931640625 c 0
EndSplineSet
EndChar

StartChar: at
Encoding: 64 64 33
Width: 550
GlyphClass: 1
Flags: W
LayerCount: 2
Fore
SplineSet
517 274 m 0
 517 252.666992188 515.499023438 231.329101562 512.499023438 209.99609375 c 0
 509.499023438 188.663085938 504.33203125 169.49609375 496.999023438 152.49609375 c 0
 489.666015625 135.49609375 479.999023438 121.663085938 467.999023438 110.99609375 c 0
 455.999023438 100.329101562 441.33203125 94.99609375 423.999023438 94.99609375 c 0
 398.666015625 94.99609375 380.333007812 102.49609375 369 117.49609375 c 0
 357.666992188 132.49609375 350.666992188 151.329101562 348 173.99609375 c 1
 342 155.99609375 332.666992188 140.829101562 320 128.49609375 c 0
 307.333007812 116.163085938 289.666015625 109.99609375 266.999023438 109.99609375 c 0
 231.666015625 109.99609375 203.333007812 121.329101562 182 143.99609375 c 0
 160.666992188 166.663085938 150 201.99609375 150 249.99609375 c 0
 150 286.663085938 155.666992188 317.663085938 167 342.99609375 c 0
 178.333007812 368.329101562 193 387.99609375 211 401.99609375 c 0
 229 415.99609375 249.333007812 424.329101562 272 426.99609375 c 0
 294.666992188 429.663085938 317.333984375 426.663085938 340.000976562 417.99609375 c 0
 354.000976562 412.663085938 365.333984375 405.330078125 374.000976562 395.997070312 c 0
 382.66796875 386.6640625 385.000976562 377.997070312 381.000976562 369.997070312 c 0
 373.66796875 355.330078125 363.000976562 348.330078125 349.000976562 348.997070312 c 0
 335.000976562 349.6640625 321.333984375 351.6640625 308.000976562 354.997070312 c 0
 289.333984375 359.6640625 270.333984375 354.831054688 251.000976562 340.498046875 c 0
 231.66796875 326.165039062 222.000976562 299.998046875 222.000976562 261.998046875 c 0
 222.000976562 255.998046875 222.500976562 248.498046875 223.500976562 239.498046875 c 0
 224.500976562 230.498046875 226.500976562 221.998046875 229.500976562 213.998046875 c 0
 232.500976562 205.998046875 236.66796875 199.165039062 242.000976562 193.498046875 c 0
 247.333984375 187.831054688 254.666992188 184.998046875 264 184.998046875 c 0
 284.666992188 184.998046875 299 192.998046875 307 208.998046875 c 0
 315 224.998046875 319.333007812 249.998046875 320 283.998046875 c 0
 320 290.665039062 324.333007812 296.665039062 333 301.998046875 c 0
 341.666992188 307.331054688 351 310.831054688 361 312.498046875 c 0
 371 314.165039062 380 313.665039062 388 310.998046875 c 0
 396 308.331054688 399.666992188 302.331054688 399 292.998046875 c 0
 394.333007812 242.998046875 394.666015625 209.665039062 399.999023438 192.998046875 c 0
 405.33203125 176.331054688 413.33203125 167.998046875 423.999023438 167.998046875 c 0
 429.33203125 167.998046875 433.665039062 172.331054688 436.998046875 180.998046875 c 0
 440.331054688 189.665039062 442.831054688 199.83203125 444.498046875 211.499023438 c 0
 446.165039062 223.166015625 447.33203125 235.166015625 447.999023438 247.499023438 c 0
 448.666015625 259.83203125 448.999023438 269.33203125 448.999023438 275.999023438 c 0
 448.999023438 349.33203125 442.83203125 406.165039062 430.499023438 446.498046875 c 0
 418.166015625 486.831054688 403.666015625 516.331054688 386.999023438 534.998046875 c 0
 370.33203125 553.665039062 353.499023438 564.665039062 336.499023438 567.998046875 c 0
 319.499023438 571.331054688 305.999023438 572.998046875 295.999023438 572.998046875 c 0
 271.33203125 572.998046875 247.999023438 565.331054688 225.999023438 549.998046875 c 0
 203.999023438 534.665039062 184.999023438 512.83203125 168.999023438 484.499023438 c 0
 152.999023438 456.166015625 140.166015625 421.833007812 130.499023438 381.5 c 0
 120.83203125 341.166992188 115.999023438 296.333984375 115.999023438 247.000976562 c 0
 115.999023438 192.333984375 120.83203125 146.333984375 130.499023438 109.000976562 c 0
 140.166015625 71.66796875 152.666015625 42.0009765625 167.999023438 20.0009765625 c 0
 183.33203125 -1.9990234375 200.33203125 -17.666015625 218.999023438 -26.9990234375 c 0
 237.666015625 -36.33203125 255.999023438 -40.9990234375 273.999023438 -40.9990234375 c 0
 315.999023438 -40.9990234375 346.499023438 -32.9990234375 365.499023438 -16.9990234375 c 0
 384.499023438 -0.9990234375 399.999023438 17.0009765625 411.999023438 37.0009765625 c 0
 418.666015625 47.66796875 425.166015625 56.5009765625 431.499023438 63.5009765625 c 0
 437.83203125 70.5009765625 445.999023438 72.0009765625 455.999023438 68.0009765625 c 0
 464.666015625 64.66796875 471.333007812 58.5009765625 476 49.5009765625 c 0
 480.666992188 40.5009765625 478.666992188 25.66796875 470 5.0009765625 c 0
 465.333007812 -7.666015625 458.833007812 -21.4990234375 450.5 -36.4990234375 c 0
 442.166992188 -51.4990234375 430.5 -65.33203125 415.5 -77.9990234375 c 0
 400.5 -90.666015625 381.166992188 -101.166015625 357.5 -109.499023438 c 0
 333.833007812 -117.83203125 304.333007812 -121.665039062 269 -120.998046875 c 0
 236.333007812 -120.998046875 205.666015625 -112.831054688 176.999023438 -96.498046875 c 0
 148.33203125 -80.1650390625 123.499023438 -57.498046875 102.499023438 -28.498046875 c 0
 81.4990234375 0.501953125 64.9990234375 35.6689453125 52.9990234375 77.001953125 c 0
 40.9990234375 118.334960938 34.9990234375 163.66796875 34.9990234375 213.000976562 c 0
 34.9990234375 282.333984375 41.666015625 344.666992188 54.9990234375 400 c 0
 68.33203125 455.333007812 86.33203125 502 108.999023438 540 c 0
 131.666015625 578 158.499023438 607 189.499023438 627 c 0
 220.499023438 647 253.666015625 657 288.999023438 657 c 0
 323.666015625 657 355.166015625 651.666992188 383.499023438 641 c 0
 411.83203125 630.333007812 435.83203125 610.833007812 455.499023438 582.5 c 0
 475.166015625 554.166992188 490.333007812 515 501 465 c 0
 511.666992188 415 517 351.333007812 517 274 c 0
EndSplineSet
EndChar

StartChar: A
Encoding: 65 65 34
Width: 550
GlyphClass: 1
Flags: W
LayerCount: 2
Fore
SplineSet
503 -2 m 0
 492.333007812 -6.6669921875 481.001953125 -6.3369140625 469.001953125 -1.00390625 c 0
 457.001953125 4.3291015625 447.001953125 17.3291015625 439.001953125 37.99609375 c 0
 434.334960938 50.6630859375 427.834960938 74.830078125 419.501953125 110.497070312 c 0
 411.168945312 146.1640625 402.001953125 187.6640625 392.001953125 234.997070312 c 1
 380.001953125 234.330078125 365.668945312 233.497070312 349.001953125 232.497070312 c 0
 332.334960938 231.497070312 314.501953125 230.1640625 295.501953125 228.497070312 c 0
 276.501953125 226.830078125 256.834960938 224.830078125 236.501953125 222.497070312 c 0
 216.168945312 220.1640625 196.668945312 217.6640625 178.001953125 214.997070312 c 1
 163.334960938 173.6640625 150.501953125 136.831054688 139.501953125 104.498046875 c 0
 128.501953125 72.1650390625 121.001953125 49.998046875 117.001953125 37.998046875 c 0
 110.334960938 17.3310546875 101.16796875 4.3310546875 89.5009765625 -1.001953125 c 0
 77.833984375 -6.3349609375 66.6669921875 -6.66796875 56 -2.0009765625 c 0
 46 2.666015625 39 10.8330078125 35 22.5 c 0
 31 34.1669921875 31.3330078125 49.6669921875 36 69 c 0
 38 79 43.8330078125 97.1669921875 53.5 123.5 c 0
 63.1669921875 149.833007812 75.333984375 180.333007812 90.0009765625 215 c 1
 84.66796875 218.333007812 80.5009765625 222.5 77.5009765625 227.5 c 0
 74.5009765625 232.5 73.0009765625 237.333007812 73.0009765625 242 c 0
 72.333984375 250.666992188 76.5009765625 259 85.5009765625 267 c 0
 94.5009765625 275 105.333984375 281 118.000976562 285 c 1
 132.000976562 318.333007812 147.000976562 352.5 163.000976562 387.5 c 0
 179.000976562 422.5 194.66796875 455.833007812 210.000976562 487.5 c 0
 225.333984375 519.166992188 240.333984375 548.5 255.000976562 575.5 c 0
 269.66796875 602.5 283.000976562 624.666992188 295.000976562 642 c 0
 303.66796875 654 311.66796875 663 319.000976562 669 c 0
 326.333984375 675 334.333984375 678 343.000976562 678 c 0
 353.66796875 678.666992188 364.000976562 676.5 374.000976562 671.5 c 0
 384.000976562 666.5 390.333984375 656.666992188 393.000976562 642 c 0
 398.333984375 610.666992188 406.833984375 565.166992188 418.500976562 505.5 c 0
 430.16796875 445.833007812 442.66796875 385.833007812 456.000976562 325.5 c 0
 469.333984375 265.166992188 482.166992188 210.333984375 494.5 161.000976562 c 0
 506.833007812 111.66796875 516.333007812 81.0009765625 523 69.0009765625 c 0
 532.333007812 51.66796875 533.833007812 36.66796875 527.5 24.0009765625 c 0
 521.166992188 11.333984375 513 2.6669921875 503 -2 c 0
325.001953125 562.997070312 m 1
 317.001953125 550.997070312 308.333007812 535.330078125 299 515.997070312 c 0
 289.666992188 496.6640625 279.833984375 475.331054688 269.500976562 451.998046875 c 0
 259.16796875 428.665039062 248.834960938 403.665039062 238.501953125 376.998046875 c 0
 228.168945312 350.331054688 218.001953125 323.6640625 208.001953125 296.997070312 c 1
 242.001953125 300.997070312 273.501953125 303.997070312 302.501953125 305.997070312 c 0
 331.501953125 307.997070312 356.334960938 309.330078125 377.001953125 309.997070312 c 1
 368.334960938 352.6640625 359.501953125 395.997070312 350.501953125 439.997070312 c 0
 341.501953125 483.997070312 333.001953125 524.997070312 325.001953125 562.997070312 c 1
EndSplineSet
EndChar

StartChar: B
Encoding: 66 66 35
Width: 550
GlyphClass: 1
Flags: W
LayerCount: 2
Fore
SplineSet
219 -13 m 0
 187 -15.6669921875 160.329101562 -18.1708984375 138.99609375 -20.50390625 c 0
 117.663085938 -22.8369140625 100.330078125 -22.669921875 86.9970703125 -20.0029296875 c 2
 83.9970703125 -20.0029296875 l 2
 72.6640625 -20.0029296875 62.6640625 -16.0029296875 53.9970703125 -8.0029296875 c 0
 45.330078125 -0.0029296875 41.6630859375 11.9970703125 42.99609375 27.9970703125 c 0
 43.6630859375 40.6640625 44.1630859375 60.1640625 44.49609375 86.4970703125 c 0
 44.8291015625 112.830078125 44.8291015625 142.997070312 44.49609375 176.997070312 c 0
 44.1630859375 210.997070312 43.49609375 247.830078125 42.49609375 287.497070312 c 0
 41.49609375 327.1640625 40.3291015625 366.331054688 38.99609375 404.998046875 c 0
 38.3291015625 430.998046875 37.8291015625 453.165039062 37.49609375 471.498046875 c 0
 37.1630859375 489.831054688 37.330078125 506.1640625 37.9970703125 520.497070312 c 0
 38.6640625 534.830078125 39.3310546875 547.997070312 39.998046875 559.997070312 c 0
 40.6650390625 571.997070312 40.998046875 584.330078125 40.998046875 596.997070312 c 0
 41.6650390625 614.997070312 46.6650390625 627.997070312 55.998046875 635.997070312 c 0
 65.3310546875 643.997070312 75.6640625 647.997070312 86.9970703125 647.997070312 c 2
 90.9970703125 647.997070312 l 1
 106.330078125 652.6640625 121.997070312 656.1640625 137.997070312 658.497070312 c 0
 153.997070312 660.830078125 168.497070312 662.330078125 181.497070312 662.997070312 c 0
 194.497070312 663.6640625 205.830078125 663.831054688 215.497070312 663.498046875 c 0
 225.1640625 663.165039062 231.6640625 662.998046875 234.997070312 662.998046875 c 0
 298.330078125 662.998046875 350.830078125 645.498046875 392.497070312 610.498046875 c 0
 434.1640625 575.498046875 455.331054688 528.331054688 455.998046875 468.998046875 c 0
 456.665039062 431.665039062 448.165039062 400.165039062 430.498046875 374.498046875 c 0
 412.831054688 348.831054688 389.998046875 330.331054688 361.998046875 318.998046875 c 1
 377.331054688 313.665039062 392.998046875 306.498046875 408.998046875 297.498046875 c 0
 424.998046875 288.498046875 439.331054688 278.331054688 451.998046875 266.998046875 c 0
 464.665039062 255.665039062 474.998046875 243.998046875 482.998046875 231.998046875 c 0
 490.998046875 219.998046875 494.998046875 208.331054688 494.998046875 196.998046875 c 0
 495.665039062 173.665039062 489.83203125 150.33203125 477.499023438 126.999023438 c 0
 465.166015625 103.666015625 447.333007812 82.3330078125 424 63 c 0
 400.666992188 43.6669921875 371.666992188 27.1669921875 337 13.5 c 0
 302.333007812 -0.1669921875 263 -9 219 -13 c 0
232.99609375 588.99609375 m 0
 221.663085938 588.99609375 207.497070312 588.1640625 190.497070312 586.497070312 c 0
 173.497070312 584.830078125 154.997070312 581.663085938 134.997070312 576.99609375 c 1
 134.330078125 549.663085938 133.163085938 517.49609375 131.49609375 480.49609375 c 0
 129.829101562 443.49609375 129.329101562 398.99609375 129.99609375 346.99609375 c 1
 140.663085938 346.329101562 152.830078125 345.829101562 166.497070312 345.49609375 c 0
 180.1640625 345.163085938 195.6640625 344.99609375 212.997070312 344.99609375 c 0
 246.997070312 344.99609375 274.330078125 349.329101562 294.997070312 357.99609375 c 0
 315.6640625 366.663085938 331.497070312 377.49609375 342.497070312 390.49609375 c 0
 353.497070312 403.49609375 360.830078125 417.49609375 364.497070312 432.49609375 c 0
 368.1640625 447.49609375 369.997070312 461.329101562 369.997070312 473.99609375 c 0
 369.997070312 495.329101562 365.1640625 513.329101562 355.497070312 527.99609375 c 0
 345.830078125 542.663085938 334.163085938 554.49609375 320.49609375 563.49609375 c 0
 306.829101562 572.49609375 291.99609375 578.99609375 275.99609375 582.99609375 c 0
 259.99609375 586.99609375 245.663085938 588.99609375 232.99609375 588.99609375 c 0
220.997070312 277.997070312 m 1
 169.998046875 277.993164062 l 2
 155.331054688 277.993164062 142.6640625 277.66015625 131.997070312 276.993164062 c 1
 132.6640625 237.66015625 133.6640625 199.327148438 134.997070312 161.994140625 c 0
 136.330078125 124.661132812 137.330078125 91.6611328125 137.997070312 62.994140625 c 1
 147.330078125 63.6611328125 157.997070312 63.994140625 169.997070312 63.994140625 c 0
 181.997070312 63.994140625 194.6640625 64.3271484375 207.997070312 64.994140625 c 0
 237.997070312 65.6611328125 264.997070312 70.328125 288.997070312 78.9951171875 c 0
 312.997070312 87.662109375 333.330078125 98.162109375 349.997070312 110.495117188 c 0
 366.6640625 122.828125 379.497070312 135.828125 388.497070312 149.495117188 c 0
 397.497070312 163.162109375 401.997070312 175.329101562 401.997070312 185.99609375 c 0
 401.997070312 200.663085938 388.1640625 217.330078125 360.497070312 235.997070312 c 0
 332.830078125 254.6640625 286.330078125 268.6640625 220.997070312 277.997070312 c 1
EndSplineSet
EndChar

StartChar: C
Encoding: 67 67 36
Width: 550
GlyphClass: 1
Flags: W
LayerCount: 2
Fore
SplineSet
359 667 m 0
 370.333007812 667 381.500976562 666.3359375 392.500976562 665.002929688 c 0
 403.500976562 663.669921875 413.333984375 661.669921875 422.000976562 659.002929688 c 1
 424.66796875 668.3359375 429.66796875 676.002929688 437.000976562 682.002929688 c 0
 444.333984375 688.002929688 452.000976562 691.3359375 460.000976562 692.002929688 c 0
 468.66796875 693.3359375 478.66796875 691.002929688 490.000976562 685.002929688 c 0
 501.333984375 679.002929688 508.333984375 669.3359375 511.000976562 656.002929688 c 0
 516.333984375 631.3359375 519.000976562 609.668945312 519.000976562 591.001953125 c 2
 519.000976562 547.001953125 l 2
 519.000976562 533.668945312 514.16796875 520.168945312 504.500976562 506.501953125 c 0
 494.833984375 492.834960938 485.000976562 485.66796875 475.000976562 485.000976562 c 0
 465.000976562 483.66796875 453.833984375 486.500976562 441.500976562 493.500976562 c 0
 429.16796875 500.500976562 423.000976562 511.000976562 423.000976562 525.000976562 c 0
 423.000976562 529.66796875 423.16796875 535.334960938 423.500976562 542.001953125 c 0
 423.833984375 548.668945312 424.333984375 556.001953125 425.000976562 564.001953125 c 1
 417.66796875 568.668945312 409.000976562 574.3359375 399.000976562 581.002929688 c 0
 389.000976562 587.669921875 378.000976562 591.002929688 366.000976562 591.002929688 c 0
 341.333984375 591.002929688 315.166992188 581.169921875 287.5 561.502929688 c 0
 259.833007812 541.8359375 234.5 515.3359375 211.5 482.002929688 c 0
 188.5 448.669921875 169.333007812 409.669921875 154 365.002929688 c 0
 138.666992188 320.3359375 131 273.3359375 131 224.002929688 c 0
 131 203.3359375 134.333007812 182.8359375 141 162.502929688 c 0
 147.666992188 142.169921875 156.5 124.169921875 167.5 108.502929688 c 0
 178.5 92.8359375 191.833007812 80.0029296875 207.5 70.0029296875 c 0
 223.166992188 60.0029296875 240 55.0029296875 258 55.0029296875 c 0
 300 55.0029296875 336.333007812 62.3359375 367 77.0029296875 c 0
 397.666992188 91.669921875 421.333984375 105.336914062 438.000976562 118.00390625 c 0
 448.66796875 125.336914062 459.000976562 130.669921875 469.000976562 134.002929688 c 0
 479.000976562 137.3359375 488.66796875 135.668945312 498.000976562 129.001953125 c 0
 506.66796875 122.334960938 511.834960938 113.334960938 513.501953125 102.001953125 c 0
 515.168945312 90.6689453125 508.668945312 76.6689453125 494.001953125 60.001953125 c 0
 485.334960938 50.001953125 474.16796875 39.6689453125 460.500976562 29.001953125 c 0
 446.833984375 18.3349609375 430.166992188 8.66796875 410.5 0.0009765625 c 0
 390.833007812 -8.666015625 367.5 -15.8330078125 340.5 -21.5 c 0
 313.5 -27.1669921875 282.333007812 -29.6669921875 247 -29 c 0
 214.333007812 -29 185 -22.3330078125 159 -9 c 0
 133 4.3330078125 111 21.5 93 42.5 c 0
 75 63.5 61.3330078125 87.3330078125 52 114 c 0
 42.6669921875 140.666992188 38 167.333984375 38 194.000976562 c 0
 38 263.333984375 48.1669921875 327.166992188 68.5 385.5 c 0
 88.8330078125 443.833007812 114.5 493.833007812 145.5 535.5 c 0
 176.5 577.166992188 211 609.5 249 632.5 c 0
 287 655.5 323.666992188 667 359 667 c 0
EndSplineSet
EndChar

StartChar: D
Encoding: 68 68 37
Width: 550
GlyphClass: 1
Flags: W
LayerCount: 2
Fore
SplineSet
315 -29 m 0
 247.666992188 -29.6669921875 194 -24.998046875 154 -14.998046875 c 0
 114 -4.998046875 90.6669921875 0.001953125 84 0.001953125 c 0
 72.6669921875 0.001953125 62.6669921875 4.001953125 54 12.001953125 c 0
 45.3330078125 20.001953125 41.666015625 32.001953125 42.9990234375 48.001953125 c 0
 43.666015625 62.001953125 44.166015625 83.001953125 44.4990234375 111.001953125 c 0
 44.83203125 139.001953125 44.83203125 171.168945312 44.4990234375 207.501953125 c 0
 44.166015625 243.834960938 43.4990234375 283.334960938 42.4990234375 326.001953125 c 0
 41.4990234375 368.668945312 40.33203125 411.668945312 38.9990234375 455.001953125 c 0
 37.666015625 495.001953125 37.4990234375 527.001953125 38.4990234375 551.001953125 c 0
 39.4990234375 575.001953125 40.33203125 597.001953125 40.9990234375 617.001953125 c 0
 41.666015625 635.001953125 46.666015625 648.001953125 55.9990234375 656.001953125 c 0
 65.33203125 664.001953125 75.6650390625 668.001953125 86.998046875 668.001953125 c 0
 101.665039062 668.001953125 132.83203125 663.668945312 180.499023438 655.001953125 c 0
 228.166015625 646.334960938 277.333007812 626.66796875 328 596.000976562 c 0
 378.666992188 565.333984375 424 519.833984375 464 459.500976562 c 0
 504 399.16796875 524 318.000976562 524 216.000976562 c 0
 524 189.333984375 519.333007812 161.500976562 510 132.500976562 c 0
 500.666992188 103.500976562 487 77.16796875 469 53.5009765625 c 0
 451 29.833984375 429 10.1669921875 403 -5.5 c 0
 377 -21.1669921875 347.666992188 -29 315 -29 c 0
131 325.001953125 m 0
 132.333007812 281.668945312 133.498046875 240.16796875 134.498046875 200.500976562 c 0
 135.498046875 160.833984375 136.665039062 121.333984375 137.998046875 82.0009765625 c 1
 164.665039062 70.66796875 192.165039062 62.66796875 220.498046875 58.0009765625 c 0
 248.831054688 53.333984375 279.998046875 51.0009765625 313.998046875 51.0009765625 c 0
 331.998046875 51.0009765625 348.331054688 57.0009765625 362.998046875 69.0009765625 c 0
 377.665039062 81.0009765625 390.33203125 96.0009765625 400.999023438 114.000976562 c 0
 411.666015625 132.000976562 419.833007812 152.16796875 425.5 174.500976562 c 0
 431.166992188 196.833984375 434 218.333984375 434 239.000976562 c 0
 434 297.000976562 423.666992188 345.500976562 403 384.500976562 c 0
 382.333007812 423.500976562 356.833007812 455.66796875 326.5 481.000976562 c 0
 296.166992188 506.333984375 263.166992188 526.500976562 227.5 541.500976562 c 0
 191.833007812 556.500976562 159.333007812 569.333984375 130 580.000976562 c 1
 129.333007812 540.000976562 129 499.833984375 129 459.500976562 c 0
 129 419.16796875 129.666992188 374.334960938 131 325.001953125 c 0
EndSplineSet
EndChar

StartChar: E
Encoding: 69 69 38
Width: 550
GlyphClass: 1
Flags: W
LayerCount: 2
Fore
SplineSet
455 -6 m 0
 444.333007812 -5.3330078125 425.168945312 -5.833984375 397.501953125 -7.5009765625 c 0
 369.834960938 -9.16796875 339.001953125 -11.0009765625 305.001953125 -13.0009765625 c 0
 271.001953125 -15.0009765625 236.334960938 -16.66796875 201.001953125 -18.0009765625 c 0
 165.668945312 -19.333984375 135.668945312 -19.0009765625 111.001953125 -17.0009765625 c 0
 97.6689453125 -16.333984375 83.6689453125 -9.5009765625 69.001953125 3.4990234375 c 0
 54.3349609375 16.4990234375 45.66796875 32.9990234375 43.0009765625 52.9990234375 c 0
 41.0009765625 66.9990234375 40.0009765625 87.166015625 40.0009765625 113.499023438 c 0
 40.0009765625 139.83203125 40.16796875 169.83203125 40.5009765625 203.499023438 c 0
 40.833984375 237.166015625 41.0009765625 273.833007812 41.0009765625 313.5 c 0
 41.0009765625 353.166992188 40.333984375 393.666992188 39.0009765625 435 c 0
 37.66796875 479 37.5009765625 513.166992188 38.5009765625 537.5 c 0
 39.5009765625 561.833007812 40.333984375 585 41.0009765625 607 c 0
 41.66796875 625 46.66796875 638 56.0009765625 646 c 0
 65.333984375 654 75.6669921875 658 87 658 c 0
 94.3330078125 658.666992188 101.333007812 657.666992188 108 655 c 0
 114.666992188 652.333007812 120.333984375 648 125.000976562 642 c 1
 153.66796875 646 184.66796875 648.833007812 218.000976562 650.5 c 0
 251.333984375 652.166992188 283.666992188 653 315 653 c 0
 346.333007812 653 375.333007812 652.333007812 402 651 c 0
 428.666992188 649.666992188 449.333984375 648 464.000976562 646 c 0
 480.000976562 644 490.500976562 639.833007812 495.500976562 633.5 c 0
 500.500976562 627.166992188 503.333984375 619.666992188 504.000976562 611 c 0
 504.000976562 601 501.500976562 591.333007812 496.500976562 582 c 0
 491.500976562 572.666992188 480.66796875 568.666992188 464.000976562 570 c 0
 436.000976562 572 406.66796875 573.333007812 376.000976562 574 c 0
 345.333984375 574.666992188 315.666992188 574.666992188 287 574 c 0
 258.333007812 573.333007812 230.666015625 572 203.999023438 570 c 0
 177.33203125 568 153.999023438 565.666992188 133.999023438 563 c 1
 133.33203125 538.333007812 132.499023438 510.333007812 131.499023438 479 c 0
 130.499023438 447.666992188 129.999023438 412 129.999023438 372 c 1
 159.999023438 372 191.499023438 372.833007812 224.499023438 374.5 c 0
 257.499023438 376.166992188 288.666015625 377.833984375 317.999023438 379.500976562 c 0
 347.33203125 381.16796875 373.83203125 382.66796875 397.499023438 384.000976562 c 0
 421.166015625 385.333984375 438.333007812 386.000976562 449 386.000976562 c 0
 465 386.000976562 475.5 382.333984375 480.5 375.000976562 c 0
 485.5 367.66796875 488.333007812 359.66796875 489 351.000976562 c 0
 489 341.000976562 486.5 331.66796875 481.5 323.000976562 c 0
 476.5 314.333984375 465.666992188 310.000976562 449 310.000976562 c 0
 439 310.000976562 420.666992188 309.000976562 394 307.000976562 c 0
 367.333007812 305.000976562 338 302.833984375 306 300.500976562 c 0
 274 298.16796875 242 296.000976562 210 294.000976562 c 0
 178 292.000976562 151.666992188 291.000976562 131 291.000976562 c 1
 131.666992188 269.66796875 132 247.000976562 132 223.000976562 c 0
 132 199.000976562 132.333007812 176.500976562 133 155.500976562 c 0
 133.666992188 134.500976562 134.5 116.000976562 135.5 100.000976562 c 0
 136.5 84.0009765625 138 73.0009765625 140 67.0009765625 c 1
 146.666992188 64.333984375 164.333984375 63.0009765625 193.000976562 63.0009765625 c 0
 221.66796875 63.0009765625 252.66796875 63.66796875 286.000976562 65.0009765625 c 0
 319.333984375 66.333984375 351.166992188 68.1669921875 381.5 70.5 c 0
 411.833007812 72.8330078125 432 75 442 77 c 0
 468.666992188 81.6669921875 485.5 78.5 492.5 67.5 c 0
 499.5 56.5 503.333007812 46.6669921875 504 38 c 0
 504 28 500.333007812 17.8330078125 493 7.5 c 0
 485.666992188 -2.8330078125 473 -7.3330078125 455 -6 c 0
EndSplineSet
EndChar

StartChar: F
Encoding: 70 70 39
Width: 550
GlyphClass: 1
Flags: W
LayerCount: 2
Fore
SplineSet
139 23 m 0
 137.666992188 9 131.328125 -1.830078125 119.995117188 -9.4970703125 c 0
 108.662109375 -17.1640625 96.662109375 -20.6640625 83.9951171875 -19.9970703125 c 0
 72.662109375 -19.9970703125 62.662109375 -15.9970703125 53.9951171875 -7.9970703125 c 0
 45.328125 0.0029296875 41.6611328125 12.0029296875 42.994140625 28.0029296875 c 0
 43.6611328125 41.3359375 44.1611328125 61.8359375 44.494140625 89.5029296875 c 0
 44.8271484375 117.169921875 44.8271484375 149.002929688 44.494140625 185.002929688 c 0
 44.1611328125 221.002929688 43.494140625 259.8359375 42.494140625 301.502929688 c 0
 41.494140625 343.169921875 40.3271484375 384.336914062 38.994140625 425.00390625 c 0
 38.3271484375 451.00390625 37.8271484375 473.170898438 37.494140625 491.50390625 c 0
 37.1611328125 509.836914062 37.328125 526.169921875 37.9951171875 540.502929688 c 0
 38.662109375 554.8359375 39.3291015625 568.002929688 39.99609375 580.002929688 c 0
 40.6630859375 592.002929688 40.99609375 604.3359375 40.99609375 617.002929688 c 0
 41.6630859375 635.002929688 46.6630859375 648.002929688 55.99609375 656.002929688 c 0
 65.3291015625 664.002929688 75.662109375 668.002929688 86.9951171875 668.002929688 c 0
 94.328125 668.669921875 101.495117188 667.669921875 108.495117188 665.002929688 c 0
 115.495117188 662.3359375 121.328125 658.002929688 125.995117188 652.002929688 c 1
 155.995117188 654.002929688 186.995117188 655.669921875 218.995117188 657.002929688 c 0
 250.995117188 658.3359375 281.828125 659.3359375 311.495117188 660.002929688 c 0
 341.162109375 660.669921875 369.162109375 660.669921875 395.495117188 660.002929688 c 0
 421.828125 659.3359375 444.661132812 658.002929688 463.994140625 656.002929688 c 0
 479.994140625 654.669921875 490.494140625 650.669921875 495.494140625 644.002929688 c 0
 500.494140625 637.3359375 503.327148438 629.668945312 503.994140625 621.001953125 c 0
 503.994140625 611.001953125 500.827148438 601.334960938 494.494140625 592.001953125 c 0
 488.161132812 582.668945312 476.661132812 578.3359375 459.994140625 579.002929688 c 0
 405.994140625 581.669921875 350.661132812 582.169921875 293.994140625 580.502929688 c 0
 237.327148438 578.8359375 183.994140625 576.002929688 133.994140625 572.002929688 c 1
 133.327148438 546.669921875 132.327148438 518.169921875 130.994140625 486.502929688 c 0
 129.661132812 454.8359375 129.328125 418.002929688 129.995117188 376.002929688 c 1
 154.662109375 378.669921875 181.829101562 380.169921875 211.49609375 380.502929688 c 0
 241.163085938 380.8359375 269.99609375 380.3359375 297.99609375 379.002929688 c 0
 325.99609375 377.669921875 351.829101562 375.669921875 375.49609375 373.002929688 c 0
 399.163085938 370.3359375 417.330078125 368.002929688 429.997070312 366.002929688 c 0
 445.997070312 363.3359375 456.497070312 359.002929688 461.497070312 353.002929688 c 0
 466.497070312 347.002929688 469.330078125 339.669921875 469.997070312 331.002929688 c 0
 469.997070312 321.002929688 467.497070312 311.3359375 462.497070312 302.002929688 c 0
 457.497070312 292.669921875 446.6640625 288.669921875 429.997070312 290.002929688 c 0
 417.330078125 292.002929688 398.663085938 294.002929688 373.99609375 296.002929688 c 0
 349.329101562 298.002929688 322.829101562 299.502929688 294.49609375 300.502929688 c 0
 266.163085938 301.502929688 237.49609375 301.669921875 208.49609375 301.002929688 c 0
 179.49609375 300.3359375 153.663085938 298.668945312 130.99609375 296.001953125 c 1
 131.663085938 270.001953125 132.330078125 243.834960938 132.997070312 217.501953125 c 0
 133.6640625 191.168945312 134.331054688 166.168945312 134.998046875 142.501953125 c 0
 135.665039062 118.834960938 136.33203125 96.66796875 136.999023438 76.0009765625 c 0
 137.666015625 55.333984375 138.333007812 37.6669921875 139 23 c 0
EndSplineSet
EndChar

StartChar: G
Encoding: 71 71 40
Width: 550
GlyphClass: 1
Flags: W
LayerCount: 2
Fore
SplineSet
223 311 m 0
 233 315.666992188 249.001953125 319.83203125 271.001953125 323.499023438 c 0
 293.001953125 327.166015625 316.668945312 329.999023438 342.001953125 331.999023438 c 0
 367.334960938 333.999023438 392.16796875 335.33203125 416.500976562 335.999023438 c 0
 440.833984375 336.666015625 460.333984375 336.666015625 475.000976562 335.999023438 c 0
 491.66796875 335.33203125 502.834960938 332.33203125 508.501953125 326.999023438 c 0
 514.168945312 321.666015625 517.668945312 314.666015625 519.001953125 305.999023438 c 0
 519.668945312 297.33203125 519.001953125 288.83203125 517.001953125 280.499023438 c 0
 515.001953125 272.166015625 509.001953125 266.333007812 499.001953125 263 c 1
 498.334960938 258.333007812 497.66796875 253 497.000976562 247 c 0
 496.333984375 241 495.666992188 234.666992188 495 228 c 0
 493 208.666992188 485.5 184.333984375 472.5 155.000976562 c 0
 459.5 125.66796875 442.333007812 97.3349609375 421 70.001953125 c 0
 399.666992188 42.6689453125 374.166992188 19.1689453125 344.5 -0.498046875 c 0
 314.833007812 -20.1650390625 282.333007812 -29.6650390625 247 -28.998046875 c 0
 214.333007812 -28.998046875 185 -22.3310546875 159 -8.998046875 c 0
 133 4.3349609375 111 21.501953125 93 42.501953125 c 0
 75 63.501953125 61.3330078125 87.3349609375 52 114.001953125 c 0
 42.6669921875 140.668945312 38 167.3359375 38 194.002929688 c 0
 38 265.3359375 48.1669921875 330.668945312 68.5 390.001953125 c 0
 88.8330078125 449.334960938 114.5 500.16796875 145.5 542.500976562 c 0
 176.5 584.833984375 211 617.833984375 249 641.500976562 c 0
 287 665.16796875 323.666992188 677.000976562 359 677.000976562 c 0
 373 677.000976562 388 675.16796875 404 671.500976562 c 0
 420 667.833984375 435.166992188 663.333984375 449.5 658.000976562 c 0
 463.833007812 652.66796875 476.333007812 647.16796875 487 641.500976562 c 0
 497.666992188 635.833984375 505 631.000976562 509 627.000976562 c 0
 517.666992188 618.333984375 522 608.833984375 522 598.500976562 c 0
 522 588.16796875 521 580.000976562 519 574.000976562 c 0
 516.333007812 566.66796875 510.5 561.000976562 501.5 557.000976562 c 0
 492.5 553.000976562 483 552.66796875 473 556.000976562 c 0
 467.666992188 558.000976562 461 561.500976562 453 566.500976562 c 0
 445 571.500976562 436.166992188 576.500976562 426.5 581.500976562 c 0
 416.833007812 586.500976562 406.833007812 591.000976562 396.5 595.000976562 c 0
 386.166992188 599.000976562 376 601.000976562 366 601.000976562 c 0
 341.333007812 601.000976562 315.166015625 590.833984375 287.499023438 570.500976562 c 0
 259.83203125 550.16796875 234.499023438 522.834960938 211.499023438 488.501953125 c 0
 188.499023438 454.168945312 169.33203125 414.168945312 153.999023438 368.501953125 c 0
 138.666015625 322.834960938 130.999023438 274.66796875 130.999023438 224.000976562 c 0
 130.999023438 203.333984375 134.33203125 182.833984375 140.999023438 162.500976562 c 0
 147.666015625 142.16796875 156.499023438 124.16796875 167.499023438 108.500976562 c 0
 178.499023438 92.833984375 191.83203125 80.0009765625 207.499023438 70.0009765625 c 0
 223.166015625 60.0009765625 239.999023438 55.0009765625 257.999023438 55.0009765625 c 0
 277.33203125 55.0009765625 296.33203125 62.333984375 314.999023438 77.0009765625 c 0
 333.666015625 91.66796875 350.333007812 109.500976562 365 130.500976562 c 0
 379.666992188 151.500976562 392.5 174.000976562 403.5 198.000976562 c 0
 414.5 222.000976562 422.333007812 242.66796875 427 260.000976562 c 1
 410.333007812 259.333984375 392.333007812 258.166992188 373 256.5 c 0
 353.666992188 254.833007812 335 252.833007812 317 250.5 c 0
 299 248.166992188 282.666992188 245.166992188 268 241.5 c 0
 253.333007812 237.833007812 242 234 234 230 c 0
 223.333007812 224 213.166015625 224.333007812 203.499023438 231 c 0
 193.83203125 237.666992188 188.33203125 246 186.999023438 256 c 0
 185.666015625 266 187.333007812 275.833007812 192 285.5 c 0
 196.666992188 295.166992188 207 303.666992188 223 311 c 0
EndSplineSet
EndChar

StartChar: H
Encoding: 72 72 41
Width: 550
GlyphClass: 1
Flags: W
LayerCount: 2
Fore
SplineSet
151 620 m 0
 151 607.333007812 150.168945312 593.834960938 148.501953125 579.501953125 c 0
 146.834960938 565.168945312 146.001953125 546.001953125 146.001953125 522.001953125 c 0
 146.001953125 497.334960938 146.334960938 472.66796875 147.001953125 448.000976562 c 0
 147.668945312 423.333984375 148.001953125 398.000976562 148.001953125 372.000976562 c 1
 203.334960938 372.66796875 253.16796875 376.500976562 297.500976562 383.500976562 c 0
 341.833984375 390.500976562 376.000976562 394.66796875 400.000976562 396.000976562 c 1
 400.000976562 402.66796875 399.833984375 409.16796875 399.500976562 415.500976562 c 0
 399.16796875 421.833984375 399.000976562 428.333984375 399.000976562 435.000976562 c 0
 397.66796875 479.000976562 397.500976562 514.66796875 398.500976562 542.000976562 c 0
 399.500976562 569.333984375 400.333984375 594.333984375 401.000976562 617.000976562 c 0
 401.66796875 635.000976562 406.66796875 648.000976562 416.000976562 656.000976562 c 0
 425.333984375 664.000976562 435.666992188 668.000976562 447 668.000976562 c 0
 459.666992188 668.66796875 470.833984375 665.334960938 480.500976562 658.001953125 c 0
 490.16796875 650.668945312 495.000976562 638.001953125 495.000976562 620.001953125 c 0
 495.000976562 589.334960938 494.333984375 549.834960938 493.000976562 501.501953125 c 0
 491.66796875 453.168945312 492.000976562 396.001953125 494.000976562 330.001953125 c 0
 495.333984375 270.668945312 494.666992188 213.168945312 492 157.501953125 c 0
 489.333007812 101.834960938 488.333007812 57.001953125 489 23.001953125 c 0
 487.666992188 9.001953125 481.333984375 -1.8310546875 470.000976562 -9.498046875 c 0
 458.66796875 -17.1650390625 446.66796875 -20.6650390625 434.000976562 -19.998046875 c 0
 422.66796875 -19.998046875 412.66796875 -15.998046875 404.000976562 -7.998046875 c 0
 395.333984375 0.001953125 391.666992188 12.001953125 393 28.001953125 c 0
 393.666992188 38.6689453125 394.5 53.8359375 395.5 73.5029296875 c 0
 396.5 93.169921875 397.5 115.669921875 398.5 141.002929688 c 0
 399.5 166.3359375 400.166992188 194.3359375 400.5 225.002929688 c 0
 400.833007812 255.669921875 401 287.336914062 401 320.00390625 c 1
 388.333007812 319.336914062 371.333007812 317.50390625 350 314.50390625 c 0
 328.666992188 311.50390625 306 308.170898438 282 304.50390625 c 0
 258 300.836914062 233.833007812 297.669921875 209.5 295.002929688 c 0
 185.166992188 292.3359375 164 291.002929688 146 291.002929688 c 1
 146 288.3359375 145.833007812 285.168945312 145.5 281.501953125 c 0
 145.166992188 277.834960938 145 274.66796875 145 272.000976562 c 0
 142.333007812 222.000976562 141.5 175.16796875 142.5 131.500976562 c 0
 143.5 87.833984375 144.333007812 51.6669921875 145 23 c 0
 143.666992188 9 137.333984375 -1.8330078125 126.000976562 -9.5 c 0
 114.66796875 -17.1669921875 102.66796875 -20.6669921875 90.0009765625 -20 c 0
 78.66796875 -20 68.66796875 -16 60.0009765625 -8 c 0
 51.333984375 0 47.6669921875 12 49 28 c 0
 50.3330078125 42.6669921875 51 68.6669921875 51 106 c 0
 51 143.333007812 51.3330078125 186.666015625 52 235.999023438 c 0
 52.6669921875 281.999023438 53.6669921875 326.999023438 55 370.999023438 c 0
 56.3330078125 414.999023438 56.3330078125 457.999023438 55 499.999023438 c 0
 54.3330078125 517.33203125 54 531.499023438 54 542.499023438 c 0
 54 553.499023438 54.1669921875 562.999023438 54.5 570.999023438 c 0
 54.8330078125 578.999023438 55.3330078125 586.33203125 56 592.999023438 c 0
 56.6669921875 599.666015625 57 607.666015625 57 616.999023438 c 0
 57.6669921875 634.999023438 62.6669921875 647.999023438 72 655.999023438 c 0
 81.3330078125 663.999023438 91.666015625 667.999023438 102.999023438 667.999023438 c 0
 115.666015625 668.666015625 126.833007812 665.333007812 136.5 658 c 0
 146.166992188 650.666992188 151 638 151 620 c 0
EndSplineSet
EndChar

StartChar: I
Encoding: 73 73 42
Width: 550
GlyphClass: 1
Flags: W
LayerCount: 2
Fore
SplineSet
85 62 m 0
 104.333007812 62.6669921875 126.004882812 63.3310546875 150.004882812 63.998046875 c 0
 174.004882812 64.6650390625 198.337890625 65.33203125 223.004882812 65.9990234375 c 1
 223.671875 81.9990234375 224.671875 102.166015625 226.004882812 126.499023438 c 0
 227.337890625 150.83203125 228.170898438 177.665039062 228.50390625 206.998046875 c 0
 228.836914062 236.331054688 229.00390625 267.998046875 229.00390625 301.998046875 c 0
 229.00390625 335.998046875 228.670898438 370.331054688 228.00390625 404.998046875 c 0
 226.00390625 452.331054688 225.670898438 488.331054688 227.00390625 512.998046875 c 0
 228.336914062 537.665039062 229.336914062 561.33203125 230.00390625 583.999023438 c 1
 203.336914062 584.666015625 178.00390625 584.999023438 154.00390625 584.999023438 c 0
 130.00390625 584.999023438 110.00390625 584.666015625 94.00390625 583.999023438 c 0
 77.3369140625 583.33203125 65.169921875 586.83203125 57.5029296875 594.499023438 c 0
 49.8359375 602.166015625 46.0029296875 610.999023438 46.0029296875 620.999023438 c 0
 45.3359375 630.999023438 48.8359375 640.166015625 56.5029296875 648.499023438 c 0
 64.169921875 656.83203125 76.3369140625 661.33203125 93.00390625 661.999023438 c 0
 161.00390625 663.999023438 226.170898438 664.666015625 288.50390625 663.999023438 c 0
 350.836914062 663.33203125 409.00390625 660.33203125 463.00390625 654.999023438 c 0
 479.00390625 653.666015625 490.00390625 649.166015625 496.00390625 641.499023438 c 0
 502.00390625 633.83203125 505.336914062 625.665039062 506.00390625 616.998046875 c 0
 506.00390625 606.998046875 502.670898438 596.331054688 496.00390625 584.998046875 c 0
 489.336914062 573.665039062 477.669921875 569.33203125 461.002929688 571.999023438 c 0
 448.3359375 573.999023438 429.668945312 575.83203125 405.001953125 577.499023438 c 0
 380.334960938 579.166015625 353.334960938 580.666015625 324.001953125 581.999023438 c 1
 323.334960938 555.33203125 322.66796875 523.499023438 322.000976562 486.499023438 c 0
 321.333984375 449.499023438 321.666992188 403.999023438 323 349.999023438 c 0
 324.333007812 293.33203125 323.833007812 240.83203125 321.5 192.499023438 c 0
 319.166992188 144.166015625 318 102.333007812 318 67 c 1
 352 67 382.833007812 66.8330078125 410.5 66.5 c 0
 438.166992188 66.1669921875 457.333984375 66 468.000976562 66 c 0
 484.000976562 66 494.500976562 62.3330078125 499.500976562 55 c 0
 504.500976562 47.6669921875 507.333984375 39.6669921875 508.000976562 31 c 0
 508.000976562 21 505.500976562 11 500.500976562 1 c 0
 495.500976562 -9 484.66796875 -12.6669921875 468.000976562 -10 c 0
 450.000976562 -7.3330078125 423.66796875 -6 389.000976562 -6 c 0
 354.333984375 -6 318.000976562 -6.5 280.000976562 -7.5 c 0
 242.000976562 -8.5 205.16796875 -9.6669921875 169.500976562 -11 c 0
 133.833984375 -12.3330078125 106.333984375 -13 87.0009765625 -13 c 0
 70.333984375 -13 58.1669921875 -9.8330078125 50.5 -3.5 c 0
 42.8330078125 2.8330078125 39 11 39 21 c 0
 38.3330078125 31 41.5 40.1669921875 48.5 48.5 c 0
 55.5 56.8330078125 67.6669921875 61.3330078125 85 62 c 0
EndSplineSet
EndChar

StartChar: J
Encoding: 74 74 43
Width: 550
GlyphClass: 1
Flags: W
LayerCount: 2
Fore
SplineSet
103 662 m 0
 171 664 236.177734375 664.665039062 298.510742188 663.998046875 c 0
 360.84375 663.331054688 419.010742188 660.331054688 473.010742188 654.998046875 c 0
 489.010742188 653.665039062 500.010742188 649.165039062 506.010742188 641.498046875 c 0
 512.010742188 633.831054688 515.34375 625.6640625 516.010742188 616.997070312 c 0
 516.010742188 606.997070312 512.677734375 596.330078125 506.010742188 584.997070312 c 0
 499.34375 573.6640625 487.676757812 569.331054688 471.009765625 571.998046875 c 0
 461.009765625 573.331054688 447.176757812 574.831054688 429.509765625 576.498046875 c 0
 411.842773438 578.165039062 392.009765625 579.33203125 370.009765625 579.999023438 c 1
 370.009765625 556.666015625 370.676757812 529.166015625 372.009765625 497.499023438 c 0
 373.342773438 465.83203125 374.509765625 432.999023438 375.509765625 398.999023438 c 0
 376.509765625 364.999023438 377.009765625 330.83203125 377.009765625 296.499023438 c 0
 377.009765625 262.166015625 376.009765625 230.333007812 374.009765625 201 c 0
 367.342773438 115.666992188 354.67578125 55.333984375 336.008789062 20.0009765625 c 0
 317.341796875 -15.33203125 293.341796875 -32.9990234375 264.008789062 -32.9990234375 c 0
 230.67578125 -32.9990234375 200.67578125 -24.666015625 174.008789062 -7.9990234375 c 0
 147.341796875 8.66796875 124.674804688 27.66796875 106.0078125 49.0009765625 c 0
 87.3408203125 70.333984375 72.673828125 91.6669921875 62.0068359375 113 c 0
 51.33984375 134.333007812 45.33984375 150 44.0068359375 160 c 0
 42.673828125 171.333007812 43.673828125 185.166015625 47.0068359375 201.499023438 c 0
 50.33984375 217.83203125 61.6728515625 227.33203125 81.005859375 229.999023438 c 0
 95.6728515625 232.666015625 107.005859375 229.833007812 115.005859375 221.5 c 0
 123.005859375 213.166992188 127.005859375 203.333984375 127.005859375 192.000976562 c 0
 127.005859375 184.66796875 128.838867188 173.834960938 132.505859375 159.501953125 c 0
 136.172851562 145.168945312 142.672851562 130.8359375 152.005859375 116.502929688 c 0
 161.338867188 102.169921875 174.171875 89.5029296875 190.504882812 78.5029296875 c 0
 206.837890625 67.5029296875 227.670898438 62.0029296875 253.00390625 62.0029296875 c 0
 264.336914062 62.0029296875 273.169921875 76.5029296875 279.502929688 105.502929688 c 0
 285.8359375 134.502929688 289.668945312 174.002929688 291.001953125 224.002929688 c 0
 291.668945312 253.3359375 291.168945312 295.168945312 289.501953125 349.501953125 c 0
 287.834960938 403.834960938 287.66796875 481.66796875 289.000976562 583.000976562 c 1
 253.66796875 583.66796875 219.16796875 584.16796875 185.500976562 584.500976562 c 0
 151.833984375 584.833984375 124.666992188 584.666992188 104 584 c 0
 87.3330078125 583.333007812 75.166015625 586.833007812 67.4990234375 594.5 c 0
 59.83203125 602.166992188 55.9990234375 611 55.9990234375 621 c 0
 55.33203125 631 58.83203125 640.166992188 66.4990234375 648.5 c 0
 74.166015625 656.833007812 86.3330078125 661.333007812 103 662 c 0
EndSplineSet
EndChar

StartChar: K
Encoding: 75 75 44
Width: 550
GlyphClass: 1
Flags: W
LayerCount: 2
Fore
SplineSet
419 4 m 0
 412.333007812 12 397.001953125 27.1669921875 373.001953125 49.5 c 0
 349.001953125 71.8330078125 322.168945312 96.666015625 292.501953125 123.999023438 c 0
 262.834960938 151.33203125 233.001953125 179.499023438 203.001953125 208.499023438 c 0
 173.001953125 237.499023438 149.001953125 262.666015625 131.001953125 283.999023438 c 1
 131.001953125 264.999023438 l 2
 132.334960938 212.999023438 133.834960938 167.166015625 135.501953125 127.499023438 c 0
 137.168945312 87.83203125 138.3359375 52.9990234375 139.002929688 22.9990234375 c 0
 137.669921875 8.9990234375 131.336914062 -1.833984375 120.00390625 -9.5009765625 c 0
 108.670898438 -17.16796875 96.6708984375 -20.66796875 84.00390625 -20.0009765625 c 0
 72.6708984375 -20.0009765625 62.6708984375 -16.0009765625 54.00390625 -8.0009765625 c 0
 45.3369140625 -0.0009765625 41.669921875 11.9990234375 43.0029296875 27.9990234375 c 0
 43.669921875 41.33203125 44.169921875 61.83203125 44.5029296875 89.4990234375 c 0
 44.8359375 117.166015625 44.8359375 148.999023438 44.5029296875 184.999023438 c 0
 44.169921875 220.999023438 43.5029296875 259.83203125 42.5029296875 301.499023438 c 0
 41.5029296875 343.166015625 40.3359375 384.333007812 39.0029296875 425 c 0
 37.0029296875 471.666992188 36.669921875 509.5 38.0029296875 538.5 c 0
 39.3359375 567.5 40.3359375 593.666992188 41.0029296875 617 c 0
 41.669921875 635 46.669921875 648 56.0029296875 656 c 0
 65.3359375 664 75.6689453125 668 87.001953125 668 c 0
 99.6689453125 668.666992188 110.8359375 665.333984375 120.502929688 658.000976562 c 0
 130.169921875 650.66796875 135.002929688 638.000976562 135.002929688 620.000976562 c 0
 135.002929688 596.000976562 134.3359375 564.500976562 133.002929688 525.500976562 c 0
 131.669921875 486.500976562 130.669921875 443.333984375 130.002929688 396.000976562 c 1
 155.3359375 420.66796875 182.002929688 446.66796875 210.002929688 474.000976562 c 0
 238.002929688 501.333984375 264.3359375 527.000976562 289.002929688 551.000976562 c 0
 313.669921875 575.000976562 335.336914062 596.000976562 354.00390625 614.000976562 c 0
 372.670898438 632.000976562 385.00390625 643.66796875 391.00390625 649.000976562 c 0
 404.336914062 661.66796875 416.50390625 667.834960938 427.50390625 667.501953125 c 0
 438.50390625 667.168945312 447.336914062 663.668945312 454.00390625 657.001953125 c 0
 460.670898438 649.668945312 464.00390625 640.668945312 464.00390625 630.001953125 c 0
 464.00390625 619.334960938 458.00390625 606.66796875 446.00390625 592.000976562 c 0
 441.336914062 586.66796875 430.00390625 574.66796875 412.00390625 556.000976562 c 0
 394.00390625 537.333984375 372.836914062 515.833984375 348.50390625 491.500976562 c 2
 271.00390625 414.000976562 l 2
 243.670898438 386.66796875 218.670898438 362.000976562 196.00390625 340.000976562 c 1
 216.670898438 318.66796875 243.50390625 292.500976562 276.50390625 261.500976562 c 0
 309.50390625 230.500976562 341.670898438 200.16796875 373.00390625 170.500976562 c 0
 404.336914062 140.833984375 432.169921875 113.833984375 456.502929688 89.5009765625 c 0
 480.8359375 65.16796875 494.668945312 49.0009765625 498.001953125 41.0009765625 c 0
 502.668945312 30.333984375 502.668945312 20.0009765625 498.001953125 10.0009765625 c 0
 493.334960938 0.0009765625 487.66796875 -7.33203125 481.000976562 -11.9990234375 c 0
 471.66796875 -18.666015625 461.66796875 -20.8330078125 451.000976562 -18.5 c 0
 440.333984375 -16.1669921875 429.666992188 -8.6669921875 419 4 c 0
EndSplineSet
EndChar

StartChar: L
Encoding: 76 76 45
Width: 550
GlyphClass: 1
Flags: W
LayerCount: 2
Fore
SplineSet
466 9 m 0
 440.666992188 4.3330078125 407.834960938 0.4990234375 367.501953125 -2.5009765625 c 0
 327.168945312 -5.5009765625 287.168945312 -7.833984375 247.501953125 -9.5009765625 c 0
 207.834960938 -11.16796875 172.334960938 -12.3349609375 141.001953125 -13.001953125 c 0
 109.668945312 -13.6689453125 90.6689453125 -14.001953125 84.001953125 -14.001953125 c 0
 72.6689453125 -14.001953125 62.6689453125 -10.001953125 54.001953125 -2.001953125 c 0
 45.3349609375 5.998046875 41.66796875 17.998046875 43.0009765625 33.998046875 c 0
 45.0009765625 62.6650390625 48.833984375 100.33203125 54.5009765625 146.999023438 c 0
 60.16796875 193.666015625 65.0009765625 255.666015625 69.0009765625 332.999023438 c 0
 69.66796875 354.33203125 70.0009765625 378.83203125 70.0009765625 406.499023438 c 0
 70.0009765625 434.166015625 69.833984375 461.166015625 69.5009765625 487.499023438 c 0
 69.16796875 513.83203125 68.8349609375 537.999023438 68.501953125 559.999023438 c 0
 68.1689453125 581.999023438 68.001953125 598.33203125 68.001953125 608.999023438 c 0
 68.6689453125 626.999023438 73.6689453125 639.999023438 83.001953125 647.999023438 c 0
 92.3349609375 655.999023438 102.66796875 659.999023438 114.000976562 659.999023438 c 0
 126.66796875 660.666015625 137.834960938 657.333007812 147.501953125 650 c 0
 157.168945312 642.666992188 162.001953125 630 162.001953125 612 c 0
 162.001953125 581.333007812 160.834960938 538 158.501953125 482 c 0
 156.168945312 426 154.001953125 364.333007812 152.001953125 297 c 0
 150.668945312 253 148.168945312 213.166992188 144.501953125 177.5 c 0
 140.834960938 141.833007812 139.001953125 105 139.001953125 67 c 1
 167.668945312 67 198.668945312 67.8330078125 232.001953125 69.5 c 0
 265.334960938 71.1669921875 297.16796875 73.5 327.500976562 76.5 c 0
 357.833984375 79.5 385.000976562 82.6669921875 409.000976562 86 c 0
 433.000976562 89.3330078125 450.000976562 92.3330078125 460.000976562 95 c 0
 475.333984375 99 486.666992188 95 494 83 c 0
 501.333007812 71 505.333007812 60 506 50 c 0
 506 40 503.5 31.3330078125 498.5 24 c 0
 493.5 16.6669921875 482.666992188 11.6669921875 466 9 c 0
EndSplineSet
EndChar

StartChar: M
Encoding: 77 77 46
Width: 550
GlyphClass: 1
Flags: W
LayerCount: 2
Fore
SplineSet
325 16 m 0
 321 7.3330078125 313.993164062 1.3388671875 303.993164062 -1.994140625 c 0
 293.993164062 -5.3271484375 283.66015625 -6.994140625 272.993164062 -6.994140625 c 0
 260.326171875 -7.6611328125 249.993164062 -5.6611328125 241.993164062 -0.994140625 c 0
 233.993164062 3.6728515625 228.993164062 10.005859375 226.993164062 18.005859375 c 0
 222.993164062 34.005859375 217.493164062 61.8388671875 210.493164062 101.505859375 c 0
 203.493164062 141.172851562 196.16015625 185.505859375 188.493164062 234.505859375 c 0
 180.826171875 283.505859375 172.826171875 334.672851562 164.493164062 388.005859375 c 0
 156.16015625 441.338867188 148.993164062 489.671875 142.993164062 533.004882812 c 1
 138.326171875 491.004882812 134.493164062 445.837890625 131.493164062 397.504882812 c 0
 128.493164062 349.171875 124.993164062 295.671875 120.993164062 237.004882812 c 0
 118.326171875 189.671875 115.159179688 150.671875 111.4921875 120.004882812 c 0
 107.825195312 89.337890625 106.325195312 67.6708984375 106.9921875 55.00390625 c 0
 107.659179688 34.3369140625 103.326171875 18.3369140625 93.9931640625 7.00390625 c 0
 84.66015625 -4.3291015625 74.3271484375 -9.662109375 62.994140625 -8.9951171875 c 0
 49.6611328125 -8.328125 40.6611328125 -1.328125 35.994140625 12.0048828125 c 0
 31.3271484375 25.337890625 28.994140625 41.337890625 28.994140625 60.0048828125 c 0
 28.994140625 72.671875 30.994140625 96.5048828125 34.994140625 131.504882812 c 0
 38.994140625 166.504882812 42.6611328125 204.671875 45.994140625 246.004882812 c 0
 48.6611328125 279.337890625 51.6611328125 316.170898438 54.994140625 356.50390625 c 0
 58.3271484375 396.836914062 61.8271484375 435.00390625 65.494140625 471.00390625 c 0
 69.1611328125 507.00390625 73.1611328125 538.836914062 77.494140625 566.50390625 c 0
 81.8271484375 594.170898438 86.3271484375 612.670898438 90.994140625 622.00390625 c 0
 97.6611328125 636.00390625 107.828125 645.670898438 121.495117188 651.00390625 c 0
 135.162109375 656.336914062 147.329101562 658.669921875 157.99609375 658.002929688 c 0
 166.663085938 658.002929688 176.330078125 656.002929688 186.997070312 652.002929688 c 0
 197.6640625 648.002929688 204.997070312 638.669921875 208.997070312 624.002929688 c 0
 214.997070312 600.669921875 221.330078125 566.836914062 227.997070312 522.50390625 c 0
 234.6640625 478.170898438 240.997070312 431.00390625 246.997070312 381.00390625 c 0
 252.997070312 331.00390625 258.830078125 281.50390625 264.497070312 232.50390625 c 0
 270.1640625 183.50390625 275.331054688 142.670898438 279.998046875 110.00390625 c 1
 281.998046875 136.670898438 284.831054688 171.00390625 288.498046875 213.00390625 c 0
 292.165039062 255.00390625 296.33203125 300.00390625 300.999023438 348.00390625 c 0
 304.33203125 377.336914062 308.165039062 406.336914062 312.498046875 435.00390625 c 0
 316.831054688 463.670898438 321.331054688 490.337890625 325.998046875 515.004882812 c 0
 330.665039062 539.671875 334.998046875 561.504882812 338.998046875 580.504882812 c 0
 342.998046875 599.504882812 346.331054688 614.004882812 348.998046875 624.004882812 c 0
 352.998046875 638.671875 362.165039062 648.171875 376.498046875 652.504882812 c 0
 390.831054688 656.837890625 403.331054688 658.670898438 413.998046875 658.00390625 c 0
 422.665039062 658.00390625 434.33203125 656.670898438 448.999023438 654.00390625 c 0
 463.666015625 651.336914062 472.333007812 639.669921875 475 619.002929688 c 0
 477.666992188 601.002929688 481 564.8359375 485 510.502929688 c 0
 489 456.169921875 493.166992188 398.669921875 497.5 338.002929688 c 0
 501.833007812 277.3359375 506.166015625 220.668945312 510.499023438 168.001953125 c 0
 514.83203125 115.334960938 518.665039062 81.66796875 521.998046875 67.0009765625 c 0
 526.665039062 47.66796875 526.998046875 32.16796875 522.998046875 20.5009765625 c 0
 518.998046875 8.833984375 511.998046875 0.6669921875 501.998046875 -4 c 0
 491.331054688 -8.6669921875 480.1640625 -8.333984375 468.497070312 -3.0009765625 c 0
 456.830078125 2.33203125 447.663085938 15.33203125 440.99609375 35.9990234375 c 0
 436.99609375 49.33203125 433.163085938 76.4990234375 429.49609375 117.499023438 c 0
 425.829101562 158.499023438 422.49609375 205.499023438 419.49609375 258.499023438 c 0
 416.49609375 311.499023438 413.829101562 366.83203125 411.49609375 424.499023438 c 0
 409.163085938 482.166015625 407.330078125 534.666015625 405.997070312 581.999023438 c 1
 400.6640625 554.666015625 394.331054688 518.833007812 386.998046875 474.5 c 0
 379.665039062 430.166992188 374.33203125 384 370.999023438 336 c 0
 368.33203125 298.666992188 364.83203125 262.166992188 360.499023438 226.5 c 0
 356.166015625 190.833007812 351.833007812 158.5 347.5 129.5 c 0
 343.166992188 100.5 339 76 335 56 c 0
 331 36 327.666992188 22.6669921875 325 16 c 0
EndSplineSet
EndChar

StartChar: N
Encoding: 78 78 47
Width: 550
GlyphClass: 1
Flags: W
LayerCount: 2
Fore
SplineSet
488 10 m 0
 484 1.3330078125 476.997070312 -4.6630859375 466.997070312 -7.99609375 c 0
 456.997070312 -11.3291015625 446.6640625 -12.99609375 435.997070312 -12.99609375 c 0
 423.330078125 -13.6630859375 413.163085938 -11.330078125 405.49609375 -5.9970703125 c 0
 397.829101562 -0.6640625 392.662109375 5.3359375 389.995117188 12.0029296875 c 0
 382.662109375 28.0029296875 367.662109375 55.5029296875 344.995117188 94.5029296875 c 0
 322.328125 133.502929688 297.328125 177.669921875 269.995117188 227.002929688 c 0
 242.662109375 276.3359375 215.662109375 327.502929688 188.995117188 380.502929688 c 0
 162.328125 433.502929688 140.995117188 482.002929688 124.995117188 526.002929688 c 1
 127.662109375 482.002929688 128.995117188 434.8359375 128.995117188 384.502929688 c 0
 128.995117188 334.169921875 128.495117188 286.502929688 127.495117188 241.502929688 c 0
 126.495117188 196.502929688 125.328125 156.169921875 123.995117188 120.502929688 c 0
 122.662109375 84.8359375 122.329101562 60.0029296875 122.99609375 46.0029296875 c 0
 123.663085938 25.3359375 119.330078125 10.5029296875 109.997070312 1.5029296875 c 0
 100.6640625 -7.4970703125 90.3310546875 -11.6640625 78.998046875 -10.9970703125 c 0
 65.6650390625 -10.330078125 56.6650390625 -4.4970703125 51.998046875 6.5029296875 c 0
 47.3310546875 17.5029296875 44.998046875 32.3359375 44.998046875 51.0029296875 c 0
 44.998046875 67.669921875 45.6650390625 100.002929688 46.998046875 148.002929688 c 0
 48.3310546875 196.002929688 49.498046875 248.169921875 50.498046875 304.502929688 c 0
 51.498046875 360.8359375 52.1650390625 416.168945312 52.498046875 470.501953125 c 0
 52.8310546875 524.834960938 51.998046875 567.334960938 49.998046875 598.001953125 c 0
 48.6650390625 624.001953125 55.498046875 641.001953125 70.498046875 649.001953125 c 0
 85.498046875 657.001953125 100.665039062 660.001953125 115.998046875 658.001953125 c 0
 124.665039062 658.001953125 134.165039062 656.001953125 144.498046875 652.001953125 c 0
 154.831054688 648.001953125 162.331054688 638.668945312 166.998046875 624.001953125 c 0
 174.331054688 601.334960938 188.831054688 567.834960938 210.498046875 523.501953125 c 0
 232.165039062 479.168945312 256.165039062 432.501953125 282.498046875 383.501953125 c 0
 308.831054688 334.501953125 335.1640625 286.668945312 361.497070312 240.001953125 c 0
 387.830078125 193.334960938 409.330078125 156.334960938 425.997070312 129.001953125 c 1
 426.6640625 159.668945312 427.1640625 198.168945312 427.497070312 244.501953125 c 0
 427.830078125 290.834960938 427.830078125 337.501953125 427.497070312 384.501953125 c 0
 427.1640625 431.501953125 426.331054688 475.334960938 424.998046875 516.001953125 c 0
 423.665039062 556.668945312 421.665039062 586.668945312 418.998046875 606.001953125 c 0
 416.998046875 621.334960938 419.998046875 634.001953125 427.998046875 644.001953125 c 0
 435.998046875 654.001953125 445.998046875 659.001953125 457.998046875 659.001953125 c 0
 475.998046875 659.001953125 487.165039062 654.834960938 491.498046875 646.501953125 c 0
 495.831054688 638.168945312 499.331054688 625.3359375 501.998046875 608.002929688 c 0
 502.665039062 602.002929688 503.33203125 569.669921875 503.999023438 511.002929688 c 0
 504.666015625 452.3359375 504.666015625 388.168945312 503.999023438 318.501953125 c 0
 503.33203125 248.834960938 501.83203125 183.16796875 499.499023438 121.500976562 c 0
 497.166015625 59.833984375 493.333007812 22.6669921875 488 10 c 0
EndSplineSet
EndChar

StartChar: O
Encoding: 79 79 48
Width: 550
GlyphClass: 1
Flags: W
LayerCount: 2
Fore
SplineSet
245 -23 m 0
 215.666992188 -22.3330078125 188.833984375 -15.3330078125 164.500976562 -2 c 0
 140.16796875 11.3330078125 119.334960938 29.5 102.001953125 52.5 c 0
 84.6689453125 75.5 71.1689453125 102.333007812 61.501953125 133 c 0
 51.8349609375 163.666992188 47.3349609375 196 48.001953125 230 c 0
 48.001953125 270 49.1689453125 317.5 51.501953125 372.5 c 0
 53.8349609375 427.5 64.66796875 480.666992188 84.0009765625 532 c 0
 99.333984375 572 126.666992188 605.166992188 166 631.5 c 0
 205.333007812 657.833007812 250 671 300 671 c 0
 324.666992188 671 348.5 666.166992188 371.5 656.5 c 0
 394.5 646.833007812 415 632.833007812 433 614.5 c 0
 451 596.166992188 466.166992188 573.333984375 478.5 546.000976562 c 0
 490.833007812 518.66796875 498.333007812 487.334960938 501 452.001953125 c 0
 503 430.001953125 504.333007812 405.334960938 505 378.001953125 c 0
 505.666992188 350.668945312 505.666992188 323.501953125 505 296.501953125 c 0
 504.333007812 269.501953125 502.833007812 243.668945312 500.5 219.001953125 c 0
 498.166992188 194.334960938 494.666992188 173.66796875 490 157.000976562 c 0
 480 120.333984375 467.166992188 90.1669921875 451.5 66.5 c 0
 435.833007812 42.8330078125 417.833007812 24.5 397.5 11.5 c 0
 377.166992188 -1.5 354.166992188 -10.5 328.5 -15.5 c 0
 302.833007812 -20.5 275 -23 245 -23 c 0
245 56 m 0
 277 56 308.002929688 64.66796875 338.002929688 82.0009765625 c 0
 368.002929688 99.333984375 389.3359375 128.666992188 402.002929688 170 c 0
 403.3359375 174.666992188 405.168945312 186.5 407.501953125 205.5 c 0
 409.834960938 224.5 411.834960938 247.333007812 413.501953125 274 c 0
 415.168945312 300.666992188 416.168945312 329.5 416.501953125 360.5 c 0
 416.834960938 391.5 415.66796875 421.666992188 413.000976562 451 c 0
 409.66796875 491 396.500976562 525 373.500976562 553 c 0
 350.500976562 581 322.333984375 595 289.000976562 595 c 0
 254.333984375 595 225.833984375 582.166992188 203.500976562 556.5 c 0
 181.16796875 530.833007812 165.000976562 497 155.000976562 455 c 0
 147.000976562 421.666992188 142.000976562 387.333984375 140.000976562 352.000976562 c 0
 138.000976562 316.66796875 137.66796875 281.000976562 139.000976562 245.000976562 c 0
 139.66796875 222.333984375 142.000976562 199.666992188 146.000976562 177 c 0
 150.000976562 154.333007812 156.000976562 134 164.000976562 116 c 0
 172.000976562 98 182.66796875 83.5 196.000976562 72.5 c 0
 209.333984375 61.5 225.666992188 56 245 56 c 0
EndSplineSet
EndChar

StartChar: P
Encoding: 80 80 49
Width: 550
GlyphClass: 1
Flags: W
LayerCount: 2
Fore
SplineSet
258 215 m 0
 231.333007812 215 208.670898438 216.00390625 190.00390625 218.00390625 c 0
 171.336914062 220.00390625 155.669921875 222.336914062 143.002929688 225.00390625 c 1
 145.002929688 181.00390625 147.3359375 143.170898438 150.002929688 111.50390625 c 0
 152.669921875 79.8369140625 155.002929688 50.3369140625 157.002929688 23.00390625 c 0
 157.669921875 9.00390625 152.169921875 -1.49609375 140.502929688 -8.49609375 c 0
 128.8359375 -15.49609375 116.668945312 -18.6630859375 104.001953125 -17.99609375 c 0
 92.6689453125 -17.3291015625 82.3359375 -13.49609375 73.0029296875 -6.49609375 c 0
 63.669921875 0.50390625 59.669921875 12.00390625 61.0029296875 28.00390625 c 0
 61.669921875 41.3369140625 62.0029296875 62.00390625 62.0029296875 90.00390625 c 0
 62.0029296875 118.00390625 61.669921875 150.00390625 61.0029296875 186.00390625 c 0
 60.3359375 222.00390625 59.5029296875 261.00390625 58.5029296875 303.00390625 c 0
 57.5029296875 345.00390625 56.669921875 386.336914062 56.0029296875 427.00390625 c 0
 55.3359375 471.00390625 55.1689453125 503.670898438 55.501953125 525.00390625 c 0
 55.8349609375 546.336914062 56.3349609375 567.336914062 57.001953125 588.00390625 c 1
 54.501953125 590.50390625 l 1
 52.001953125 593.00390625 l 2
 44.001953125 603.670898438 43.501953125 615.00390625 50.501953125 627.00390625 c 0
 57.501953125 639.00390625 65.3349609375 646.00390625 74.001953125 648.00390625 c 0
 86.6689453125 650.670898438 103.001953125 653.170898438 123.001953125 655.50390625 c 0
 143.001953125 657.836914062 162.668945312 659.669921875 182.001953125 661.002929688 c 0
 201.334960938 662.3359375 218.66796875 663.3359375 234.000976562 664.002929688 c 0
 249.333984375 664.669921875 259.333984375 665.002929688 264.000976562 665.002929688 c 0
 295.333984375 665.002929688 324.666992188 660.669921875 352 652.002929688 c 0
 379.333007812 643.3359375 402.833007812 630.668945312 422.5 614.001953125 c 0
 442.166992188 597.334960938 457.666992188 576.501953125 469 551.501953125 c 0
 480.333007812 526.501953125 486.333007812 498.001953125 487 466.001953125 c 0
 487 431.334960938 481.5 398.66796875 470.5 368.000976562 c 0
 459.5 337.333984375 443.833007812 310.666992188 423.5 288 c 0
 403.166992188 265.333007812 379 247.5 351 234.5 c 0
 323 221.5 292 215 258 215 c 0
264.004882812 589.00390625 m 0
 252.671875 589.00390625 235.505859375 588.169921875 212.505859375 586.502929688 c 0
 189.505859375 584.8359375 167.338867188 583.002929688 146.005859375 581.002929688 c 1
 145.338867188 550.3359375 144.171875 510.8359375 142.504882812 462.502929688 c 0
 140.837890625 414.169921875 140.337890625 361.669921875 141.004882812 305.002929688 c 1
 150.337890625 301.669921875 161.837890625 298.502929688 175.504882812 295.502929688 c 0
 189.171875 292.502929688 207.338867188 291.002929688 230.005859375 291.002929688 c 0
 271.338867188 291.002929688 303.505859375 297.3359375 326.505859375 310.002929688 c 0
 349.505859375 322.669921875 366.505859375 338.169921875 377.505859375 356.502929688 c 0
 388.505859375 374.8359375 395.172851562 394.502929688 397.505859375 415.502929688 c 0
 399.838867188 436.502929688 401.005859375 455.3359375 401.005859375 472.002929688 c 0
 401.005859375 494.669921875 396.172851562 513.669921875 386.505859375 529.002929688 c 0
 376.838867188 544.3359375 365.171875 556.3359375 351.504882812 565.002929688 c 0
 337.837890625 573.669921875 323.004882812 579.836914062 307.004882812 583.50390625 c 0
 291.004882812 587.170898438 276.671875 589.00390625 264.004882812 589.00390625 c 0
EndSplineSet
EndChar

StartChar: Q
Encoding: 81 81 50
Width: 550
GlyphClass: 1
Flags: W
LayerCount: 2
Fore
SplineSet
269 -23 m 0
 233.666992188 -23 202.5 -16.1650390625 175.5 -2.498046875 c 0
 148.5 11.1689453125 125.833007812 29.501953125 107.5 52.501953125 c 0
 89.1669921875 75.501953125 75 102.501953125 65 133.501953125 c 0
 55 164.501953125 49.3330078125 196.668945312 48 230.001953125 c 0
 46.6669921875 268.668945312 47.6669921875 315.168945312 51 369.501953125 c 0
 54.3330078125 423.834960938 65.666015625 476.66796875 84.9990234375 528.000976562 c 0
 100.33203125 568.000976562 127.499023438 601.833984375 166.499023438 629.500976562 c 0
 205.499023438 657.16796875 249.999023438 671.000976562 299.999023438 671.000976562 c 0
 349.33203125 671.000976562 393.165039062 653.833984375 431.498046875 619.500976562 c 0
 469.831054688 585.16796875 492.998046875 529.334960938 500.998046875 452.001953125 c 0
 502.998046875 430.001953125 504.498046875 405.168945312 505.498046875 377.501953125 c 0
 506.498046875 349.834960938 506.665039062 322.16796875 505.998046875 294.500976562 c 0
 505.331054688 266.833984375 503.998046875 240.333984375 501.998046875 215.000976562 c 0
 499.998046875 189.66796875 497.331054688 168.66796875 493.998046875 152.000976562 c 0
 486.665039062 115.333984375 474.83203125 85.333984375 458.499023438 62.0009765625 c 0
 442.166015625 38.66796875 423.333007812 20.66796875 402 8.0009765625 c 1
 422.666992188 -21.9990234375 442.833984375 -49.33203125 462.500976562 -73.9990234375 c 0
 482.16796875 -98.666015625 497.334960938 -117.999023438 508.001953125 -131.999023438 c 0
 514.668945312 -141.33203125 515.168945312 -152.499023438 509.501953125 -165.499023438 c 0
 503.834960938 -178.499023438 497.66796875 -187.33203125 491.000976562 -191.999023438 c 0
 481.66796875 -198.666015625 471.16796875 -200.333007812 459.500976562 -197 c 0
 447.833984375 -193.666992188 437.666992188 -186.666992188 429 -176 c 0
 421 -166 406.666992188 -145.833007812 386 -115.5 c 0
 365.333007812 -85.1669921875 344.333007812 -53 323 -19 c 1
 314.333007812 -20.3330078125 305.333007812 -21.3330078125 296 -22 c 0
 286.666992188 -22.6669921875 277.666992188 -23 269 -23 c 0
269 56.001953125 m 2
 279 56.001953125 l 1
 272.333007812 68.6689453125 266.166015625 80.6689453125 260.499023438 92.001953125 c 0
 254.83203125 103.334960938 250.33203125 113.334960938 246.999023438 122.001953125 c 0
 239.666015625 141.334960938 237.166015625 157.501953125 239.499023438 170.501953125 c 0
 241.83203125 183.501953125 247.33203125 193.334960938 255.999023438 200.001953125 c 0
 263.999023438 206.668945312 273.166015625 209.001953125 283.499023438 207.001953125 c 0
 293.83203125 205.001953125 301.665039062 196.334960938 306.998046875 181.001953125 c 0
 312.998046875 164.334960938 320.165039062 147.501953125 328.498046875 130.501953125 c 0
 336.831054688 113.501953125 345.998046875 96.6689453125 355.998046875 80.001953125 c 1
 368.665039062 88.6689453125 379.498046875 100.001953125 388.498046875 114.001953125 c 0
 397.498046875 128.001953125 404.331054688 145.334960938 408.998046875 166.001953125 c 0
 409.665039062 170.668945312 410.998046875 182.668945312 412.998046875 202.001953125 c 0
 414.998046875 221.334960938 416.498046875 244.501953125 417.498046875 271.501953125 c 0
 418.498046875 298.501953125 418.831054688 327.834960938 418.498046875 359.501953125 c 0
 418.165039062 391.168945312 416.33203125 421.668945312 412.999023438 451.001953125 c 0
 408.33203125 495.001953125 394.83203125 530.001953125 372.499023438 556.001953125 c 0
 350.166015625 582.001953125 322.333007812 595.001953125 289 595.001953125 c 0
 254.333007812 595.001953125 225.666015625 582.501953125 202.999023438 557.501953125 c 0
 180.33203125 532.501953125 163.999023438 499.001953125 153.999023438 457.001953125 c 0
 145.999023438 423.668945312 140.83203125 388.501953125 138.499023438 351.501953125 c 0
 136.166015625 314.501953125 136.333007812 279.001953125 139 245.001953125 c 0
 141 218.334960938 145.5 193.501953125 152.5 170.501953125 c 0
 159.5 147.501953125 168.666992188 127.501953125 180 110.501953125 c 0
 191.333007812 93.501953125 204.5 80.1689453125 219.5 70.501953125 c 0
 234.5 60.8349609375 251 56.001953125 269 56.001953125 c 2
EndSplineSet
EndChar

StartChar: R
Encoding: 82 82 51
Width: 550
GlyphClass: 1
Flags: W
LayerCount: 2
Fore
SplineSet
427 7 m 0
 418.333007812 18.3330078125 404.5 34.1650390625 385.5 54.498046875 c 0
 366.5 74.8310546875 344 96.3310546875 318 118.998046875 c 0
 292 141.665039062 263.166992188 164.165039062 231.5 186.498046875 c 0
 199.833007812 208.831054688 167.333007812 227.331054688 134 241.998046875 c 1
 136.666992188 195.331054688 140 154.331054688 144 118.998046875 c 0
 148 83.6650390625 151 51.6650390625 153 22.998046875 c 0
 153.666992188 8.998046875 148.166992188 -1.501953125 136.5 -8.501953125 c 0
 124.833007812 -15.501953125 112.666015625 -18.6689453125 99.9990234375 -18.001953125 c 0
 88.666015625 -17.3349609375 78.3330078125 -13.501953125 69 -6.501953125 c 0
 59.6669921875 0.498046875 55.6669921875 11.998046875 57 27.998046875 c 0
 57.6669921875 41.998046875 58.5 54.998046875 59.5 66.998046875 c 0
 60.5 78.998046875 61.1669921875 93.6650390625 61.5 110.998046875 c 0
 61.8330078125 128.331054688 61.8330078125 150.1640625 61.5 176.497070312 c 0
 61.1669921875 202.830078125 60.6669921875 236.997070312 60 278.997070312 c 0
 59.3330078125 304.330078125 59.8330078125 330.330078125 61.5 356.997070312 c 0
 63.1669921875 383.6640625 63.333984375 419.6640625 62.0009765625 464.997070312 c 0
 61.333984375 494.997070312 59.6669921875 524.830078125 57 554.497070312 c 0
 54.3330078125 584.1640625 53 604.997070312 53 616.997070312 c 2
 53 621.997070312 l 2
 52.3330078125 627.330078125 53.166015625 632.830078125 55.4990234375 638.497070312 c 0
 57.83203125 644.1640625 60.9990234375 648.997070312 64.9990234375 652.997070312 c 0
 68.9990234375 657.6640625 73.9990234375 661.331054688 79.9990234375 663.998046875 c 0
 85.9990234375 666.665039062 92.33203125 667.998046875 98.9990234375 667.998046875 c 0
 104.33203125 667.998046875 109.499023438 667.331054688 114.499023438 665.998046875 c 0
 119.499023438 664.665039062 123.999023438 662.665039062 127.999023438 659.998046875 c 0
 194.666015625 656.665039062 251.666015625 646.998046875 298.999023438 630.998046875 c 0
 346.33203125 614.998046875 384.665039062 595.665039062 413.998046875 572.998046875 c 0
 443.331054688 550.331054688 464.831054688 525.498046875 478.498046875 498.498046875 c 0
 492.165039062 471.498046875 498.998046875 445.331054688 498.998046875 419.998046875 c 0
 498.998046875 391.998046875 492.831054688 368.831054688 480.498046875 350.498046875 c 0
 468.165039062 332.165039062 450.83203125 317.498046875 428.499023438 306.498046875 c 0
 406.166015625 295.498046875 379.333007812 286.998046875 348 280.998046875 c 0
 316.666992188 274.998046875 282.333984375 270.665039062 245.000976562 267.998046875 c 1
 278.333984375 250.665039062 309.500976562 231.83203125 338.500976562 211.499023438 c 0
 367.500976562 191.166015625 393.333984375 170.833007812 416.000976562 150.5 c 0
 438.66796875 130.166992188 457.66796875 110.833984375 473.000976562 92.5009765625 c 0
 488.333984375 74.16796875 499.333984375 58.0009765625 506.000976562 44.0009765625 c 0
 510.66796875 33.333984375 510.66796875 23.0009765625 506.000976562 13.0009765625 c 0
 501.333984375 3.0009765625 495.666992188 -4.33203125 489 -8.9990234375 c 0
 479.666992188 -15.666015625 469.5 -17.8330078125 458.5 -15.5 c 0
 447.5 -13.1669921875 437 -5.6669921875 427 7 c 0
146 464.999023438 m 0
 146 450.33203125 144.833007812 430.83203125 142.5 406.499023438 c 0
 140.166992188 382.166015625 138 358.666015625 136 335.999023438 c 1
 141.333007812 335.33203125 148.666015625 334.83203125 157.999023438 334.499023438 c 0
 167.33203125 334.166015625 179.665039062 334.333007812 194.998046875 335 c 0
 262.998046875 338.333007812 316.331054688 345 354.998046875 355 c 0
 393.665039062 365 412.998046875 385.333007812 412.998046875 416 c 0
 412.998046875 438.666992188 403.331054688 459.333984375 383.998046875 478.000976562 c 0
 364.665039062 496.66796875 340.998046875 513.16796875 312.998046875 527.500976562 c 0
 284.998046875 541.833984375 255.331054688 553.666992188 223.998046875 563 c 0
 192.665039062 572.333007812 165.33203125 579 141.999023438 583 c 1
 143.999023438 527 l 2
 144.666015625 508.333007812 145.333007812 487.666015625 146 464.999023438 c 0
EndSplineSet
EndChar

StartChar: S
Encoding: 83 83 52
Width: 550
GlyphClass: 1
Flags: W
LayerCount: 2
Fore
SplineSet
52 62 m 0
 43.3330078125 78.6669921875 40.6650390625 92.4970703125 43.998046875 103.497070312 c 0
 47.3310546875 114.497070312 53.998046875 122.330078125 63.998046875 126.997070312 c 0
 76.6650390625 132.330078125 87.6650390625 134.663085938 96.998046875 133.99609375 c 0
 106.331054688 133.329101562 116.6640625 124.662109375 127.997070312 107.995117188 c 0
 138.6640625 91.9951171875 153.6640625 78.662109375 172.997070312 67.9951171875 c 0
 192.330078125 57.328125 215.330078125 51.9951171875 241.997070312 51.9951171875 c 0
 260.6640625 51.9951171875 280.331054688 55.328125 300.998046875 61.9951171875 c 0
 321.665039062 68.662109375 340.665039062 78.162109375 357.998046875 90.4951171875 c 0
 375.331054688 102.828125 389.831054688 117.828125 401.498046875 135.495117188 c 0
 413.165039062 153.162109375 418.998046875 172.662109375 418.998046875 193.995117188 c 0
 418.998046875 208.662109375 416.831054688 223.329101562 412.498046875 237.99609375 c 0
 408.165039062 252.663085938 398.998046875 266.330078125 384.998046875 278.997070312 c 0
 370.998046875 291.6640625 350.165039062 302.997070312 322.498046875 312.997070312 c 0
 294.831054688 322.997070312 257.998046875 330.330078125 211.998046875 334.997070312 c 0
 189.331054688 337.6640625 169.1640625 343.6640625 151.497070312 352.997070312 c 0
 133.830078125 362.330078125 118.997070312 373.497070312 106.997070312 386.497070312 c 0
 94.9970703125 399.497070312 85.9970703125 413.6640625 79.9970703125 428.997070312 c 0
 73.9970703125 444.330078125 70.9970703125 458.997070312 70.9970703125 472.997070312 c 0
 70.9970703125 498.997070312 76.830078125 524.330078125 88.4970703125 548.997070312 c 0
 100.1640625 573.6640625 117.331054688 595.331054688 139.998046875 613.998046875 c 0
 162.665039062 632.665039062 190.83203125 647.83203125 224.499023438 659.499023438 c 0
 258.166015625 671.166015625 296.999023438 676.999023438 340.999023438 676.999023438 c 0
 347.666015625 676.999023438 356.999023438 676.666015625 368.999023438 675.999023438 c 0
 380.999023438 675.33203125 393.499023438 674.33203125 406.499023438 672.999023438 c 0
 419.499023438 671.666015625 431.83203125 669.999023438 443.499023438 667.999023438 c 0
 455.166015625 665.999023438 463.999023438 663.999023438 469.999023438 661.999023438 c 0
 482.666015625 657.33203125 491.333007812 650.165039062 496 640.498046875 c 0
 500.666992188 630.831054688 502.333984375 620.998046875 501.000976562 610.998046875 c 0
 499.000976562 595.665039062 491.500976562 587.498046875 478.500976562 586.498046875 c 0
 465.500976562 585.498046875 454.333984375 586.331054688 445.000976562 588.998046875 c 0
 431.66796875 592.331054688 417.500976562 595.498046875 402.500976562 598.498046875 c 0
 387.500976562 601.498046875 364.333984375 602.998046875 333.000976562 602.998046875 c 0
 312.333984375 602.998046875 291.833984375 600.498046875 271.500976562 595.498046875 c 0
 251.16796875 590.498046875 233.16796875 583.331054688 217.500976562 573.998046875 c 0
 201.833984375 564.665039062 189.166992188 553.498046875 179.5 540.498046875 c 0
 169.833007812 527.498046875 165 512.665039062 165 495.998046875 c 0
 165 472.665039062 175.333007812 452.498046875 196 435.498046875 c 0
 216.666992188 418.498046875 246.666992188 408.998046875 286 406.998046875 c 0
 330.666992188 404.998046875 367.666992188 397.498046875 397 384.498046875 c 0
 426.333007812 371.498046875 449.5 355.665039062 466.5 336.998046875 c 0
 483.5 318.331054688 495.333007812 297.831054688 502 275.498046875 c 0
 508.666992188 253.165039062 512 231.33203125 512 209.999023438 c 0
 512 173.33203125 504.5 140.33203125 489.5 110.999023438 c 0
 474.5 81.666015625 454.333007812 56.8330078125 429 36.5 c 0
 403.666992188 16.1669921875 374.5 0.5 341.5 -10.5 c 0
 308.5 -21.5 274 -27 238 -27 c 0
 192 -27 152.5 -17.8330078125 119.5 0.5 c 0
 86.5 18.8330078125 64 39.3330078125 52 62 c 0
EndSplineSet
EndChar

StartChar: T
Encoding: 84 84 53
Width: 550
GlyphClass: 1
Flags: W
LayerCount: 2
Fore
SplineSet
88 667 m 0
 100.666992188 665 122.673828125 663.166992188 154.006835938 661.5 c 0
 185.33984375 659.833007812 219.672851562 658.666015625 257.005859375 657.999023438 c 0
 294.338867188 657.33203125 332.171875 656.665039062 370.504882812 655.998046875 c 0
 408.837890625 655.331054688 441.337890625 654.998046875 468.004882812 654.998046875 c 0
 484.004882812 654.998046875 495.004882812 650.831054688 501.004882812 642.498046875 c 0
 507.004882812 634.165039062 510.337890625 625.665039062 511.004882812 616.998046875 c 0
 511.004882812 606.998046875 507.671875 596.831054688 501.004882812 586.498046875 c 0
 494.337890625 576.165039062 482.670898438 571.33203125 466.00390625 571.999023438 c 0
 453.336914062 572.666015625 434.169921875 573.499023438 408.502929688 574.499023438 c 0
 382.8359375 575.499023438 354.668945312 576.33203125 324.001953125 576.999023438 c 1
 324.001953125 544.999023438 324.501953125 504.666015625 325.501953125 455.999023438 c 0
 326.501953125 407.33203125 327.668945312 357.33203125 329.001953125 305.999023438 c 0
 330.334960938 254.666015625 331.66796875 204.333007812 333.000976562 155 c 0
 334.333984375 105.666992188 335.333984375 64.333984375 336.000976562 31.0009765625 c 0
 334.66796875 17.0009765625 328.334960938 6.16796875 317.001953125 -1.4990234375 c 0
 305.668945312 -9.166015625 293.668945312 -12.666015625 281.001953125 -11.9990234375 c 0
 269.668945312 -11.9990234375 259.668945312 -7.9990234375 251.001953125 0.0009765625 c 0
 242.334960938 8.0009765625 238.66796875 20.0009765625 240.000976562 36.0009765625 c 0
 241.333984375 56.0009765625 241.500976562 89.16796875 240.500976562 135.500976562 c 0
 239.500976562 181.833984375 238.16796875 231.833984375 236.500976562 285.500976562 c 0
 234.833984375 339.16796875 233.166992188 393.000976562 231.5 447.000976562 c 0
 229.833007812 501.000976562 229.333007812 545.333984375 230 580.000976562 c 1
 199.333007812 581.333984375 171.333007812 582.666992188 146 584 c 0
 120.666992188 585.333007812 101.666992188 587 89 589 c 0
 72.3330078125 591.666992188 60.166015625 596 52.4990234375 602 c 0
 44.83203125 608 40.9990234375 616 40.9990234375 626 c 0
 40.33203125 636 43.83203125 646 51.4990234375 656 c 0
 59.166015625 666 71.3330078125 669.666992188 88 667 c 0
EndSplineSet
EndChar

StartChar: U
Encoding: 85 85 54
Width: 550
GlyphClass: 1
Flags: W
LayerCount: 2
Fore
SplineSet
517 243 m 0
 515 192.333007812 505.495117188 149.500976562 488.495117188 114.500976562 c 0
 471.495117188 79.5009765625 450.828125 51.66796875 426.495117188 31.0009765625 c 0
 402.162109375 10.333984375 375.495117188 -4.4990234375 346.495117188 -13.4990234375 c 0
 317.495117188 -22.4990234375 290.662109375 -26.9990234375 265.995117188 -26.9990234375 c 0
 244.662109375 -26.9990234375 221.495117188 -22.83203125 196.495117188 -14.4990234375 c 0
 171.495117188 -6.166015625 148.162109375 7.5009765625 126.495117188 26.5009765625 c 0
 104.828125 45.5009765625 86.4951171875 71.16796875 71.4951171875 103.500976562 c 0
 56.4951171875 135.833984375 48.328125 175.666992188 46.9951171875 223 c 0
 46.328125 260.333007812 45.4951171875 297.5 44.4951171875 334.5 c 0
 43.4951171875 371.5 42.828125 406.5 42.4951171875 439.5 c 0
 42.162109375 472.5 42.162109375 503.5 42.4951171875 532.5 c 0
 42.828125 561.5 43.328125 587.333007812 43.9951171875 610 c 0
 44.662109375 627.333007812 49.8291015625 640.5 59.49609375 649.5 c 0
 69.1630859375 658.5 79.6630859375 663 90.99609375 663 c 0
 101.663085938 663 110.830078125 659.5 118.497070312 652.5 c 0
 126.1640625 645.5 129.997070312 633 129.997070312 615 c 2
 129.997070312 539 l 2
 129.997070312 502.333007812 130.330078125 463.5 130.997070312 422.5 c 0
 131.6640625 381.5 132.331054688 342.833007812 132.998046875 306.5 c 0
 133.665039062 270.166992188 134.33203125 245.333984375 134.999023438 232.000976562 c 0
 136.33203125 212.000976562 139.499023438 191.66796875 144.499023438 171.000976562 c 0
 149.499023438 150.333984375 157.33203125 131.666992188 167.999023438 115 c 0
 178.666015625 98.3330078125 192.499023438 84.666015625 209.499023438 73.9990234375 c 0
 226.499023438 63.33203125 247.666015625 57.9990234375 272.999023438 57.9990234375 c 0
 314.999023438 57.9990234375 350.499023438 72.33203125 379.499023438 100.999023438 c 0
 408.499023438 129.666015625 424.999023438 175.333007812 428.999023438 238 c 0
 430.999023438 266.666992188 432.33203125 299.5 432.999023438 336.5 c 0
 433.666015625 373.5 433.833007812 409.333007812 433.5 444 c 0
 433.166992188 478.666992188 432.833984375 510.5 432.500976562 539.5 c 0
 432.16796875 568.5 432.000976562 589.333007812 432.000976562 602 c 0
 432.000976562 631.333007812 436.500976562 649 445.500976562 655 c 0
 454.500976562 661 464.333984375 664 475.000976562 664 c 0
 486.333984375 664 496.000976562 659.5 504.000976562 650.5 c 0
 512.000976562 641.5 516.333984375 628.666992188 517.000976562 612 c 0
 519.000976562 572.666992188 520.16796875 520.166992188 520.500976562 454.5 c 0
 520.833984375 388.833007812 519.666992188 318.333007812 517 243 c 0
EndSplineSet
EndChar

StartChar: V
Encoding: 86 86 55
Width: 550
GlyphClass: 1
Flags: W
LayerCount: 2
Fore
SplineSet
503 661 m 0
 513 656.333007812 520.826171875 647.833984375 526.493164062 635.500976562 c 0
 532.16015625 623.16796875 530.993164062 608.000976562 522.993164062 590.000976562 c 0
 516.993164062 576.66796875 504.993164062 545.16796875 486.993164062 495.500976562 c 0
 468.993164062 445.833984375 449.66015625 391.166992188 428.993164062 331.5 c 0
 408.326171875 271.833007812 388.493164062 213.166015625 369.493164062 155.499023438 c 0
 350.493164062 97.83203125 337.326171875 54.33203125 329.993164062 24.9990234375 c 0
 325.993164062 10.33203125 319.326171875 0.4990234375 309.993164062 -4.5009765625 c 0
 300.66015625 -9.5009765625 290.66015625 -11.66796875 279.993164062 -11.0009765625 c 0
 271.326171875 -11.0009765625 261.493164062 -8.833984375 250.493164062 -4.5009765625 c 0
 239.493164062 -0.16796875 231.326171875 8.9990234375 225.993164062 22.9990234375 c 0
 212.66015625 56.9990234375 195.827148438 103.166015625 175.494140625 161.499023438 c 0
 155.161132812 219.83203125 135.161132812 278.165039062 115.494140625 336.498046875 c 0
 95.8271484375 394.831054688 78.494140625 447.998046875 63.494140625 495.998046875 c 0
 48.494140625 543.998046875 39.3271484375 575.331054688 35.994140625 589.998046875 c 0
 31.3271484375 609.331054688 30.994140625 624.831054688 34.994140625 636.498046875 c 0
 38.994140625 648.165039062 45.994140625 656.33203125 55.994140625 660.999023438 c 0
 66.6611328125 665.666015625 77.828125 665.333007812 89.4951171875 660 c 0
 101.162109375 654.666992188 110.329101562 641.666992188 116.99609375 621 c 0
 121.663085938 606.333007812 130.49609375 577.833007812 143.49609375 535.5 c 0
 156.49609375 493.166992188 170.829101562 446.666992188 186.49609375 396 c 0
 202.163085938 345.333007812 218.163085938 294.5 234.49609375 243.5 c 0
 250.829101562 192.5 264.329101562 151.333007812 274.99609375 120 c 1
 289.663085938 163.333007812 305.830078125 211.5 323.497070312 264.5 c 0
 341.1640625 317.5 357.831054688 368.166992188 373.498046875 416.5 c 0
 389.165039062 464.833007812 402.998046875 507.833007812 414.998046875 545.5 c 0
 426.998046875 583.166992188 434.998046875 608.333984375 438.998046875 621.000976562 c 0
 445.665039062 641.66796875 455.33203125 654.66796875 467.999023438 660.000976562 c 0
 480.666015625 665.333984375 492.333007812 665.666992188 503 661 c 0
EndSplineSet
EndChar

StartChar: W
Encoding: 87 87 56
Width: 550
GlyphClass: 1
Flags: W
LayerCount: 2
Fore
SplineSet
235 642 m 0
 239 650.666992188 246.006835938 656.665039062 256.006835938 659.998046875 c 0
 266.006835938 663.331054688 276.33984375 664.998046875 287.006835938 664.998046875 c 0
 299.673828125 665.665039062 310.006835938 663.665039062 318.006835938 658.998046875 c 0
 326.006835938 654.331054688 331.006835938 647.998046875 333.006835938 639.998046875 c 0
 335.673828125 628.665039062 338.840820312 610.83203125 342.5078125 586.499023438 c 0
 346.174804688 562.166015625 350.0078125 534.333007812 354.0078125 503 c 0
 358.0078125 471.666992188 362.0078125 437.666992188 366.0078125 401 c 0
 370.0078125 364.333007812 374.340820312 327.666015625 379.0078125 290.999023438 c 0
 383.0078125 258.33203125 387.5078125 226.33203125 392.5078125 194.999023438 c 0
 397.5078125 163.666015625 402.340820312 134.666015625 407.0078125 107.999023438 c 1
 413.0078125 157.33203125 418.340820312 210.83203125 423.0078125 268.499023438 c 0
 427.674804688 326.166015625 432.341796875 390.333007812 437.008789062 461 c 0
 439.67578125 497.666992188 441.508789062 528 442.508789062 552 c 0
 443.508789062 576 443.67578125 593 443.008789062 603 c 0
 442.341796875 623.666992188 446.674804688 639.666992188 456.0078125 651 c 0
 465.340820312 662.333007812 475.673828125 667.666015625 487.006835938 666.999023438 c 0
 500.33984375 666.33203125 509.33984375 659.33203125 514.006835938 645.999023438 c 0
 518.673828125 632.666015625 521.006835938 616.666015625 521.006835938 597.999023438 c 0
 521.006835938 587.999023438 520.173828125 569.33203125 518.506835938 541.999023438 c 0
 516.83984375 514.666015625 514.672851562 484.666015625 512.005859375 451.999023438 c 0
 508.672851562 413.999023438 505.005859375 372.166015625 501.005859375 326.499023438 c 0
 497.005859375 280.83203125 492.838867188 237.665039062 488.505859375 196.998046875 c 0
 484.172851562 156.331054688 479.505859375 120.1640625 474.505859375 88.4970703125 c 0
 469.505859375 56.830078125 464.338867188 35.9970703125 459.005859375 25.9970703125 c 0
 452.338867188 11.9970703125 442.171875 2.330078125 428.504882812 -3.0029296875 c 0
 414.837890625 -8.3359375 402.670898438 -10.6689453125 392.00390625 -10.001953125 c 0
 383.336914062 -10.001953125 373.669921875 -8.001953125 363.002929688 -4.001953125 c 0
 352.3359375 -0.001953125 345.002929688 9.3310546875 341.002929688 23.998046875 c 0
 335.002929688 47.3310546875 328.669921875 80.3310546875 322.002929688 122.998046875 c 0
 315.3359375 165.665039062 309.668945312 212.33203125 305.001953125 262.999023438 c 0
 302.334960938 288.33203125 299.834960938 314.33203125 297.501953125 340.999023438 c 0
 295.168945312 367.666015625 293.001953125 393.333007812 291.001953125 418 c 0
 289.001953125 442.666992188 287.001953125 466.166992188 285.001953125 488.5 c 0
 283.001953125 510.833007812 281.001953125 530.333007812 279.001953125 547 c 1
 276.334960938 515 272.334960938 473.166992188 267.001953125 421.5 c 0
 261.668945312 369.833007812 256.001953125 317.833007812 250.001953125 265.5 c 0
 244.001953125 213.166992188 238.001953125 164.5 232.001953125 119.5 c 0
 226.001953125 74.5 220.668945312 42.6669921875 216.001953125 24 c 0
 212.001953125 9.3330078125 202.668945312 -0.1669921875 188.001953125 -4.5 c 0
 173.334960938 -8.8330078125 160.66796875 -10.666015625 150.000976562 -9.9990234375 c 0
 141.333984375 -9.9990234375 129.666992188 -8.666015625 115 -5.9990234375 c 0
 100.333007812 -3.33203125 91.666015625 8.3349609375 88.9990234375 29.001953125 c 0
 87.666015625 41.001953125 84.3330078125 61.3349609375 79 90.001953125 c 0
 73.6669921875 118.668945312 69 151.668945312 65 189.001953125 c 0
 61 226.334960938 57.1669921875 266.16796875 53.5 308.500976562 c 0
 49.8330078125 350.833984375 46.166015625 391.000976562 42.4990234375 429.000976562 c 0
 38.83203125 467.000976562 35.6650390625 500.66796875 32.998046875 530.000976562 c 0
 30.3310546875 559.333984375 28.6640625 579.666992188 27.9970703125 591 c 0
 26.6640625 611 28.3310546875 627 32.998046875 639 c 0
 37.6650390625 651 44.998046875 659.333007812 54.998046875 664 c 0
 65.6650390625 668.666992188 77.498046875 668 90.498046875 662 c 0
 103.498046875 656 109.665039062 642.666992188 108.998046875 622 c 0
 108.998046875 610.666992188 109.831054688 591.166992188 111.498046875 563.5 c 0
 113.165039062 535.833007812 115.33203125 504 117.999023438 468 c 0
 120.666015625 432 123.833007812 392.666992188 127.5 350 c 0
 131.166992188 307.333007812 135 265.333007812 139 224 c 0
 141.666992188 196.666992188 144.5 170 147.5 144 c 0
 150.5 118 153.333007812 93.3330078125 156 70 c 1
 160.666992188 106 166.5 154.166992188 173.5 214.5 c 0
 180.5 274.833007812 187.833007812 334.666015625 195.5 393.999023438 c 0
 203.166992188 453.33203125 210.5 506.83203125 217.5 554.499023438 c 0
 224.5 602.166015625 230.333007812 631.333007812 235 642 c 0
EndSplineSet
EndChar

StartChar: X
Encoding: 88 88 57
Width: 550
GlyphClass: 1
Flags: W
LayerCount: 2
Fore
SplineSet
429 5 m 0
 419 15.6669921875 407.6640625 30.998046875 394.997070312 50.998046875 c 0
 382.330078125 70.998046875 369.330078125 92.8310546875 355.997070312 116.498046875 c 0
 342.6640625 140.165039062 328.831054688 164.83203125 314.498046875 190.499023438 c 0
 300.165039062 216.166015625 286.665039062 239.999023438 273.998046875 261.999023438 c 1
 260.665039062 242.666015625 245.83203125 219.499023438 229.499023438 192.499023438 c 0
 213.166015625 165.499023438 197.333007812 138.999023438 182 112.999023438 c 0
 166.666992188 86.9990234375 153 63.33203125 141 41.9990234375 c 0
 129 20.666015625 120.333007812 6.666015625 115 -0.0009765625 c 0
 103 -16.0009765625 91.3330078125 -23.5009765625 80 -22.5009765625 c 0
 68.6669921875 -21.5009765625 58.6669921875 -17.0009765625 50 -9.0009765625 c 0
 43.3330078125 -2.333984375 38.666015625 6.3330078125 35.9990234375 17 c 0
 33.33203125 27.6669921875 37.33203125 41.6669921875 47.9990234375 59 c 0
 54.666015625 70.3330078125 65.4990234375 87.166015625 80.4990234375 109.499023438 c 0
 95.4990234375 131.83203125 111.499023438 156.165039062 128.499023438 182.498046875 c 0
 145.499023438 208.831054688 162.666015625 235.6640625 179.999023438 262.997070312 c 0
 197.33203125 290.330078125 212.33203125 314.663085938 224.999023438 335.99609375 c 1
 210.999023438 357.329101562 195.999023438 379.829101562 179.999023438 403.49609375 c 0
 163.999023438 427.163085938 148.666015625 449.99609375 133.999023438 471.99609375 c 0
 119.33203125 493.99609375 105.83203125 514.49609375 93.4990234375 533.49609375 c 0
 81.166015625 552.49609375 71.3330078125 567.329101562 64 577.99609375 c 0
 53.3330078125 594.663085938 48.3330078125 608.830078125 49 620.497070312 c 0
 49.6669921875 632.1640625 54.333984375 641.331054688 63.0009765625 647.998046875 c 0
 71.66796875 654.665039062 83.0009765625 658.33203125 97.0009765625 658.999023438 c 0
 111.000976562 659.666015625 124.66796875 651.666015625 138.000976562 634.999023438 c 0
 144.66796875 626.33203125 154.16796875 612.665039062 166.500976562 593.998046875 c 0
 178.833984375 575.331054688 191.833984375 554.831054688 205.500976562 532.498046875 c 0
 219.16796875 510.165039062 233.16796875 487.33203125 247.500976562 463.999023438 c 0
 261.833984375 440.666015625 274.333984375 420.333007812 285.000976562 403 c 1
 295.66796875 422.333007812 307.834960938 444 321.501953125 468 c 0
 335.168945312 492 348.3359375 515.166992188 361.002929688 537.5 c 0
 373.669921875 559.833007812 385.669921875 580 397.002929688 598 c 0
 408.3359375 616 417.002929688 629.333007812 423.002929688 638 c 0
 433.669921875 653.333007812 445.169921875 661.5 457.502929688 662.5 c 0
 469.8359375 663.5 480.3359375 660.666992188 489.002929688 654 c 0
 496.3359375 648 501.3359375 639.5 504.002929688 628.5 c 0
 506.669921875 617.5 503.669921875 605 495.002929688 591 c 0
 488.3359375 579.666992188 478.168945312 563 464.501953125 541 c 0
 450.834960938 519 436.16796875 495.5 420.500976562 470.5 c 0
 404.833984375 445.5 389.333984375 420.5 374.000976562 395.5 c 0
 358.66796875 370.5 346.000976562 349.333007812 336.000976562 332 c 0
 335.333984375 331.333007812 334.666992188 330.5 334 329.5 c 0
 333.333007812 328.5 332.666015625 327.666992188 331.999023438 327 c 0
 346.666015625 303.666992188 361.833007812 279 377.5 253 c 0
 393.166992188 227 408.166992188 201.833007812 422.5 177.5 c 0
 436.833007812 153.166992188 450.333007812 130.666992188 463 110 c 0
 475.666992188 89.3330078125 486.333984375 73 495.000976562 61 c 0
 507.66796875 44.3330078125 514.16796875 30.8330078125 514.500976562 20.5 c 0
 514.833984375 10.1669921875 512.000976562 1.6669921875 506.000976562 -5 c 0
 498.66796875 -13.6669921875 488.16796875 -18.6669921875 474.500976562 -20 c 0
 460.833984375 -21.3330078125 445.666992188 -13 429 5 c 0
EndSplineSet
EndChar

StartChar: Y
Encoding: 89 89 58
Width: 550
GlyphClass: 1
Flags: W
LayerCount: 2
Fore
SplineSet
513 588 m 0
 507.666992188 575.333007812 501.33203125 562.5 493.999023438 549.5 c 0
 486.666015625 536.5 479.666015625 522 472.999023438 506 c 0
 464.33203125 485.333007812 452.999023438 462.833007812 438.999023438 438.5 c 0
 424.999023438 414.166992188 410.999023438 386.666992188 396.999023438 356 c 0
 375.666015625 308 349.833007812 254.166992188 319.5 194.5 c 0
 289.166992188 134.833007812 254.666992188 66.3330078125 216 -11 c 0
 210.666992188 -21.6669921875 201.666992188 -29.5 189 -34.5 c 0
 176.333007812 -39.5 164 -37.3330078125 152 -28 c 0
 143.333007812 -21.3330078125 137 -12.5 133 -1.5 c 0
 129 9.5 130.666992188 21.6669921875 138 35 c 0
 156 71 173.166992188 105.166992188 189.5 137.5 c 0
 205.833007812 169.833007812 221.333007812 200.333007812 236 229 c 1
 219.333007812 259.666992188 203.333007812 288 188 314 c 0
 172.666992188 340 158.666992188 365 146 389 c 0
 126.666992188 424.333007812 107.5 457.333007812 88.5 488 c 0
 69.5 518.666992188 54 550.333984375 42 583.000976562 c 0
 34 605.000976562 32.8330078125 622.000976562 38.5 634.000976562 c 0
 44.1669921875 646.000976562 52 654.333984375 62 659.000976562 c 0
 72.6669921875 664.333984375 85.333984375 665.000976562 100.000976562 661.000976562 c 0
 114.66796875 657.000976562 125.66796875 642.66796875 133.000976562 618.000976562 c 0
 144.333984375 580.66796875 158.333984375 547.000976562 175.000976562 517.000976562 c 0
 191.66796875 487.000976562 208.334960938 457.66796875 225.001953125 429.000976562 c 0
 235.668945312 410.333984375 245.668945312 391.833984375 255.001953125 373.500976562 c 0
 264.334960938 355.16796875 272.66796875 337.334960938 280.000976562 320.001953125 c 1
 289.500976562 339.001953125 l 2
 292.500976562 345.001953125 295.333984375 351.334960938 298.000976562 358.001953125 c 0
 314.000976562 393.334960938 330.16796875 426.66796875 346.500976562 458.000976562 c 0
 362.833984375 489.333984375 377.666992188 521.333984375 391 554.000976562 c 0
 395.666992188 565.333984375 401.166992188 576.666992188 407.5 588 c 0
 413.833007812 599.333007812 419.333007812 611.333007812 424 624 c 0
 432.666992188 646.666992188 443.5 660.333984375 456.5 665.000976562 c 0
 469.5 669.66796875 481.333007812 669.66796875 492 665.000976562 c 0
 500.666992188 660.333984375 508.5 651.666992188 515.5 639 c 0
 522.5 626.333007812 521.666992188 609.333007812 513 588 c 0
EndSplineSet
EndChar

StartChar: Z
Encoding: 90 90 59
Width: 550
GlyphClass: 1
Flags: W
LayerCount: 2
Fore
SplineSet
44 49 m 0
 44 54.3330078125 46.3310546875 63.6689453125 50.998046875 77.001953125 c 0
 55.6650390625 90.3349609375 66.33203125 111.66796875 82.9990234375 141.000976562 c 0
 92.9990234375 158.333984375 110.666015625 186.666992188 135.999023438 226 c 0
 161.33203125 265.333007812 188.999023438 307.166015625 218.999023438 351.499023438 c 0
 248.999023438 395.83203125 278.666015625 439.165039062 307.999023438 481.498046875 c 0
 337.33203125 523.831054688 360.999023438 556.6640625 378.999023438 579.997070312 c 1
 354.33203125 579.330078125 328.665039062 578.830078125 301.998046875 578.497070312 c 0
 275.331054688 578.1640625 249.498046875 577.831054688 224.498046875 577.498046875 c 0
 199.498046875 577.165039062 175.998046875 576.83203125 153.998046875 576.499023438 c 0
 131.998046875 576.166015625 112.998046875 575.666015625 96.998046875 574.999023438 c 0
 82.3310546875 574.33203125 71.998046875 578.33203125 65.998046875 586.999023438 c 0
 59.998046875 595.666015625 56.998046875 604.999023438 56.998046875 614.999023438 c 0
 56.3310546875 625.666015625 61.498046875 636.166015625 72.498046875 646.499023438 c 0
 83.498046875 656.83203125 96.998046875 661.999023438 112.998046875 661.999023438 c 0
 133.665039062 661.999023438 152.665039062 660.166015625 169.998046875 656.499023438 c 0
 187.331054688 652.83203125 207.331054688 650.999023438 229.998046875 650.999023438 c 0
 275.331054688 650.33203125 318.998046875 651.499023438 360.998046875 654.499023438 c 0
 402.998046875 657.499023438 437.998046875 659.666015625 465.998046875 660.999023438 c 0
 476.665039062 661.666015625 485.83203125 656.999023438 493.499023438 646.999023438 c 0
 501.166015625 636.999023438 505.333007812 625.666015625 506 612.999023438 c 0
 506 608.999023438 503.5 603.499023438 498.5 596.499023438 c 0
 493.5 589.499023438 487.5 582.166015625 480.5 574.499023438 c 0
 473.5 566.83203125 466.333007812 558.83203125 459 550.499023438 c 0
 451.666992188 542.166015625 446 534.666015625 442 527.999023438 c 0
 422.666992188 496.666015625 400 462.333007812 374 425 c 0
 348 387.666992188 321.5 349.333984375 294.5 310.000976562 c 0
 267.5 270.66796875 240.833007812 230.66796875 214.5 190.000976562 c 0
 188.166992188 149.333984375 165 110.000976562 145 72.0009765625 c 1
 215 76.66796875 278.833007812 79.0009765625 336.5 79.0009765625 c 0
 394.166992188 79.0009765625 437.333984375 77.0009765625 466.000976562 73.0009765625 c 0
 484.66796875 69.66796875 497.000976562 64.66796875 503.000976562 58.0009765625 c 0
 509.000976562 51.333984375 512.333984375 43.6669921875 513.000976562 35 c 0
 513.66796875 24.3330078125 510.834960938 14.5 504.501953125 5.5 c 0
 498.168945312 -3.5 484.668945312 -8 464.001953125 -8 c 0
 455.334960938 -8 436.16796875 -7.6669921875 406.500976562 -7 c 0
 376.833984375 -6.3330078125 343.166992188 -5.666015625 305.5 -4.9990234375 c 0
 267.833007812 -4.33203125 229 -3.83203125 189 -3.4990234375 c 0
 149 -3.166015625 114.333007812 -3.666015625 85 -4.9990234375 c 0
 72.3330078125 -5.666015625 62.3330078125 0.6669921875 55 14 c 0
 47.6669921875 27.3330078125 44 39 44 49 c 0
EndSplineSet
EndChar

StartChar: bracketleft
Encoding: 91 91 60
Width: 550
GlyphClass: 1
Flags: W
LayerCount: 2
Fore
SplineSet
173 792 m 0
 207 792.666992188 233.829101562 793.1640625 253.49609375 793.497070312 c 0
 273.163085938 793.830078125 290.330078125 793.997070312 304.997070312 793.997070312 c 2
 349.997070312 793.997070312 l 2
 365.330078125 793.997070312 386.330078125 794.330078125 412.997070312 794.997070312 c 0
 428.997070312 795.6640625 439.997070312 791.6640625 445.997070312 782.997070312 c 0
 451.997070312 774.330078125 455.330078125 765.663085938 455.997070312 756.99609375 c 0
 455.997070312 746.99609375 452.6640625 736.329101562 445.997070312 724.99609375 c 0
 439.330078125 713.663085938 427.663085938 709.330078125 410.99609375 711.997070312 c 0
 386.329101562 715.330078125 357.162109375 716.997070312 323.495117188 716.997070312 c 0
 289.828125 716.997070312 255.328125 716.6640625 219.995117188 715.997070312 c 1
 219.995117188 698.6640625 219.495117188 674.997070312 218.495117188 644.997070312 c 0
 217.495117188 614.997070312 216.495117188 582.997070312 215.495117188 548.997070312 c 0
 214.495117188 514.997070312 213.828125 480.330078125 213.495117188 444.997070312 c 0
 213.162109375 409.6640625 213.329101562 377.997070312 213.99609375 349.997070312 c 0
 214.663085938 320.6640625 214.99609375 289.1640625 214.99609375 255.497070312 c 0
 214.99609375 221.830078125 214.829101562 188.830078125 214.49609375 156.497070312 c 0
 214.163085938 124.1640625 213.830078125 93.4970703125 213.497070312 64.4970703125 c 0
 213.1640625 35.4970703125 212.997070312 10.9970703125 212.997070312 -9.0029296875 c 1
 260.330078125 -9.669921875 301.497070312 -9.0029296875 336.497070312 -7.0029296875 c 0
 371.497070312 -5.0029296875 398.6640625 -4.0029296875 417.997070312 -4.0029296875 c 0
 433.997070312 -4.0029296875 444.497070312 -7.669921875 449.497070312 -15.0029296875 c 0
 454.497070312 -22.3359375 457.330078125 -30.3359375 457.997070312 -39.0029296875 c 0
 457.997070312 -49.0029296875 455.497070312 -59.0029296875 450.497070312 -69.0029296875 c 0
 445.497070312 -79.0029296875 434.6640625 -82.669921875 417.997070312 -80.0029296875 c 0
 381.997070312 -75.3359375 340.997070312 -74.6689453125 294.997070312 -78.001953125 c 0
 248.997070312 -81.3349609375 206.330078125 -83.001953125 166.997070312 -83.001953125 c 0
 150.330078125 -83.001953125 138.163085938 -79.8349609375 130.49609375 -73.501953125 c 0
 122.829101562 -67.1689453125 118.99609375 -59.001953125 118.99609375 -49.001953125 c 0
 118.99609375 -46.3349609375 119.329101562 -43.3349609375 119.99609375 -40.001953125 c 0
 120.663085938 -36.6689453125 121.330078125 -33.6689453125 121.997070312 -31.001953125 c 2
 121.997070312 -22.001953125 l 2
 122.6640625 -9.3349609375 123.6640625 12.83203125 124.997070312 44.4990234375 c 0
 126.330078125 76.166015625 127.497070312 112.166015625 128.497070312 152.499023438 c 0
 129.497070312 192.83203125 129.997070312 235.499023438 129.997070312 280.499023438 c 0
 129.997070312 325.499023438 129.330078125 366.999023438 127.997070312 404.999023438 c 0
 127.330078125 430.999023438 126.830078125 459.999023438 126.497070312 491.999023438 c 0
 126.1640625 523.999023438 126.331054688 555.166015625 126.998046875 585.499023438 c 0
 127.665039062 615.83203125 128.33203125 643.83203125 128.999023438 669.499023438 c 0
 129.666015625 695.166015625 129.999023438 714.333007812 129.999023438 727 c 2
 129.999023438 733 l 2
 128.666015625 735.666992188 127.666015625 738.666992188 126.999023438 742 c 0
 126.33203125 745.333007812 125.999023438 748.333007812 125.999023438 751 c 0
 125.33203125 761 128.83203125 770.166992188 136.499023438 778.5 c 0
 144.166015625 786.833007812 156.333007812 791.333007812 173 792 c 0
EndSplineSet
EndChar

StartChar: backslash
Encoding: 92 92 61
Width: 550
GlyphClass: 1
Flags: W
LayerCount: 2
Fore
SplineSet
320 166 m 0
 307.333007812 189.333007812 288.163085938 222.668945312 262.49609375 266.001953125 c 0
 236.829101562 309.334960938 209.99609375 354.16796875 181.99609375 400.500976562 c 0
 153.99609375 446.833984375 127.49609375 491.333984375 102.49609375 534.000976562 c 0
 77.49609375 576.66796875 58.99609375 609.334960938 46.99609375 632.001953125 c 0
 38.99609375 647.334960938 36.8291015625 661.001953125 40.49609375 673.001953125 c 0
 44.1630859375 685.001953125 51.330078125 693.668945312 61.9970703125 699.001953125 c 0
 72.6640625 704.334960938 84.9970703125 705.334960938 98.9970703125 702.001953125 c 0
 112.997070312 698.668945312 123.997070312 689.3359375 131.997070312 674.002929688 c 0
 143.997070312 650.002929688 161.330078125 616.002929688 183.997070312 572.002929688 c 0
 206.6640625 528.002929688 232.331054688 481.002929688 260.998046875 431.002929688 c 0
 282.998046875 391.669921875 305.831054688 351.669921875 329.498046875 311.002929688 c 0
 353.165039062 270.3359375 375.498046875 232.168945312 396.498046875 196.501953125 c 0
 417.498046875 160.834960938 436.665039062 128.501953125 453.998046875 99.501953125 c 0
 471.331054688 70.501953125 484.998046875 48.001953125 494.998046875 32.001953125 c 0
 504.331054688 17.3349609375 507.831054688 0.8349609375 505.498046875 -17.498046875 c 0
 503.165039062 -35.8310546875 497.665039062 -47.3310546875 488.998046875 -51.998046875 c 0
 477.665039062 -58.6650390625 464.33203125 -58.6650390625 448.999023438 -51.998046875 c 0
 433.666015625 -45.3310546875 420.999023438 -33.3310546875 410.999023438 -15.998046875 c 0
 406.999023438 -8.6650390625 401.33203125 2.16796875 393.999023438 16.5009765625 c 0
 386.666015625 30.833984375 378.833007812 46.6669921875 370.5 64 c 0
 362.166992188 81.3330078125 353.666992188 99 345 117 c 0
 336.333007812 135 328 151.333007812 320 166 c 0
EndSplineSet
EndChar

